<svg xmlns="http://www.w3.org/2000/svg" width="512" height="256" viewBox="0 0 512 256">
  <rect width="512" height="256" fill="black"/>
  <rect x="164" y="16" width="12" height="4" fill="#FFFF00"/>
  <rect x="184" y="16" width="4" height="4" fill="#FFFF00"/>
  <rect x="200" y="16" width="4" height="4" fill="#FFFF00"/>
  <rect x="208" y="16" width="20" height="4" fill="#FFFF00"/>
  <rect x="236" y="16" width="12" height="4" fill="#FFFF00"/>
  <rect x="284" y="16" width="12" height="4" fill="#FFFF00"/>
  <rect x="308" y="16" width="12" height="4" fill="#FFFF00"/>
  <rect x="328" y="16" width="4" height="4" fill="#FFFF00"/>
  <rect x="168" y="20" width="4" height="4" fill="#FFFF00"/>
  <rect x="184" y="20" width="4" height="4" fill="#FFFF00"/>
  <rect x="200" y="20" width="4" height="4" fill="#FFFF00"/>
  <rect x="208" y="20" width="4" height="4" fill="#FFFF00"/>
  <rect x="232" y="20" width="4" height="4" fill="#FFFF00"/>
  <rect x="248" y="20" width="4" height="4" fill="#FFFF00"/>
  <rect x="280" y="20" width="4" height="4" fill="#FFFF00"/>
  <rect x="296" y="20" width="4" height="4" fill="#FFFF00"/>
  <rect x="304" y="20" width="4" height="4" fill="#FFFF00"/>
  <rect x="320" y="20" width="4" height="4" fill="#FFFF00"/>
  <rect x="328" y="20" width="4" height="4" fill="#FFFF00"/>
  <rect x="168" y="24" width="4" height="4" fill="#FFFF00"/>
  <rect x="184" y="24" width="8" height="4" fill="#FFFF00"/>
  <rect x="200" y="24" width="4" height="4" fill="#FFFF00"/>
  <rect x="208" y="24" width="4" height="4" fill="#FFFF00"/>
  <rect x="232" y="24" width="4" height="4" fill="#FFFF00"/>
  <rect x="248" y="24" width="4" height="4" fill="#FFFF00"/>
  <rect x="280" y="24" width="4" height="4" fill="#FFFF00"/>
  <rect x="304" y="24" width="4" height="4" fill="#FFFF00"/>
  <rect x="320" y="24" width="4" height="4" fill="#FFFF00"/>
  <rect x="328" y="24" width="4" height="4" fill="#FFFF00"/>
  <rect x="168" y="28" width="4" height="4" fill="#FFFF00"/>
  <rect x="184" y="28" width="4" height="4" fill="#FFFF00"/>
  <rect x="192" y="28" width="4" height="4" fill="#FFFF00"/>
  <rect x="200" y="28" width="4" height="4" fill="#FFFF00"/>
  <rect x="208" y="28" width="16" height="4" fill="#FFFF00"/>
  <rect x="232" y="28" width="4" height="4" fill="#FFFF00"/>
  <rect x="248" y="28" width="4" height="4" fill="#FFFF00"/>
  <rect x="280" y="28" width="4" height="4" fill="#FFFF00"/>
  <rect x="304" y="28" width="4" height="4" fill="#FFFF00"/>
  <rect x="320" y="28" width="4" height="4" fill="#FFFF00"/>
  <rect x="328" y="28" width="4" height="4" fill="#FFFF00"/>
  <rect x="168" y="32" width="4" height="4" fill="#FFFF00"/>
  <rect x="184" y="32" width="4" height="4" fill="#FFFF00"/>
  <rect x="196" y="32" width="8" height="4" fill="#FFFF00"/>
  <rect x="208" y="32" width="4" height="4" fill="#FFFF00"/>
  <rect x="232" y="32" width="4" height="4" fill="#FFFF00"/>
  <rect x="248" y="32" width="4" height="4" fill="#FFFF00"/>
  <rect x="280" y="32" width="4" height="4" fill="#FFFF00"/>
  <rect x="304" y="32" width="20" height="4" fill="#FFFF00"/>
  <rect x="328" y="32" width="4" height="4" fill="#FFFF00"/>
  <rect x="168" y="36" width="4" height="4" fill="#FFFF00"/>
  <rect x="184" y="36" width="4" height="4" fill="#FFFF00"/>
  <rect x="200" y="36" width="4" height="4" fill="#FFFF00"/>
  <rect x="208" y="36" width="4" height="4" fill="#FFFF00"/>
  <rect x="232" y="36" width="4" height="4" fill="#FFFF00"/>
  <rect x="248" y="36" width="4" height="4" fill="#FFFF00"/>
  <rect x="280" y="36" width="4" height="4" fill="#FFFF00"/>
  <rect x="296" y="36" width="4" height="4" fill="#FFFF00"/>
  <rect x="304" y="36" width="4" height="4" fill="#FFFF00"/>
  <rect x="320" y="36" width="4" height="4" fill="#FFFF00"/>
  <rect x="328" y="36" width="4" height="4" fill="#FFFF00"/>
  <rect x="164" y="40" width="12" height="4" fill="#FFFF00"/>
  <rect x="184" y="40" width="4" height="4" fill="#FFFF00"/>
  <rect x="200" y="40" width="4" height="4" fill="#FFFF00"/>
  <rect x="208" y="40" width="4" height="4" fill="#FFFF00"/>
  <rect x="236" y="40" width="12" height="4" fill="#FFFF00"/>
  <rect x="284" y="40" width="12" height="4" fill="#FFFF00"/>
  <rect x="304" y="40" width="4" height="4" fill="#FFFF00"/>
  <rect x="320" y="40" width="4" height="4" fill="#FFFF00"/>
  <rect x="328" y="40" width="20" height="4" fill="#FFFF00"/>
  <rect x="4" y="64" width="12" height="4" fill="#3399FF"/>
  <rect x="100" y="64" width="12" height="4" fill="#3399FF"/>
  <rect x="124" y="64" width="12" height="4" fill="#3399FF"/>
  <rect x="148" y="64" width="12" height="4" fill="#3399FF"/>
  <rect x="168" y="64" width="4" height="4" fill="#3399FF"/>
  <rect x="220" y="64" width="12" height="4" fill="#3399FF"/>
  <rect x="244" y="64" width="12" height="4" fill="#3399FF"/>
  <rect x="268" y="64" width="12" height="4" fill="#3399FF"/>
  <rect x="292" y="64" width="12" height="4" fill="#3399FF"/>
  <rect x="0" y="68" width="4" height="4" fill="#3399FF"/>
  <rect x="16" y="68" width="4" height="4" fill="#3399FF"/>
  <rect x="76" y="68" width="8" height="4" fill="#3399FF"/>
  <rect x="96" y="68" width="4" height="4" fill="#3399FF"/>
  <rect x="112" y="68" width="4" height="4" fill="#3399FF"/>
  <rect x="120" y="68" width="4" height="4" fill="#3399FF"/>
  <rect x="136" y="68" width="4" height="4" fill="#3399FF"/>
  <rect x="144" y="68" width="4" height="4" fill="#3399FF"/>
  <rect x="160" y="68" width="4" height="4" fill="#3399FF"/>
  <rect x="168" y="68" width="4" height="4" fill="#3399FF"/>
  <rect x="220" y="68" width="4" height="4" fill="#3399FF"/>
  <rect x="240" y="68" width="4" height="4" fill="#3399FF"/>
  <rect x="256" y="68" width="4" height="4" fill="#3399FF"/>
  <rect x="264" y="68" width="4" height="4" fill="#3399FF"/>
  <rect x="280" y="68" width="4" height="4" fill="#3399FF"/>
  <rect x="300" y="68" width="4" height="4" fill="#3399FF"/>
  <rect x="0" y="72" width="4" height="4" fill="#3399FF"/>
  <rect x="28" y="72" width="12" height="4" fill="#3399FF"/>
  <rect x="48" y="72" width="16" height="4" fill="#3399FF"/>
  <rect x="76" y="72" width="8" height="4" fill="#3399FF"/>
  <rect x="96" y="72" width="4" height="4" fill="#3399FF"/>
  <rect x="112" y="72" width="4" height="4" fill="#3399FF"/>
  <rect x="136" y="72" width="4" height="4" fill="#3399FF"/>
  <rect x="144" y="72" width="4" height="4" fill="#3399FF"/>
  <rect x="160" y="72" width="4" height="4" fill="#3399FF"/>
  <rect x="168" y="72" width="4" height="4" fill="#3399FF"/>
  <rect x="176" y="72" width="8" height="4" fill="#3399FF"/>
  <rect x="220" y="72" width="4" height="4" fill="#3399FF"/>
  <rect x="240" y="72" width="4" height="4" fill="#3399FF"/>
  <rect x="256" y="72" width="4" height="4" fill="#3399FF"/>
  <rect x="264" y="72" width="4" height="4" fill="#3399FF"/>
  <rect x="276" y="72" width="8" height="4" fill="#3399FF"/>
  <rect x="300" y="72" width="4" height="4" fill="#3399FF"/>
  <rect x="0" y="76" width="4" height="4" fill="#3399FF"/>
  <rect x="40" y="76" width="4" height="4" fill="#3399FF"/>
  <rect x="48" y="76" width="4" height="4" fill="#3399FF"/>
  <rect x="64" y="76" width="4" height="4" fill="#3399FF"/>
  <rect x="100" y="76" width="12" height="4" fill="#3399FF"/>
  <rect x="132" y="76" width="4" height="4" fill="#3399FF"/>
  <rect x="144" y="76" width="4" height="4" fill="#3399FF"/>
  <rect x="160" y="76" width="4" height="4" fill="#3399FF"/>
  <rect x="168" y="76" width="8" height="4" fill="#3399FF"/>
  <rect x="184" y="76" width="4" height="4" fill="#3399FF"/>
  <rect x="220" y="76" width="4" height="4" fill="#3399FF"/>
  <rect x="244" y="76" width="12" height="4" fill="#3399FF"/>
  <rect x="264" y="76" width="4" height="4" fill="#3399FF"/>
  <rect x="272" y="76" width="4" height="4" fill="#3399FF"/>
  <rect x="280" y="76" width="4" height="4" fill="#3399FF"/>
  <rect x="300" y="76" width="4" height="4" fill="#3399FF"/>
  <rect x="0" y="80" width="4" height="4" fill="#3399FF"/>
  <rect x="28" y="80" width="16" height="4" fill="#3399FF"/>
  <rect x="48" y="80" width="16" height="4" fill="#3399FF"/>
  <rect x="76" y="80" width="8" height="4" fill="#3399FF"/>
  <rect x="96" y="80" width="4" height="4" fill="#3399FF"/>
  <rect x="112" y="80" width="4" height="4" fill="#3399FF"/>
  <rect x="128" y="80" width="4" height="4" fill="#3399FF"/>
  <rect x="144" y="80" width="20" height="4" fill="#3399FF"/>
  <rect x="168" y="80" width="4" height="4" fill="#3399FF"/>
  <rect x="184" y="80" width="4" height="4" fill="#3399FF"/>
  <rect x="220" y="80" width="4" height="4" fill="#3399FF"/>
  <rect x="240" y="80" width="4" height="4" fill="#3399FF"/>
  <rect x="256" y="80" width="4" height="4" fill="#3399FF"/>
  <rect x="264" y="80" width="8" height="4" fill="#3399FF"/>
  <rect x="280" y="80" width="4" height="4" fill="#3399FF"/>
  <rect x="300" y="80" width="4" height="4" fill="#3399FF"/>
  <rect x="0" y="84" width="4" height="4" fill="#3399FF"/>
  <rect x="16" y="84" width="4" height="4" fill="#3399FF"/>
  <rect x="24" y="84" width="4" height="4" fill="#3399FF"/>
  <rect x="40" y="84" width="4" height="4" fill="#3399FF"/>
  <rect x="48" y="84" width="4" height="4" fill="#3399FF"/>
  <rect x="76" y="84" width="8" height="4" fill="#3399FF"/>
  <rect x="96" y="84" width="4" height="4" fill="#3399FF"/>
  <rect x="112" y="84" width="4" height="4" fill="#3399FF"/>
  <rect x="124" y="84" width="4" height="4" fill="#3399FF"/>
  <rect x="144" y="84" width="4" height="4" fill="#3399FF"/>
  <rect x="160" y="84" width="4" height="4" fill="#3399FF"/>
  <rect x="168" y="84" width="4" height="4" fill="#3399FF"/>
  <rect x="184" y="84" width="4" height="4" fill="#3399FF"/>
  <rect x="220" y="84" width="4" height="4" fill="#3399FF"/>
  <rect x="240" y="84" width="4" height="4" fill="#3399FF"/>
  <rect x="256" y="84" width="4" height="4" fill="#3399FF"/>
  <rect x="264" y="84" width="4" height="4" fill="#3399FF"/>
  <rect x="280" y="84" width="4" height="4" fill="#3399FF"/>
  <rect x="300" y="84" width="4" height="4" fill="#3399FF"/>
  <rect x="4" y="88" width="12" height="4" fill="#3399FF"/>
  <rect x="28" y="88" width="16" height="4" fill="#3399FF"/>
  <rect x="48" y="88" width="4" height="4" fill="#3399FF"/>
  <rect x="100" y="88" width="12" height="4" fill="#3399FF"/>
  <rect x="120" y="88" width="20" height="4" fill="#3399FF"/>
  <rect x="144" y="88" width="4" height="4" fill="#3399FF"/>
  <rect x="160" y="88" width="4" height="4" fill="#3399FF"/>
  <rect x="168" y="88" width="4" height="4" fill="#3399FF"/>
  <rect x="184" y="88" width="4" height="4" fill="#3399FF"/>
  <rect x="220" y="88" width="12" height="4" fill="#3399FF"/>
  <rect x="244" y="88" width="12" height="4" fill="#3399FF"/>
  <rect x="268" y="88" width="12" height="4" fill="#3399FF"/>
  <rect x="292" y="88" width="12" height="4" fill="#3399FF"/>
  <rect x="8" y="100" width="4" height="4" fill="#3399FF"/>
  <rect x="28" y="100" width="12" height="4" fill="#3399FF"/>
  <rect x="72" y="100" width="20" height="4" fill="#3399FF"/>
  <rect x="124" y="100" width="12" height="4" fill="#3399FF"/>
  <rect x="148" y="100" width="12" height="4" fill="#3399FF"/>
  <rect x="172" y="100" width="12" height="4" fill="#3399FF"/>
  <rect x="192" y="100" width="4" height="4" fill="#3399FF"/>
  <rect x="432" y="100" width="4" height="4" fill="#3399FF"/>
  <rect x="448" y="100" width="4" height="4" fill="#3399FF"/>
  <rect x="464" y="100" width="20" height="4" fill="#3399FF"/>
  <rect x="488" y="100" width="8" height="4" fill="#3399FF"/>
  <rect x="4" y="104" width="8" height="4" fill="#3399FF"/>
  <rect x="24" y="104" width="4" height="4" fill="#3399FF"/>
  <rect x="40" y="104" width="4" height="4" fill="#3399FF"/>
  <rect x="84" y="104" width="4" height="4" fill="#3399FF"/>
  <rect x="112" y="104" width="4" height="4" fill="#3399FF"/>
  <rect x="120" y="104" width="4" height="4" fill="#3399FF"/>
  <rect x="136" y="104" width="4" height="4" fill="#3399FF"/>
  <rect x="144" y="104" width="4" height="4" fill="#3399FF"/>
  <rect x="160" y="104" width="4" height="4" fill="#3399FF"/>
  <rect x="168" y="104" width="4" height="4" fill="#3399FF"/>
  <rect x="184" y="104" width="4" height="4" fill="#3399FF"/>
  <rect x="192" y="104" width="4" height="4" fill="#3399FF"/>
  <rect x="432" y="104" width="4" height="4" fill="#3399FF"/>
  <rect x="444" y="104" width="8" height="4" fill="#3399FF"/>
  <rect x="464" y="104" width="4" height="4" fill="#3399FF"/>
  <rect x="488" y="104" width="8" height="4" fill="#3399FF"/>
  <rect x="504" y="104" width="4" height="4" fill="#3399FF"/>
  <rect x="8" y="108" width="4" height="4" fill="#3399FF"/>
  <rect x="40" y="108" width="4" height="4" fill="#3399FF"/>
  <rect x="80" y="108" width="4" height="4" fill="#3399FF"/>
  <rect x="108" y="108" width="4" height="4" fill="#3399FF"/>
  <rect x="136" y="108" width="4" height="4" fill="#3399FF"/>
  <rect x="144" y="108" width="4" height="4" fill="#3399FF"/>
  <rect x="156" y="108" width="8" height="4" fill="#3399FF"/>
  <rect x="168" y="108" width="4" height="4" fill="#3399FF"/>
  <rect x="184" y="108" width="4" height="4" fill="#3399FF"/>
  <rect x="192" y="108" width="4" height="4" fill="#3399FF"/>
  <rect x="200" y="108" width="8" height="4" fill="#3399FF"/>
  <rect x="420" y="108" width="8" height="4" fill="#3399FF"/>
  <rect x="432" y="108" width="4" height="4" fill="#3399FF"/>
  <rect x="448" y="108" width="4" height="4" fill="#3399FF"/>
  <rect x="464" y="108" width="16" height="4" fill="#3399FF"/>
  <rect x="500" y="108" width="4" height="4" fill="#3399FF"/>
  <rect x="8" y="112" width="4" height="4" fill="#3399FF"/>
  <rect x="36" y="112" width="4" height="4" fill="#3399FF"/>
  <rect x="84" y="112" width="4" height="4" fill="#3399FF"/>
  <rect x="104" y="112" width="4" height="4" fill="#3399FF"/>
  <rect x="132" y="112" width="4" height="4" fill="#3399FF"/>
  <rect x="144" y="112" width="4" height="4" fill="#3399FF"/>
  <rect x="152" y="112" width="4" height="4" fill="#3399FF"/>
  <rect x="160" y="112" width="4" height="4" fill="#3399FF"/>
  <rect x="168" y="112" width="4" height="4" fill="#3399FF"/>
  <rect x="184" y="112" width="4" height="4" fill="#3399FF"/>
  <rect x="192" y="112" width="8" height="4" fill="#3399FF"/>
  <rect x="208" y="112" width="4" height="4" fill="#3399FF"/>
  <rect x="416" y="112" width="4" height="4" fill="#3399FF"/>
  <rect x="428" y="112" width="8" height="4" fill="#3399FF"/>
  <rect x="448" y="112" width="4" height="4" fill="#3399FF"/>
  <rect x="480" y="112" width="4" height="4" fill="#3399FF"/>
  <rect x="496" y="112" width="4" height="4" fill="#3399FF"/>
  <rect x="8" y="116" width="4" height="4" fill="#3399FF"/>
  <rect x="32" y="116" width="4" height="4" fill="#3399FF"/>
  <rect x="88" y="116" width="4" height="4" fill="#3399FF"/>
  <rect x="100" y="116" width="4" height="4" fill="#3399FF"/>
  <rect x="128" y="116" width="4" height="4" fill="#3399FF"/>
  <rect x="144" y="116" width="8" height="4" fill="#3399FF"/>
  <rect x="160" y="116" width="4" height="4" fill="#3399FF"/>
  <rect x="168" y="116" width="20" height="4" fill="#3399FF"/>
  <rect x="192" y="116" width="4" height="4" fill="#3399FF"/>
  <rect x="208" y="116" width="4" height="4" fill="#3399FF"/>
  <rect x="416" y="116" width="4" height="4" fill="#3399FF"/>
  <rect x="432" y="116" width="4" height="4" fill="#3399FF"/>
  <rect x="448" y="116" width="4" height="4" fill="#3399FF"/>
  <rect x="480" y="116" width="4" height="4" fill="#3399FF"/>
  <rect x="492" y="116" width="4" height="4" fill="#3399FF"/>
  <rect x="8" y="120" width="4" height="4" fill="#3399FF"/>
  <rect x="28" y="120" width="4" height="4" fill="#3399FF"/>
  <rect x="52" y="120" width="8" height="4" fill="#3399FF"/>
  <rect x="72" y="120" width="4" height="4" fill="#3399FF"/>
  <rect x="88" y="120" width="4" height="4" fill="#3399FF"/>
  <rect x="96" y="120" width="4" height="4" fill="#3399FF"/>
  <rect x="124" y="120" width="4" height="4" fill="#3399FF"/>
  <rect x="144" y="120" width="4" height="4" fill="#3399FF"/>
  <rect x="160" y="120" width="4" height="4" fill="#3399FF"/>
  <rect x="168" y="120" width="4" height="4" fill="#3399FF"/>
  <rect x="184" y="120" width="4" height="4" fill="#3399FF"/>
  <rect x="192" y="120" width="4" height="4" fill="#3399FF"/>
  <rect x="208" y="120" width="4" height="4" fill="#3399FF"/>
  <rect x="416" y="120" width="4" height="4" fill="#3399FF"/>
  <rect x="432" y="120" width="4" height="4" fill="#3399FF"/>
  <rect x="448" y="120" width="4" height="4" fill="#3399FF"/>
  <rect x="464" y="120" width="4" height="4" fill="#3399FF"/>
  <rect x="480" y="120" width="4" height="4" fill="#3399FF"/>
  <rect x="488" y="120" width="4" height="4" fill="#3399FF"/>
  <rect x="500" y="120" width="8" height="4" fill="#3399FF"/>
  <rect x="4" y="124" width="12" height="4" fill="#3399FF"/>
  <rect x="24" y="124" width="20" height="4" fill="#3399FF"/>
  <rect x="52" y="124" width="8" height="4" fill="#3399FF"/>
  <rect x="76" y="124" width="12" height="4" fill="#3399FF"/>
  <rect x="120" y="124" width="20" height="4" fill="#3399FF"/>
  <rect x="148" y="124" width="12" height="4" fill="#3399FF"/>
  <rect x="168" y="124" width="4" height="4" fill="#3399FF"/>
  <rect x="184" y="124" width="4" height="4" fill="#3399FF"/>
  <rect x="192" y="124" width="4" height="4" fill="#3399FF"/>
  <rect x="208" y="124" width="4" height="4" fill="#3399FF"/>
  <rect x="420" y="124" width="16" height="4" fill="#3399FF"/>
  <rect x="444" y="124" width="12" height="4" fill="#3399FF"/>
  <rect x="468" y="124" width="12" height="4" fill="#3399FF"/>
  <rect x="500" y="124" width="8" height="4" fill="#3399FF"/>
  <rect x="0" y="136" width="4" height="4" fill="#3399FF"/>
  <rect x="16" y="136" width="4" height="4" fill="#3399FF"/>
  <rect x="56" y="136" width="4" height="4" fill="#3399FF"/>
  <rect x="72" y="136" width="20" height="4" fill="#3399FF"/>
  <rect x="128" y="136" width="4" height="4" fill="#3399FF"/>
  <rect x="148" y="136" width="12" height="4" fill="#3399FF"/>
  <rect x="196" y="136" width="4" height="4" fill="#3399FF"/>
  <rect x="224" y="136" width="4" height="4" fill="#3399FF"/>
  <rect x="240" y="136" width="20" height="4" fill="#3399FF"/>
  <rect x="292" y="136" width="12" height="4" fill="#3399FF"/>
  <rect x="316" y="136" width="12" height="4" fill="#3399FF"/>
  <rect x="336" y="136" width="4" height="4" fill="#3399FF"/>
  <rect x="352" y="136" width="4" height="4" fill="#3399FF"/>
  <rect x="0" y="140" width="4" height="4" fill="#3399FF"/>
  <rect x="16" y="140" width="4" height="4" fill="#3399FF"/>
  <rect x="28" y="140" width="8" height="4" fill="#3399FF"/>
  <rect x="52" y="140" width="8" height="4" fill="#3399FF"/>
  <rect x="84" y="140" width="4" height="4" fill="#3399FF"/>
  <rect x="124" y="140" width="8" height="4" fill="#3399FF"/>
  <rect x="144" y="140" width="4" height="4" fill="#3399FF"/>
  <rect x="160" y="140" width="4" height="4" fill="#3399FF"/>
  <rect x="200" y="140" width="4" height="4" fill="#3399FF"/>
  <rect x="220" y="140" width="8" height="4" fill="#3399FF"/>
  <rect x="252" y="140" width="4" height="4" fill="#3399FF"/>
  <rect x="288" y="140" width="4" height="4" fill="#3399FF"/>
  <rect x="304" y="140" width="4" height="4" fill="#3399FF"/>
  <rect x="312" y="140" width="4" height="4" fill="#3399FF"/>
  <rect x="328" y="140" width="4" height="4" fill="#3399FF"/>
  <rect x="336" y="140" width="4" height="4" fill="#3399FF"/>
  <rect x="352" y="140" width="4" height="4" fill="#3399FF"/>
  <rect x="0" y="144" width="4" height="4" fill="#3399FF"/>
  <rect x="16" y="144" width="4" height="4" fill="#3399FF"/>
  <rect x="28" y="144" width="8" height="4" fill="#3399FF"/>
  <rect x="56" y="144" width="4" height="4" fill="#3399FF"/>
  <rect x="80" y="144" width="4" height="4" fill="#3399FF"/>
  <rect x="128" y="144" width="4" height="4" fill="#3399FF"/>
  <rect x="144" y="144" width="4" height="4" fill="#3399FF"/>
  <rect x="156" y="144" width="8" height="4" fill="#3399FF"/>
  <rect x="204" y="144" width="4" height="4" fill="#3399FF"/>
  <rect x="224" y="144" width="4" height="4" fill="#3399FF"/>
  <rect x="248" y="144" width="4" height="4" fill="#3399FF"/>
  <rect x="304" y="144" width="4" height="4" fill="#3399FF"/>
  <rect x="312" y="144" width="4" height="4" fill="#3399FF"/>
  <rect x="328" y="144" width="4" height="4" fill="#3399FF"/>
  <rect x="336" y="144" width="4" height="4" fill="#3399FF"/>
  <rect x="352" y="144" width="4" height="4" fill="#3399FF"/>
  <rect x="0" y="148" width="4" height="4" fill="#3399FF"/>
  <rect x="16" y="148" width="4" height="4" fill="#3399FF"/>
  <rect x="56" y="148" width="4" height="4" fill="#3399FF"/>
  <rect x="84" y="148" width="4" height="4" fill="#3399FF"/>
  <rect x="128" y="148" width="4" height="4" fill="#3399FF"/>
  <rect x="144" y="148" width="4" height="4" fill="#3399FF"/>
  <rect x="152" y="148" width="4" height="4" fill="#3399FF"/>
  <rect x="160" y="148" width="4" height="4" fill="#3399FF"/>
  <rect x="168" y="148" width="20" height="4" fill="#3399FF"/>
  <rect x="208" y="148" width="4" height="4" fill="#3399FF"/>
  <rect x="224" y="148" width="4" height="4" fill="#3399FF"/>
  <rect x="252" y="148" width="4" height="4" fill="#3399FF"/>
  <rect x="300" y="148" width="4" height="4" fill="#3399FF"/>
  <rect x="316" y="148" width="12" height="4" fill="#3399FF"/>
  <rect x="336" y="148" width="4" height="4" fill="#3399FF"/>
  <rect x="352" y="148" width="4" height="4" fill="#3399FF"/>
  <rect x="0" y="152" width="4" height="4" fill="#3399FF"/>
  <rect x="16" y="152" width="4" height="4" fill="#3399FF"/>
  <rect x="28" y="152" width="8" height="4" fill="#3399FF"/>
  <rect x="56" y="152" width="4" height="4" fill="#3399FF"/>
  <rect x="88" y="152" width="4" height="4" fill="#3399FF"/>
  <rect x="128" y="152" width="4" height="4" fill="#3399FF"/>
  <rect x="144" y="152" width="8" height="4" fill="#3399FF"/>
  <rect x="160" y="152" width="4" height="4" fill="#3399FF"/>
  <rect x="204" y="152" width="4" height="4" fill="#3399FF"/>
  <rect x="224" y="152" width="4" height="4" fill="#3399FF"/>
  <rect x="256" y="152" width="4" height="4" fill="#3399FF"/>
  <rect x="296" y="152" width="4" height="4" fill="#3399FF"/>
  <rect x="312" y="152" width="4" height="4" fill="#3399FF"/>
  <rect x="328" y="152" width="4" height="4" fill="#3399FF"/>
  <rect x="336" y="152" width="4" height="4" fill="#3399FF"/>
  <rect x="352" y="152" width="4" height="4" fill="#3399FF"/>
  <rect x="4" y="156" width="4" height="4" fill="#3399FF"/>
  <rect x="12" y="156" width="4" height="4" fill="#3399FF"/>
  <rect x="28" y="156" width="8" height="4" fill="#3399FF"/>
  <rect x="56" y="156" width="4" height="4" fill="#3399FF"/>
  <rect x="72" y="156" width="4" height="4" fill="#3399FF"/>
  <rect x="88" y="156" width="4" height="4" fill="#3399FF"/>
  <rect x="100" y="156" width="8" height="4" fill="#3399FF"/>
  <rect x="128" y="156" width="4" height="4" fill="#3399FF"/>
  <rect x="144" y="156" width="4" height="4" fill="#3399FF"/>
  <rect x="160" y="156" width="4" height="4" fill="#3399FF"/>
  <rect x="200" y="156" width="4" height="4" fill="#3399FF"/>
  <rect x="224" y="156" width="4" height="4" fill="#3399FF"/>
  <rect x="240" y="156" width="4" height="4" fill="#3399FF"/>
  <rect x="256" y="156" width="4" height="4" fill="#3399FF"/>
  <rect x="268" y="156" width="8" height="4" fill="#3399FF"/>
  <rect x="292" y="156" width="4" height="4" fill="#3399FF"/>
  <rect x="312" y="156" width="4" height="4" fill="#3399FF"/>
  <rect x="328" y="156" width="4" height="4" fill="#3399FF"/>
  <rect x="340" y="156" width="4" height="4" fill="#3399FF"/>
  <rect x="348" y="156" width="4" height="4" fill="#3399FF"/>
  <rect x="8" y="160" width="4" height="4" fill="#3399FF"/>
  <rect x="52" y="160" width="12" height="4" fill="#3399FF"/>
  <rect x="76" y="160" width="12" height="4" fill="#3399FF"/>
  <rect x="100" y="160" width="8" height="4" fill="#3399FF"/>
  <rect x="124" y="160" width="12" height="4" fill="#3399FF"/>
  <rect x="148" y="160" width="12" height="4" fill="#3399FF"/>
  <rect x="196" y="160" width="4" height="4" fill="#3399FF"/>
  <rect x="220" y="160" width="12" height="4" fill="#3399FF"/>
  <rect x="244" y="160" width="12" height="4" fill="#3399FF"/>
  <rect x="268" y="160" width="8" height="4" fill="#3399FF"/>
  <rect x="288" y="160" width="20" height="4" fill="#3399FF"/>
  <rect x="316" y="160" width="12" height="4" fill="#3399FF"/>
  <rect x="344" y="160" width="4" height="4" fill="#3399FF"/>
  <rect x="4" y="172" width="16" height="4" fill="#3399FF"/>
  <rect x="28" y="172" width="12" height="4" fill="#3399FF"/>
  <rect x="52" y="172" width="12" height="4" fill="#3399FF"/>
  <rect x="96" y="172" width="20" height="4" fill="#3399FF"/>
  <rect x="124" y="172" width="12" height="4" fill="#3399FF"/>
  <rect x="144" y="172" width="8" height="4" fill="#3399FF"/>
  <rect x="0" y="176" width="4" height="4" fill="#3399FF"/>
  <rect x="24" y="176" width="4" height="4" fill="#3399FF"/>
  <rect x="40" y="176" width="4" height="4" fill="#3399FF"/>
  <rect x="48" y="176" width="4" height="4" fill="#3399FF"/>
  <rect x="64" y="176" width="4" height="4" fill="#3399FF"/>
  <rect x="76" y="176" width="8" height="4" fill="#3399FF"/>
  <rect x="112" y="176" width="4" height="4" fill="#3399FF"/>
  <rect x="120" y="176" width="4" height="4" fill="#3399FF"/>
  <rect x="136" y="176" width="4" height="4" fill="#3399FF"/>
  <rect x="144" y="176" width="8" height="4" fill="#3399FF"/>
  <rect x="160" y="176" width="4" height="4" fill="#3399FF"/>
  <rect x="0" y="180" width="4" height="4" fill="#3399FF"/>
  <rect x="24" y="180" width="4" height="4" fill="#3399FF"/>
  <rect x="40" y="180" width="4" height="4" fill="#3399FF"/>
  <rect x="48" y="180" width="4" height="4" fill="#3399FF"/>
  <rect x="76" y="180" width="8" height="4" fill="#3399FF"/>
  <rect x="108" y="180" width="4" height="4" fill="#3399FF"/>
  <rect x="136" y="180" width="4" height="4" fill="#3399FF"/>
  <rect x="156" y="180" width="4" height="4" fill="#3399FF"/>
  <rect x="4" y="184" width="12" height="4" fill="#3399FF"/>
  <rect x="24" y="184" width="4" height="4" fill="#3399FF"/>
  <rect x="40" y="184" width="4" height="4" fill="#3399FF"/>
  <rect x="48" y="184" width="4" height="4" fill="#3399FF"/>
  <rect x="104" y="184" width="4" height="4" fill="#3399FF"/>
  <rect x="132" y="184" width="4" height="4" fill="#3399FF"/>
  <rect x="152" y="184" width="4" height="4" fill="#3399FF"/>
  <rect x="16" y="188" width="4" height="4" fill="#3399FF"/>
  <rect x="24" y="188" width="4" height="4" fill="#3399FF"/>
  <rect x="40" y="188" width="4" height="4" fill="#3399FF"/>
  <rect x="48" y="188" width="4" height="4" fill="#3399FF"/>
  <rect x="76" y="188" width="8" height="4" fill="#3399FF"/>
  <rect x="100" y="188" width="4" height="4" fill="#3399FF"/>
  <rect x="128" y="188" width="4" height="4" fill="#3399FF"/>
  <rect x="148" y="188" width="4" height="4" fill="#3399FF"/>
  <rect x="16" y="192" width="4" height="4" fill="#3399FF"/>
  <rect x="24" y="192" width="4" height="4" fill="#3399FF"/>
  <rect x="40" y="192" width="4" height="4" fill="#3399FF"/>
  <rect x="48" y="192" width="4" height="4" fill="#3399FF"/>
  <rect x="64" y="192" width="4" height="4" fill="#3399FF"/>
  <rect x="76" y="192" width="8" height="4" fill="#3399FF"/>
  <rect x="100" y="192" width="4" height="4" fill="#3399FF"/>
  <rect x="124" y="192" width="4" height="4" fill="#3399FF"/>
  <rect x="144" y="192" width="4" height="4" fill="#3399FF"/>
  <rect x="156" y="192" width="8" height="4" fill="#3399FF"/>
  <rect x="0" y="196" width="16" height="4" fill="#3399FF"/>
  <rect x="28" y="196" width="12" height="4" fill="#3399FF"/>
  <rect x="52" y="196" width="12" height="4" fill="#3399FF"/>
  <rect x="100" y="196" width="4" height="4" fill="#3399FF"/>
  <rect x="120" y="196" width="20" height="4" fill="#3399FF"/>
  <rect x="156" y="196" width="8" height="4" fill="#3399FF"/>
</svg>