<svg xmlns="http://www.w3.org/2000/svg" width="768" height="384" viewBox="0 0 768 384">
  <rect width="768" height="384" fill="black"/>
  <rect x="0" y="0" width="276" height="6" fill="#FFFF00"/>
  <rect x="336" y="0" width="12" height="6" fill="#FFFF00"/>
  <rect x="408" y="0" width="12" height="6" fill="#FFFF00"/>
  <rect x="480" y="0" width="288" height="6" fill="#FFFF00"/>
  <rect x="0" y="6" width="276" height="6" fill="#FFFF00"/>
  <rect x="336" y="6" width="12" height="6" fill="#FFFF00"/>
  <rect x="408" y="6" width="12" height="6" fill="#FFFF00"/>
  <rect x="480" y="6" width="66" height="6" fill="#FFFF00"/>
  <rect x="762" y="6" width="6" height="6" fill="#FFFF00"/>
  <rect x="0" y="12" width="276" height="6" fill="#FFFF00"/>
  <rect x="336" y="12" width="12" height="6" fill="#FFFF00"/>
  <rect x="408" y="12" width="12" height="6" fill="#FFFF00"/>
  <rect x="480" y="12" width="66" height="6" fill="#FFFF00"/>
  <rect x="762" y="12" width="6" height="6" fill="#FFFF00"/>
  <rect x="0" y="18" width="276" height="6" fill="#FFFF00"/>
  <rect x="336" y="18" width="12" height="6" fill="#FFFF00"/>
  <rect x="408" y="18" width="12" height="6" fill="#FFFF00"/>
  <rect x="480" y="18" width="66" height="6" fill="#FFFF00"/>
  <rect x="762" y="18" width="6" height="6" fill="#FFFF00"/>
  <rect x="0" y="24" width="276" height="6" fill="#FFFF00"/>
  <rect x="336" y="24" width="12" height="6" fill="#FFFF00"/>
  <rect x="408" y="24" width="12" height="6" fill="#FFFF00"/>
  <rect x="480" y="24" width="66" height="6" fill="#FFFF00"/>
  <rect x="762" y="24" width="6" height="6" fill="#FFFF00"/>
  <rect x="0" y="30" width="276" height="6" fill="#FFFF00"/>
  <rect x="336" y="30" width="12" height="6" fill="#FFFF00"/>
  <rect x="408" y="30" width="12" height="6" fill="#FFFF00"/>
  <rect x="480" y="30" width="66" height="6" fill="#FFFF00"/>
  <rect x="762" y="30" width="6" height="6" fill="#FFFF00"/>
  <rect x="0" y="36" width="276" height="6" fill="#FFFF00"/>
  <rect x="336" y="36" width="12" height="6" fill="#FFFF00"/>
  <rect x="408" y="36" width="12" height="6" fill="#FFFF00"/>
  <rect x="480" y="36" width="66" height="6" fill="#FFFF00"/>
  <rect x="762" y="36" width="6" height="6" fill="#FFFF00"/>
  <rect x="0" y="42" width="276" height="6" fill="#FFFF00"/>
  <rect x="336" y="42" width="12" height="6" fill="#FFFF00"/>
  <rect x="408" y="42" width="12" height="6" fill="#FFFF00"/>
  <rect x="480" y="42" width="66" height="6" fill="#FFFF00"/>
  <rect x="762" y="42" width="6" height="6" fill="#FFFF00"/>
  <rect x="0" y="48" width="276" height="6" fill="#FFFF00"/>
  <rect x="336" y="48" width="12" height="6" fill="#FFFF00"/>
  <rect x="408" y="48" width="12" height="6" fill="#FFFF00"/>
  <rect x="480" y="48" width="66" height="6" fill="#FFFF00"/>
  <rect x="762" y="48" width="6" height="6" fill="#FFFF00"/>
  <rect x="0" y="54" width="276" height="6" fill="#FFFF00"/>
  <rect x="336" y="54" width="12" height="6" fill="#FFFF00"/>
  <rect x="408" y="54" width="12" height="6" fill="#FFFF00"/>
  <rect x="480" y="54" width="66" height="6" fill="#FFFF00"/>
  <rect x="762" y="54" width="6" height="6" fill="#FFFF00"/>
  <rect x="0" y="60" width="276" height="6" fill="#FFFF00"/>
  <rect x="336" y="60" width="12" height="6" fill="#FFFF00"/>
  <rect x="408" y="60" width="12" height="6" fill="#FFFF00"/>
  <rect x="480" y="60" width="66" height="6" fill="#FFFF00"/>
  <rect x="762" y="60" width="6" height="6" fill="#FFFF00"/>
  <rect x="0" y="66" width="276" height="6" fill="#FFFF00"/>
  <rect x="336" y="66" width="12" height="6" fill="#FFFF00"/>
  <rect x="408" y="66" width="12" height="6" fill="#FFFF00"/>
  <rect x="480" y="66" width="66" height="6" fill="#FFFF00"/>
  <rect x="762" y="66" width="6" height="6" fill="#FFFF00"/>
  <rect x="0" y="72" width="276" height="6" fill="#FFFF00"/>
  <rect x="336" y="72" width="12" height="6" fill="#FFFF00"/>
  <rect x="408" y="72" width="12" height="6" fill="#FFFF00"/>
  <rect x="480" y="72" width="66" height="6" fill="#FFFF00"/>
  <rect x="762" y="72" width="6" height="6" fill="#FFFF00"/>
  <rect x="0" y="78" width="276" height="6" fill="#FFFF00"/>
  <rect x="336" y="78" width="12" height="6" fill="#FFFF00"/>
  <rect x="408" y="78" width="12" height="6" fill="#FFFF00"/>
  <rect x="480" y="78" width="66" height="6" fill="#FFFF00"/>
  <rect x="762" y="78" width="6" height="6" fill="#FFFF00"/>
  <rect x="0" y="84" width="546" height="6" fill="#FFFF00"/>
  <rect x="762" y="84" width="6" height="6" fill="#FFFF00"/>
  <rect x="0" y="90" width="768" height="6" fill="#FFFF00"/>
  <rect x="12" y="96" width="6" height="6" fill="#3399FF"/>
  <rect x="36" y="96" width="30" height="6" fill="#3399FF"/>
  <rect x="114" y="96" width="18" height="6" fill="#3399FF"/>
  <rect x="144" y="96" width="6" height="6" fill="#3399FF"/>
  <rect x="168" y="96" width="6" height="6" fill="#3399FF"/>
  <rect x="624" y="96" width="30" height="6" fill="#3399FF"/>
  <rect x="714" y="96" width="6" height="6" fill="#3399FF"/>
  <rect x="738" y="96" width="18" height="6" fill="#3399FF"/>
  <rect x="6" y="102" width="12" height="6" fill="#3399FF"/>
  <rect x="54" y="102" width="6" height="6" fill="#3399FF"/>
  <rect x="108" y="102" width="6" height="6" fill="#3399FF"/>
  <rect x="132" y="102" width="6" height="6" fill="#3399FF"/>
  <rect x="144" y="102" width="6" height="6" fill="#3399FF"/>
  <rect x="168" y="102" width="6" height="6" fill="#3399FF"/>
  <rect x="624" y="102" width="6" height="6" fill="#3399FF"/>
  <rect x="708" y="102" width="12" height="6" fill="#3399FF"/>
  <rect x="732" y="102" width="6" height="6" fill="#3399FF"/>
  <rect x="756" y="102" width="6" height="6" fill="#3399FF"/>
  <rect x="12" y="108" width="6" height="6" fill="#3399FF"/>
  <rect x="48" y="108" width="6" height="6" fill="#3399FF"/>
  <rect x="132" y="108" width="6" height="6" fill="#3399FF"/>
  <rect x="144" y="108" width="6" height="6" fill="#3399FF"/>
  <rect x="168" y="108" width="6" height="6" fill="#3399FF"/>
  <rect x="624" y="108" width="24" height="6" fill="#3399FF"/>
  <rect x="702" y="108" width="6" height="6" fill="#3399FF"/>
  <rect x="714" y="108" width="6" height="6" fill="#3399FF"/>
  <rect x="732" y="108" width="6" height="6" fill="#3399FF"/>
  <rect x="756" y="108" width="6" height="6" fill="#3399FF"/>
  <rect x="12" y="114" width="6" height="6" fill="#3399FF"/>
  <rect x="54" y="114" width="6" height="6" fill="#3399FF"/>
  <rect x="126" y="114" width="6" height="6" fill="#3399FF"/>
  <rect x="144" y="114" width="6" height="6" fill="#3399FF"/>
  <rect x="168" y="114" width="6" height="6" fill="#3399FF"/>
  <rect x="588" y="114" width="30" height="6" fill="#3399FF"/>
  <rect x="648" y="114" width="6" height="6" fill="#3399FF"/>
  <rect x="696" y="114" width="6" height="6" fill="#3399FF"/>
  <rect x="714" y="114" width="6" height="6" fill="#3399FF"/>
  <rect x="732" y="114" width="6" height="6" fill="#3399FF"/>
  <rect x="756" y="114" width="6" height="6" fill="#3399FF"/>
  <rect x="12" y="120" width="6" height="6" fill="#3399FF"/>
  <rect x="60" y="120" width="6" height="6" fill="#3399FF"/>
  <rect x="120" y="120" width="6" height="6" fill="#3399FF"/>
  <rect x="144" y="120" width="6" height="6" fill="#3399FF"/>
  <rect x="168" y="120" width="6" height="6" fill="#3399FF"/>
  <rect x="648" y="120" width="6" height="6" fill="#3399FF"/>
  <rect x="696" y="120" width="30" height="6" fill="#3399FF"/>
  <rect x="732" y="120" width="30" height="6" fill="#3399FF"/>
  <rect x="12" y="126" width="6" height="6" fill="#3399FF"/>
  <rect x="36" y="126" width="6" height="6" fill="#3399FF"/>
  <rect x="60" y="126" width="6" height="6" fill="#3399FF"/>
  <rect x="78" y="126" width="12" height="6" fill="#3399FF"/>
  <rect x="114" y="126" width="6" height="6" fill="#3399FF"/>
  <rect x="150" y="126" width="6" height="6" fill="#3399FF"/>
  <rect x="162" y="126" width="6" height="6" fill="#3399FF"/>
  <rect x="624" y="126" width="6" height="6" fill="#3399FF"/>
  <rect x="648" y="126" width="6" height="6" fill="#3399FF"/>
  <rect x="666" y="126" width="12" height="6" fill="#3399FF"/>
  <rect x="714" y="126" width="6" height="6" fill="#3399FF"/>
  <rect x="732" y="126" width="6" height="6" fill="#3399FF"/>
  <rect x="756" y="126" width="6" height="6" fill="#3399FF"/>
  <rect x="6" y="132" width="18" height="6" fill="#3399FF"/>
  <rect x="42" y="132" width="18" height="6" fill="#3399FF"/>
  <rect x="78" y="132" width="12" height="6" fill="#3399FF"/>
  <rect x="108" y="132" width="30" height="6" fill="#3399FF"/>
  <rect x="156" y="132" width="6" height="6" fill="#3399FF"/>
  <rect x="630" y="132" width="18" height="6" fill="#3399FF"/>
  <rect x="666" y="132" width="12" height="6" fill="#3399FF"/>
  <rect x="714" y="132" width="6" height="6" fill="#3399FF"/>
  <rect x="732" y="132" width="6" height="6" fill="#3399FF"/>
  <rect x="756" y="132" width="6" height="6" fill="#3399FF"/>
  <rect x="6" y="156" width="18" height="6" fill="#3399FF"/>
  <rect x="150" y="156" width="18" height="6" fill="#3399FF"/>
  <rect x="186" y="156" width="18" height="6" fill="#3399FF"/>
  <rect x="222" y="156" width="18" height="6" fill="#3399FF"/>
  <rect x="252" y="156" width="6" height="6" fill="#3399FF"/>
  <rect x="474" y="156" width="18" height="6" fill="#3399FF"/>
  <rect x="510" y="156" width="18" height="6" fill="#3399FF"/>
  <rect x="546" y="156" width="18" height="6" fill="#3399FF"/>
  <rect x="576" y="156" width="6" height="6" fill="#3399FF"/>
  <rect x="0" y="162" width="6" height="6" fill="#3399FF"/>
  <rect x="24" y="162" width="6" height="6" fill="#3399FF"/>
  <rect x="114" y="162" width="12" height="6" fill="#3399FF"/>
  <rect x="144" y="162" width="6" height="6" fill="#3399FF"/>
  <rect x="168" y="162" width="6" height="6" fill="#3399FF"/>
  <rect x="180" y="162" width="6" height="6" fill="#3399FF"/>
  <rect x="204" y="162" width="6" height="6" fill="#3399FF"/>
  <rect x="216" y="162" width="6" height="6" fill="#3399FF"/>
  <rect x="240" y="162" width="6" height="6" fill="#3399FF"/>
  <rect x="252" y="162" width="6" height="6" fill="#3399FF"/>
  <rect x="438" y="162" width="12" height="6" fill="#3399FF"/>
  <rect x="468" y="162" width="6" height="6" fill="#3399FF"/>
  <rect x="492" y="162" width="6" height="6" fill="#3399FF"/>
  <rect x="504" y="162" width="6" height="6" fill="#3399FF"/>
  <rect x="528" y="162" width="6" height="6" fill="#3399FF"/>
  <rect x="540" y="162" width="6" height="6" fill="#3399FF"/>
  <rect x="564" y="162" width="6" height="6" fill="#3399FF"/>
  <rect x="576" y="162" width="6" height="6" fill="#3399FF"/>
  <rect x="0" y="168" width="6" height="6" fill="#3399FF"/>
  <rect x="42" y="168" width="18" height="6" fill="#3399FF"/>
  <rect x="72" y="168" width="24" height="6" fill="#3399FF"/>
  <rect x="114" y="168" width="12" height="6" fill="#3399FF"/>
  <rect x="144" y="168" width="6" height="6" fill="#3399FF"/>
  <rect x="168" y="168" width="6" height="6" fill="#3399FF"/>
  <rect x="204" y="168" width="6" height="6" fill="#3399FF"/>
  <rect x="216" y="168" width="6" height="6" fill="#3399FF"/>
  <rect x="240" y="168" width="6" height="6" fill="#3399FF"/>
  <rect x="252" y="168" width="6" height="6" fill="#3399FF"/>
  <rect x="264" y="168" width="12" height="6" fill="#3399FF"/>
  <rect x="324" y="168" width="6" height="6" fill="#3399FF"/>
  <rect x="336" y="168" width="12" height="6" fill="#3399FF"/>
  <rect x="366" y="168" width="18" height="6" fill="#3399FF"/>
  <rect x="396" y="168" width="12" height="6" fill="#3399FF"/>
  <rect x="414" y="168" width="6" height="6" fill="#3399FF"/>
  <rect x="438" y="168" width="12" height="6" fill="#3399FF"/>
  <rect x="468" y="168" width="6" height="6" fill="#3399FF"/>
  <rect x="492" y="168" width="6" height="6" fill="#3399FF"/>
  <rect x="504" y="168" width="6" height="6" fill="#3399FF"/>
  <rect x="522" y="168" width="12" height="6" fill="#3399FF"/>
  <rect x="540" y="168" width="6" height="6" fill="#3399FF"/>
  <rect x="564" y="168" width="6" height="6" fill="#3399FF"/>
  <rect x="576" y="168" width="6" height="6" fill="#3399FF"/>
  <rect x="588" y="168" width="12" height="6" fill="#3399FF"/>
  <rect x="0" y="174" width="6" height="6" fill="#3399FF"/>
  <rect x="60" y="174" width="6" height="6" fill="#3399FF"/>
  <rect x="72" y="174" width="6" height="6" fill="#3399FF"/>
  <rect x="96" y="174" width="6" height="6" fill="#3399FF"/>
  <rect x="150" y="174" width="18" height="6" fill="#3399FF"/>
  <rect x="198" y="174" width="6" height="6" fill="#3399FF"/>
  <rect x="216" y="174" width="6" height="6" fill="#3399FF"/>
  <rect x="240" y="174" width="6" height="6" fill="#3399FF"/>
  <rect x="252" y="174" width="12" height="6" fill="#3399FF"/>
  <rect x="276" y="174" width="6" height="6" fill="#3399FF"/>
  <rect x="324" y="174" width="12" height="6" fill="#3399FF"/>
  <rect x="348" y="174" width="6" height="6" fill="#3399FF"/>
  <rect x="360" y="174" width="6" height="6" fill="#3399FF"/>
  <rect x="384" y="174" width="6" height="6" fill="#3399FF"/>
  <rect x="396" y="174" width="6" height="6" fill="#3399FF"/>
  <rect x="408" y="174" width="6" height="6" fill="#3399FF"/>
  <rect x="420" y="174" width="6" height="6" fill="#3399FF"/>
  <rect x="474" y="174" width="18" height="6" fill="#3399FF"/>
  <rect x="504" y="174" width="6" height="6" fill="#3399FF"/>
  <rect x="516" y="174" width="6" height="6" fill="#3399FF"/>
  <rect x="528" y="174" width="6" height="6" fill="#3399FF"/>
  <rect x="540" y="174" width="6" height="6" fill="#3399FF"/>
  <rect x="564" y="174" width="6" height="6" fill="#3399FF"/>
  <rect x="576" y="174" width="12" height="6" fill="#3399FF"/>
  <rect x="600" y="174" width="6" height="6" fill="#3399FF"/>
  <rect x="0" y="180" width="6" height="6" fill="#3399FF"/>
  <rect x="42" y="180" width="24" height="6" fill="#3399FF"/>
  <rect x="72" y="180" width="24" height="6" fill="#3399FF"/>
  <rect x="114" y="180" width="12" height="6" fill="#3399FF"/>
  <rect x="144" y="180" width="6" height="6" fill="#3399FF"/>
  <rect x="168" y="180" width="6" height="6" fill="#3399FF"/>
  <rect x="192" y="180" width="6" height="6" fill="#3399FF"/>
  <rect x="216" y="180" width="30" height="6" fill="#3399FF"/>
  <rect x="252" y="180" width="6" height="6" fill="#3399FF"/>
  <rect x="276" y="180" width="6" height="6" fill="#3399FF"/>
  <rect x="324" y="180" width="6" height="6" fill="#3399FF"/>
  <rect x="348" y="180" width="6" height="6" fill="#3399FF"/>
  <rect x="360" y="180" width="6" height="6" fill="#3399FF"/>
  <rect x="384" y="180" width="6" height="6" fill="#3399FF"/>
  <rect x="396" y="180" width="6" height="6" fill="#3399FF"/>
  <rect x="408" y="180" width="6" height="6" fill="#3399FF"/>
  <rect x="420" y="180" width="6" height="6" fill="#3399FF"/>
  <rect x="438" y="180" width="12" height="6" fill="#3399FF"/>
  <rect x="468" y="180" width="6" height="6" fill="#3399FF"/>
  <rect x="492" y="180" width="6" height="6" fill="#3399FF"/>
  <rect x="504" y="180" width="12" height="6" fill="#3399FF"/>
  <rect x="528" y="180" width="6" height="6" fill="#3399FF"/>
  <rect x="540" y="180" width="30" height="6" fill="#3399FF"/>
  <rect x="576" y="180" width="6" height="6" fill="#3399FF"/>
  <rect x="600" y="180" width="6" height="6" fill="#3399FF"/>
  <rect x="0" y="186" width="6" height="6" fill="#3399FF"/>
  <rect x="24" y="186" width="6" height="6" fill="#3399FF"/>
  <rect x="36" y="186" width="6" height="6" fill="#3399FF"/>
  <rect x="60" y="186" width="6" height="6" fill="#3399FF"/>
  <rect x="72" y="186" width="6" height="6" fill="#3399FF"/>
  <rect x="114" y="186" width="12" height="6" fill="#3399FF"/>
  <rect x="144" y="186" width="6" height="6" fill="#3399FF"/>
  <rect x="168" y="186" width="6" height="6" fill="#3399FF"/>
  <rect x="186" y="186" width="6" height="6" fill="#3399FF"/>
  <rect x="216" y="186" width="6" height="6" fill="#3399FF"/>
  <rect x="240" y="186" width="6" height="6" fill="#3399FF"/>
  <rect x="252" y="186" width="6" height="6" fill="#3399FF"/>
  <rect x="276" y="186" width="6" height="6" fill="#3399FF"/>
  <rect x="324" y="186" width="6" height="6" fill="#3399FF"/>
  <rect x="348" y="186" width="6" height="6" fill="#3399FF"/>
  <rect x="360" y="186" width="6" height="6" fill="#3399FF"/>
  <rect x="384" y="186" width="6" height="6" fill="#3399FF"/>
  <rect x="396" y="186" width="6" height="6" fill="#3399FF"/>
  <rect x="420" y="186" width="6" height="6" fill="#3399FF"/>
  <rect x="438" y="186" width="12" height="6" fill="#3399FF"/>
  <rect x="468" y="186" width="6" height="6" fill="#3399FF"/>
  <rect x="492" y="186" width="6" height="6" fill="#3399FF"/>
  <rect x="504" y="186" width="6" height="6" fill="#3399FF"/>
  <rect x="528" y="186" width="6" height="6" fill="#3399FF"/>
  <rect x="540" y="186" width="6" height="6" fill="#3399FF"/>
  <rect x="564" y="186" width="6" height="6" fill="#3399FF"/>
  <rect x="576" y="186" width="6" height="6" fill="#3399FF"/>
  <rect x="600" y="186" width="6" height="6" fill="#3399FF"/>
  <rect x="6" y="192" width="18" height="6" fill="#3399FF"/>
  <rect x="42" y="192" width="24" height="6" fill="#3399FF"/>
  <rect x="72" y="192" width="6" height="6" fill="#3399FF"/>
  <rect x="150" y="192" width="18" height="6" fill="#3399FF"/>
  <rect x="180" y="192" width="30" height="6" fill="#3399FF"/>
  <rect x="216" y="192" width="6" height="6" fill="#3399FF"/>
  <rect x="240" y="192" width="6" height="6" fill="#3399FF"/>
  <rect x="252" y="192" width="6" height="6" fill="#3399FF"/>
  <rect x="276" y="192" width="6" height="6" fill="#3399FF"/>
  <rect x="324" y="192" width="6" height="6" fill="#3399FF"/>
  <rect x="348" y="192" width="6" height="6" fill="#3399FF"/>
  <rect x="366" y="192" width="18" height="6" fill="#3399FF"/>
  <rect x="396" y="192" width="6" height="6" fill="#3399FF"/>
  <rect x="420" y="192" width="6" height="6" fill="#3399FF"/>
  <rect x="474" y="192" width="18" height="6" fill="#3399FF"/>
  <rect x="510" y="192" width="18" height="6" fill="#3399FF"/>
  <rect x="540" y="192" width="6" height="6" fill="#3399FF"/>
  <rect x="564" y="192" width="6" height="6" fill="#3399FF"/>
  <rect x="576" y="192" width="6" height="6" fill="#3399FF"/>
  <rect x="600" y="192" width="6" height="6" fill="#3399FF"/>
  <rect x="18" y="216" width="6" height="6" fill="#3399FF"/>
  <rect x="42" y="216" width="24" height="6" fill="#3399FF"/>
  <rect x="150" y="216" width="24" height="6" fill="#3399FF"/>
  <rect x="186" y="216" width="18" height="6" fill="#3399FF"/>
  <rect x="222" y="216" width="18" height="6" fill="#3399FF"/>
  <rect x="288" y="216" width="30" height="6" fill="#3399FF"/>
  <rect x="330" y="216" width="18" height="6" fill="#3399FF"/>
  <rect x="360" y="216" width="12" height="6" fill="#3399FF"/>
  <rect x="12" y="222" width="12" height="6" fill="#3399FF"/>
  <rect x="36" y="222" width="6" height="6" fill="#3399FF"/>
  <rect x="144" y="222" width="6" height="6" fill="#3399FF"/>
  <rect x="180" y="222" width="6" height="6" fill="#3399FF"/>
  <rect x="204" y="222" width="6" height="6" fill="#3399FF"/>
  <rect x="216" y="222" width="6" height="6" fill="#3399FF"/>
  <rect x="240" y="222" width="6" height="6" fill="#3399FF"/>
  <rect x="258" y="222" width="12" height="6" fill="#3399FF"/>
  <rect x="312" y="222" width="6" height="6" fill="#3399FF"/>
  <rect x="324" y="222" width="6" height="6" fill="#3399FF"/>
  <rect x="348" y="222" width="6" height="6" fill="#3399FF"/>
  <rect x="360" y="222" width="12" height="6" fill="#3399FF"/>
  <rect x="384" y="222" width="6" height="6" fill="#3399FF"/>
  <rect x="6" y="228" width="6" height="6" fill="#3399FF"/>
  <rect x="18" y="228" width="6" height="6" fill="#3399FF"/>
  <rect x="36" y="228" width="6" height="6" fill="#3399FF"/>
  <rect x="144" y="228" width="6" height="6" fill="#3399FF"/>
  <rect x="180" y="228" width="6" height="6" fill="#3399FF"/>
  <rect x="204" y="228" width="6" height="6" fill="#3399FF"/>
  <rect x="216" y="228" width="6" height="6" fill="#3399FF"/>
  <rect x="258" y="228" width="12" height="6" fill="#3399FF"/>
  <rect x="306" y="228" width="6" height="6" fill="#3399FF"/>
  <rect x="348" y="228" width="6" height="6" fill="#3399FF"/>
  <rect x="378" y="228" width="6" height="6" fill="#3399FF"/>
  <rect x="0" y="234" width="6" height="6" fill="#3399FF"/>
  <rect x="18" y="234" width="6" height="6" fill="#3399FF"/>
  <rect x="42" y="234" width="18" height="6" fill="#3399FF"/>
  <rect x="150" y="234" width="18" height="6" fill="#3399FF"/>
  <rect x="180" y="234" width="6" height="6" fill="#3399FF"/>
  <rect x="204" y="234" width="6" height="6" fill="#3399FF"/>
  <rect x="216" y="234" width="6" height="6" fill="#3399FF"/>
  <rect x="300" y="234" width="6" height="6" fill="#3399FF"/>
  <rect x="342" y="234" width="6" height="6" fill="#3399FF"/>
  <rect x="372" y="234" width="6" height="6" fill="#3399FF"/>
  <rect x="0" y="240" width="30" height="6" fill="#3399FF"/>
  <rect x="60" y="240" width="6" height="6" fill="#3399FF"/>
  <rect x="168" y="240" width="6" height="6" fill="#3399FF"/>
  <rect x="180" y="240" width="6" height="6" fill="#3399FF"/>
  <rect x="204" y="240" width="6" height="6" fill="#3399FF"/>
  <rect x="216" y="240" width="6" height="6" fill="#3399FF"/>
  <rect x="258" y="240" width="12" height="6" fill="#3399FF"/>
  <rect x="294" y="240" width="6" height="6" fill="#3399FF"/>
  <rect x="336" y="240" width="6" height="6" fill="#3399FF"/>
  <rect x="366" y="240" width="6" height="6" fill="#3399FF"/>
  <rect x="18" y="246" width="6" height="6" fill="#3399FF"/>
  <rect x="60" y="246" width="6" height="6" fill="#3399FF"/>
  <rect x="168" y="246" width="6" height="6" fill="#3399FF"/>
  <rect x="180" y="246" width="6" height="6" fill="#3399FF"/>
  <rect x="204" y="246" width="6" height="6" fill="#3399FF"/>
  <rect x="216" y="246" width="6" height="6" fill="#3399FF"/>
  <rect x="240" y="246" width="6" height="6" fill="#3399FF"/>
  <rect x="258" y="246" width="12" height="6" fill="#3399FF"/>
  <rect x="294" y="246" width="6" height="6" fill="#3399FF"/>
  <rect x="330" y="246" width="6" height="6" fill="#3399FF"/>
  <rect x="360" y="246" width="6" height="6" fill="#3399FF"/>
  <rect x="378" y="246" width="12" height="6" fill="#3399FF"/>
  <rect x="18" y="252" width="6" height="6" fill="#3399FF"/>
  <rect x="36" y="252" width="24" height="6" fill="#3399FF"/>
  <rect x="144" y="252" width="24" height="6" fill="#3399FF"/>
  <rect x="186" y="252" width="18" height="6" fill="#3399FF"/>
  <rect x="222" y="252" width="18" height="6" fill="#3399FF"/>
  <rect x="294" y="252" width="6" height="6" fill="#3399FF"/>
  <rect x="324" y="252" width="30" height="6" fill="#3399FF"/>
  <rect x="378" y="252" width="12" height="6" fill="#3399FF"/>
  <rect x="6" y="288" width="756" height="6" fill="#3399FF"/>
  <rect x="6" y="294" width="540" height="6" fill="#3399FF"/>
  <rect x="756" y="294" width="6" height="6" fill="#3399FF"/>
  <rect x="6" y="300" width="540" height="6" fill="#3399FF"/>
  <rect x="756" y="300" width="6" height="6" fill="#3399FF"/>
  <rect x="6" y="306" width="540" height="6" fill="#3399FF"/>
  <rect x="756" y="306" width="6" height="6" fill="#3399FF"/>
  <rect x="6" y="312" width="540" height="6" fill="#3399FF"/>
  <rect x="756" y="312" width="6" height="6" fill="#3399FF"/>
  <rect x="6" y="318" width="540" height="6" fill="#3399FF"/>
  <rect x="756" y="318" width="6" height="6" fill="#3399FF"/>
  <rect x="6" y="324" width="540" height="6" fill="#3399FF"/>
  <rect x="756" y="324" width="6" height="6" fill="#3399FF"/>
  <rect x="6" y="330" width="756" height="6" fill="#3399FF"/>
  <rect x="6" y="348" width="18" height="6" fill="#3399FF"/>
  <rect x="42" y="348" width="18" height="6" fill="#3399FF"/>
  <rect x="72" y="348" width="6" height="6" fill="#3399FF"/>
  <rect x="168" y="348" width="6" height="6" fill="#3399FF"/>
  <rect x="186" y="348" width="24" height="6" fill="#3399FF"/>
  <rect x="222" y="348" width="18" height="6" fill="#3399FF"/>
  <rect x="258" y="348" width="18" height="6" fill="#3399FF"/>
  <rect x="324" y="348" width="30" height="6" fill="#3399FF"/>
  <rect x="366" y="348" width="18" height="6" fill="#3399FF"/>
  <rect x="396" y="348" width="12" height="6" fill="#3399FF"/>
  <rect x="0" y="354" width="6" height="6" fill="#3399FF"/>
  <rect x="24" y="354" width="6" height="6" fill="#3399FF"/>
  <rect x="36" y="354" width="6" height="6" fill="#3399FF"/>
  <rect x="60" y="354" width="6" height="6" fill="#3399FF"/>
  <rect x="72" y="354" width="6" height="6" fill="#3399FF"/>
  <rect x="168" y="354" width="6" height="6" fill="#3399FF"/>
  <rect x="180" y="354" width="6" height="6" fill="#3399FF"/>
  <rect x="216" y="354" width="6" height="6" fill="#3399FF"/>
  <rect x="240" y="354" width="6" height="6" fill="#3399FF"/>
  <rect x="252" y="354" width="6" height="6" fill="#3399FF"/>
  <rect x="276" y="354" width="6" height="6" fill="#3399FF"/>
  <rect x="294" y="354" width="12" height="6" fill="#3399FF"/>
  <rect x="348" y="354" width="6" height="6" fill="#3399FF"/>
  <rect x="360" y="354" width="6" height="6" fill="#3399FF"/>
  <rect x="384" y="354" width="6" height="6" fill="#3399FF"/>
  <rect x="396" y="354" width="12" height="6" fill="#3399FF"/>
  <rect x="420" y="354" width="6" height="6" fill="#3399FF"/>
  <rect x="0" y="360" width="6" height="6" fill="#3399FF"/>
  <rect x="36" y="360" width="6" height="6" fill="#3399FF"/>
  <rect x="60" y="360" width="6" height="6" fill="#3399FF"/>
  <rect x="72" y="360" width="6" height="6" fill="#3399FF"/>
  <rect x="150" y="360" width="12" height="6" fill="#3399FF"/>
  <rect x="168" y="360" width="6" height="6" fill="#3399FF"/>
  <rect x="180" y="360" width="6" height="6" fill="#3399FF"/>
  <rect x="216" y="360" width="6" height="6" fill="#3399FF"/>
  <rect x="240" y="360" width="6" height="6" fill="#3399FF"/>
  <rect x="252" y="360" width="6" height="6" fill="#3399FF"/>
  <rect x="294" y="360" width="12" height="6" fill="#3399FF"/>
  <rect x="342" y="360" width="6" height="6" fill="#3399FF"/>
  <rect x="384" y="360" width="6" height="6" fill="#3399FF"/>
  <rect x="414" y="360" width="6" height="6" fill="#3399FF"/>
  <rect x="0" y="366" width="6" height="6" fill="#3399FF"/>
  <rect x="36" y="366" width="6" height="6" fill="#3399FF"/>
  <rect x="60" y="366" width="6" height="6" fill="#3399FF"/>
  <rect x="72" y="366" width="6" height="6" fill="#3399FF"/>
  <rect x="144" y="366" width="6" height="6" fill="#3399FF"/>
  <rect x="162" y="366" width="12" height="6" fill="#3399FF"/>
  <rect x="186" y="366" width="18" height="6" fill="#3399FF"/>
  <rect x="216" y="366" width="6" height="6" fill="#3399FF"/>
  <rect x="240" y="366" width="6" height="6" fill="#3399FF"/>
  <rect x="252" y="366" width="6" height="6" fill="#3399FF"/>
  <rect x="336" y="366" width="6" height="6" fill="#3399FF"/>
  <rect x="378" y="366" width="6" height="6" fill="#3399FF"/>
  <rect x="408" y="366" width="6" height="6" fill="#3399FF"/>
  <rect x="0" y="372" width="6" height="6" fill="#3399FF"/>
  <rect x="36" y="372" width="30" height="6" fill="#3399FF"/>
  <rect x="72" y="372" width="6" height="6" fill="#3399FF"/>
  <rect x="144" y="372" width="6" height="6" fill="#3399FF"/>
  <rect x="168" y="372" width="6" height="6" fill="#3399FF"/>
  <rect x="204" y="372" width="6" height="6" fill="#3399FF"/>
  <rect x="216" y="372" width="6" height="6" fill="#3399FF"/>
  <rect x="240" y="372" width="6" height="6" fill="#3399FF"/>
  <rect x="252" y="372" width="6" height="6" fill="#3399FF"/>
  <rect x="294" y="372" width="12" height="6" fill="#3399FF"/>
  <rect x="330" y="372" width="6" height="6" fill="#3399FF"/>
  <rect x="372" y="372" width="6" height="6" fill="#3399FF"/>
  <rect x="402" y="372" width="6" height="6" fill="#3399FF"/>
  <rect x="0" y="378" width="6" height="6" fill="#3399FF"/>
  <rect x="24" y="378" width="6" height="6" fill="#3399FF"/>
  <rect x="36" y="378" width="6" height="6" fill="#3399FF"/>
  <rect x="60" y="378" width="6" height="6" fill="#3399FF"/>
  <rect x="72" y="378" width="6" height="6" fill="#3399FF"/>
  <rect x="144" y="378" width="6" height="6" fill="#3399FF"/>
  <rect x="168" y="378" width="6" height="6" fill="#3399FF"/>
  <rect x="204" y="378" width="6" height="6" fill="#3399FF"/>
  <rect x="216" y="378" width="6" height="6" fill="#3399FF"/>
  <rect x="240" y="378" width="6" height="6" fill="#3399FF"/>
  <rect x="252" y="378" width="6" height="6" fill="#3399FF"/>
  <rect x="276" y="378" width="6" height="6" fill="#3399FF"/>
  <rect x="294" y="378" width="12" height="6" fill="#3399FF"/>
  <rect x="330" y="378" width="6" height="6" fill="#3399FF"/>
  <rect x="366" y="378" width="6" height="6" fill="#3399FF"/>
  <rect x="396" y="378" width="6" height="6" fill="#3399FF"/>
  <rect x="414" y="378" width="12" height="6" fill="#3399FF"/>
</svg>