<svg xmlns="http://www.w3.org/2000/svg" width="768" height="384" viewBox="0 0 768 384">
  <rect width="768" height="384" fill="black"/>
  <rect x="246" y="24" width="18" height="6" fill="#FFFF00"/>
  <rect x="276" y="24" width="6" height="6" fill="#FFFF00"/>
  <rect x="300" y="24" width="6" height="6" fill="#FFFF00"/>
  <rect x="312" y="24" width="30" height="6" fill="#FFFF00"/>
  <rect x="354" y="24" width="18" height="6" fill="#FFFF00"/>
  <rect x="426" y="24" width="18" height="6" fill="#FFFF00"/>
  <rect x="462" y="24" width="18" height="6" fill="#FFFF00"/>
  <rect x="492" y="24" width="6" height="6" fill="#FFFF00"/>
  <rect x="252" y="30" width="6" height="6" fill="#FFFF00"/>
  <rect x="276" y="30" width="6" height="6" fill="#FFFF00"/>
  <rect x="300" y="30" width="6" height="6" fill="#FFFF00"/>
  <rect x="312" y="30" width="6" height="6" fill="#FFFF00"/>
  <rect x="348" y="30" width="6" height="6" fill="#FFFF00"/>
  <rect x="372" y="30" width="6" height="6" fill="#FFFF00"/>
  <rect x="420" y="30" width="6" height="6" fill="#FFFF00"/>
  <rect x="444" y="30" width="6" height="6" fill="#FFFF00"/>
  <rect x="456" y="30" width="6" height="6" fill="#FFFF00"/>
  <rect x="480" y="30" width="6" height="6" fill="#FFFF00"/>
  <rect x="492" y="30" width="6" height="6" fill="#FFFF00"/>
  <rect x="252" y="36" width="6" height="6" fill="#FFFF00"/>
  <rect x="276" y="36" width="12" height="6" fill="#FFFF00"/>
  <rect x="300" y="36" width="6" height="6" fill="#FFFF00"/>
  <rect x="312" y="36" width="6" height="6" fill="#FFFF00"/>
  <rect x="348" y="36" width="6" height="6" fill="#FFFF00"/>
  <rect x="372" y="36" width="6" height="6" fill="#FFFF00"/>
  <rect x="420" y="36" width="6" height="6" fill="#FFFF00"/>
  <rect x="456" y="36" width="6" height="6" fill="#FFFF00"/>
  <rect x="480" y="36" width="6" height="6" fill="#FFFF00"/>
  <rect x="492" y="36" width="6" height="6" fill="#FFFF00"/>
  <rect x="252" y="42" width="6" height="6" fill="#FFFF00"/>
  <rect x="276" y="42" width="6" height="6" fill="#FFFF00"/>
  <rect x="288" y="42" width="6" height="6" fill="#FFFF00"/>
  <rect x="300" y="42" width="6" height="6" fill="#FFFF00"/>
  <rect x="312" y="42" width="24" height="6" fill="#FFFF00"/>
  <rect x="348" y="42" width="6" height="6" fill="#FFFF00"/>
  <rect x="372" y="42" width="6" height="6" fill="#FFFF00"/>
  <rect x="420" y="42" width="6" height="6" fill="#FFFF00"/>
  <rect x="456" y="42" width="6" height="6" fill="#FFFF00"/>
  <rect x="480" y="42" width="6" height="6" fill="#FFFF00"/>
  <rect x="492" y="42" width="6" height="6" fill="#FFFF00"/>
  <rect x="252" y="48" width="6" height="6" fill="#FFFF00"/>
  <rect x="276" y="48" width="6" height="6" fill="#FFFF00"/>
  <rect x="294" y="48" width="12" height="6" fill="#FFFF00"/>
  <rect x="312" y="48" width="6" height="6" fill="#FFFF00"/>
  <rect x="348" y="48" width="6" height="6" fill="#FFFF00"/>
  <rect x="372" y="48" width="6" height="6" fill="#FFFF00"/>
  <rect x="420" y="48" width="6" height="6" fill="#FFFF00"/>
  <rect x="456" y="48" width="30" height="6" fill="#FFFF00"/>
  <rect x="492" y="48" width="6" height="6" fill="#FFFF00"/>
  <rect x="252" y="54" width="6" height="6" fill="#FFFF00"/>
  <rect x="276" y="54" width="6" height="6" fill="#FFFF00"/>
  <rect x="300" y="54" width="6" height="6" fill="#FFFF00"/>
  <rect x="312" y="54" width="6" height="6" fill="#FFFF00"/>
  <rect x="348" y="54" width="6" height="6" fill="#FFFF00"/>
  <rect x="372" y="54" width="6" height="6" fill="#FFFF00"/>
  <rect x="420" y="54" width="6" height="6" fill="#FFFF00"/>
  <rect x="444" y="54" width="6" height="6" fill="#FFFF00"/>
  <rect x="456" y="54" width="6" height="6" fill="#FFFF00"/>
  <rect x="480" y="54" width="6" height="6" fill="#FFFF00"/>
  <rect x="492" y="54" width="6" height="6" fill="#FFFF00"/>
  <rect x="246" y="60" width="18" height="6" fill="#FFFF00"/>
  <rect x="276" y="60" width="6" height="6" fill="#FFFF00"/>
  <rect x="300" y="60" width="6" height="6" fill="#FFFF00"/>
  <rect x="312" y="60" width="6" height="6" fill="#FFFF00"/>
  <rect x="354" y="60" width="18" height="6" fill="#FFFF00"/>
  <rect x="426" y="60" width="18" height="6" fill="#FFFF00"/>
  <rect x="456" y="60" width="6" height="6" fill="#FFFF00"/>
  <rect x="480" y="60" width="6" height="6" fill="#FFFF00"/>
  <rect x="492" y="60" width="30" height="6" fill="#FFFF00"/>
  <rect x="6" y="96" width="18" height="6" fill="#3399FF"/>
  <rect x="150" y="96" width="18" height="6" fill="#3399FF"/>
  <rect x="186" y="96" width="18" height="6" fill="#3399FF"/>
  <rect x="222" y="96" width="18" height="6" fill="#3399FF"/>
  <rect x="252" y="96" width="6" height="6" fill="#3399FF"/>
  <rect x="330" y="96" width="18" height="6" fill="#3399FF"/>
  <rect x="366" y="96" width="18" height="6" fill="#3399FF"/>
  <rect x="402" y="96" width="18" height="6" fill="#3399FF"/>
  <rect x="438" y="96" width="18" height="6" fill="#3399FF"/>
  <rect x="0" y="102" width="6" height="6" fill="#3399FF"/>
  <rect x="24" y="102" width="6" height="6" fill="#3399FF"/>
  <rect x="114" y="102" width="12" height="6" fill="#3399FF"/>
  <rect x="144" y="102" width="6" height="6" fill="#3399FF"/>
  <rect x="168" y="102" width="6" height="6" fill="#3399FF"/>
  <rect x="180" y="102" width="6" height="6" fill="#3399FF"/>
  <rect x="204" y="102" width="6" height="6" fill="#3399FF"/>
  <rect x="216" y="102" width="6" height="6" fill="#3399FF"/>
  <rect x="240" y="102" width="6" height="6" fill="#3399FF"/>
  <rect x="252" y="102" width="6" height="6" fill="#3399FF"/>
  <rect x="330" y="102" width="6" height="6" fill="#3399FF"/>
  <rect x="360" y="102" width="6" height="6" fill="#3399FF"/>
  <rect x="384" y="102" width="6" height="6" fill="#3399FF"/>
  <rect x="396" y="102" width="6" height="6" fill="#3399FF"/>
  <rect x="420" y="102" width="6" height="6" fill="#3399FF"/>
  <rect x="450" y="102" width="6" height="6" fill="#3399FF"/>
  <rect x="0" y="108" width="6" height="6" fill="#3399FF"/>
  <rect x="42" y="108" width="18" height="6" fill="#3399FF"/>
  <rect x="72" y="108" width="24" height="6" fill="#3399FF"/>
  <rect x="114" y="108" width="12" height="6" fill="#3399FF"/>
  <rect x="144" y="108" width="6" height="6" fill="#3399FF"/>
  <rect x="168" y="108" width="6" height="6" fill="#3399FF"/>
  <rect x="204" y="108" width="6" height="6" fill="#3399FF"/>
  <rect x="216" y="108" width="6" height="6" fill="#3399FF"/>
  <rect x="240" y="108" width="6" height="6" fill="#3399FF"/>
  <rect x="252" y="108" width="6" height="6" fill="#3399FF"/>
  <rect x="264" y="108" width="12" height="6" fill="#3399FF"/>
  <rect x="330" y="108" width="6" height="6" fill="#3399FF"/>
  <rect x="360" y="108" width="6" height="6" fill="#3399FF"/>
  <rect x="384" y="108" width="6" height="6" fill="#3399FF"/>
  <rect x="396" y="108" width="6" height="6" fill="#3399FF"/>
  <rect x="414" y="108" width="12" height="6" fill="#3399FF"/>
  <rect x="450" y="108" width="6" height="6" fill="#3399FF"/>
  <rect x="0" y="114" width="6" height="6" fill="#3399FF"/>
  <rect x="60" y="114" width="6" height="6" fill="#3399FF"/>
  <rect x="72" y="114" width="6" height="6" fill="#3399FF"/>
  <rect x="96" y="114" width="6" height="6" fill="#3399FF"/>
  <rect x="150" y="114" width="18" height="6" fill="#3399FF"/>
  <rect x="198" y="114" width="6" height="6" fill="#3399FF"/>
  <rect x="216" y="114" width="6" height="6" fill="#3399FF"/>
  <rect x="240" y="114" width="6" height="6" fill="#3399FF"/>
  <rect x="252" y="114" width="12" height="6" fill="#3399FF"/>
  <rect x="276" y="114" width="6" height="6" fill="#3399FF"/>
  <rect x="330" y="114" width="6" height="6" fill="#3399FF"/>
  <rect x="366" y="114" width="18" height="6" fill="#3399FF"/>
  <rect x="396" y="114" width="6" height="6" fill="#3399FF"/>
  <rect x="408" y="114" width="6" height="6" fill="#3399FF"/>
  <rect x="420" y="114" width="6" height="6" fill="#3399FF"/>
  <rect x="450" y="114" width="6" height="6" fill="#3399FF"/>
  <rect x="0" y="120" width="6" height="6" fill="#3399FF"/>
  <rect x="42" y="120" width="24" height="6" fill="#3399FF"/>
  <rect x="72" y="120" width="24" height="6" fill="#3399FF"/>
  <rect x="114" y="120" width="12" height="6" fill="#3399FF"/>
  <rect x="144" y="120" width="6" height="6" fill="#3399FF"/>
  <rect x="168" y="120" width="6" height="6" fill="#3399FF"/>
  <rect x="192" y="120" width="6" height="6" fill="#3399FF"/>
  <rect x="216" y="120" width="30" height="6" fill="#3399FF"/>
  <rect x="252" y="120" width="6" height="6" fill="#3399FF"/>
  <rect x="276" y="120" width="6" height="6" fill="#3399FF"/>
  <rect x="330" y="120" width="6" height="6" fill="#3399FF"/>
  <rect x="360" y="120" width="6" height="6" fill="#3399FF"/>
  <rect x="384" y="120" width="6" height="6" fill="#3399FF"/>
  <rect x="396" y="120" width="12" height="6" fill="#3399FF"/>
  <rect x="420" y="120" width="6" height="6" fill="#3399FF"/>
  <rect x="450" y="120" width="6" height="6" fill="#3399FF"/>
  <rect x="0" y="126" width="6" height="6" fill="#3399FF"/>
  <rect x="24" y="126" width="6" height="6" fill="#3399FF"/>
  <rect x="36" y="126" width="6" height="6" fill="#3399FF"/>
  <rect x="60" y="126" width="6" height="6" fill="#3399FF"/>
  <rect x="72" y="126" width="6" height="6" fill="#3399FF"/>
  <rect x="114" y="126" width="12" height="6" fill="#3399FF"/>
  <rect x="144" y="126" width="6" height="6" fill="#3399FF"/>
  <rect x="168" y="126" width="6" height="6" fill="#3399FF"/>
  <rect x="186" y="126" width="6" height="6" fill="#3399FF"/>
  <rect x="216" y="126" width="6" height="6" fill="#3399FF"/>
  <rect x="240" y="126" width="6" height="6" fill="#3399FF"/>
  <rect x="252" y="126" width="6" height="6" fill="#3399FF"/>
  <rect x="276" y="126" width="6" height="6" fill="#3399FF"/>
  <rect x="330" y="126" width="6" height="6" fill="#3399FF"/>
  <rect x="360" y="126" width="6" height="6" fill="#3399FF"/>
  <rect x="384" y="126" width="6" height="6" fill="#3399FF"/>
  <rect x="396" y="126" width="6" height="6" fill="#3399FF"/>
  <rect x="420" y="126" width="6" height="6" fill="#3399FF"/>
  <rect x="450" y="126" width="6" height="6" fill="#3399FF"/>
  <rect x="6" y="132" width="18" height="6" fill="#3399FF"/>
  <rect x="42" y="132" width="24" height="6" fill="#3399FF"/>
  <rect x="72" y="132" width="6" height="6" fill="#3399FF"/>
  <rect x="150" y="132" width="18" height="6" fill="#3399FF"/>
  <rect x="180" y="132" width="30" height="6" fill="#3399FF"/>
  <rect x="216" y="132" width="6" height="6" fill="#3399FF"/>
  <rect x="240" y="132" width="6" height="6" fill="#3399FF"/>
  <rect x="252" y="132" width="6" height="6" fill="#3399FF"/>
  <rect x="276" y="132" width="6" height="6" fill="#3399FF"/>
  <rect x="330" y="132" width="18" height="6" fill="#3399FF"/>
  <rect x="366" y="132" width="18" height="6" fill="#3399FF"/>
  <rect x="402" y="132" width="18" height="6" fill="#3399FF"/>
  <rect x="438" y="132" width="18" height="6" fill="#3399FF"/>
  <rect x="12" y="150" width="6" height="6" fill="#3399FF"/>
  <rect x="42" y="150" width="18" height="6" fill="#3399FF"/>
  <rect x="108" y="150" width="30" height="6" fill="#3399FF"/>
  <rect x="186" y="150" width="18" height="6" fill="#3399FF"/>
  <rect x="222" y="150" width="18" height="6" fill="#3399FF"/>
  <rect x="258" y="150" width="18" height="6" fill="#3399FF"/>
  <rect x="288" y="150" width="6" height="6" fill="#3399FF"/>
  <rect x="648" y="150" width="6" height="6" fill="#3399FF"/>
  <rect x="672" y="150" width="6" height="6" fill="#3399FF"/>
  <rect x="696" y="150" width="30" height="6" fill="#3399FF"/>
  <rect x="732" y="150" width="12" height="6" fill="#3399FF"/>
  <rect x="6" y="156" width="12" height="6" fill="#3399FF"/>
  <rect x="36" y="156" width="6" height="6" fill="#3399FF"/>
  <rect x="60" y="156" width="6" height="6" fill="#3399FF"/>
  <rect x="126" y="156" width="6" height="6" fill="#3399FF"/>
  <rect x="168" y="156" width="6" height="6" fill="#3399FF"/>
  <rect x="180" y="156" width="6" height="6" fill="#3399FF"/>
  <rect x="204" y="156" width="6" height="6" fill="#3399FF"/>
  <rect x="216" y="156" width="6" height="6" fill="#3399FF"/>
  <rect x="240" y="156" width="6" height="6" fill="#3399FF"/>
  <rect x="252" y="156" width="6" height="6" fill="#3399FF"/>
  <rect x="276" y="156" width="6" height="6" fill="#3399FF"/>
  <rect x="288" y="156" width="6" height="6" fill="#3399FF"/>
  <rect x="648" y="156" width="6" height="6" fill="#3399FF"/>
  <rect x="666" y="156" width="12" height="6" fill="#3399FF"/>
  <rect x="696" y="156" width="6" height="6" fill="#3399FF"/>
  <rect x="732" y="156" width="12" height="6" fill="#3399FF"/>
  <rect x="756" y="156" width="6" height="6" fill="#3399FF"/>
  <rect x="12" y="162" width="6" height="6" fill="#3399FF"/>
  <rect x="60" y="162" width="6" height="6" fill="#3399FF"/>
  <rect x="120" y="162" width="6" height="6" fill="#3399FF"/>
  <rect x="162" y="162" width="6" height="6" fill="#3399FF"/>
  <rect x="204" y="162" width="6" height="6" fill="#3399FF"/>
  <rect x="216" y="162" width="6" height="6" fill="#3399FF"/>
  <rect x="234" y="162" width="12" height="6" fill="#3399FF"/>
  <rect x="252" y="162" width="6" height="6" fill="#3399FF"/>
  <rect x="276" y="162" width="6" height="6" fill="#3399FF"/>
  <rect x="288" y="162" width="6" height="6" fill="#3399FF"/>
  <rect x="300" y="162" width="12" height="6" fill="#3399FF"/>
  <rect x="630" y="162" width="12" height="6" fill="#3399FF"/>
  <rect x="648" y="162" width="6" height="6" fill="#3399FF"/>
  <rect x="672" y="162" width="6" height="6" fill="#3399FF"/>
  <rect x="696" y="162" width="24" height="6" fill="#3399FF"/>
  <rect x="750" y="162" width="6" height="6" fill="#3399FF"/>
  <rect x="12" y="168" width="6" height="6" fill="#3399FF"/>
  <rect x="54" y="168" width="6" height="6" fill="#3399FF"/>
  <rect x="126" y="168" width="6" height="6" fill="#3399FF"/>
  <rect x="156" y="168" width="6" height="6" fill="#3399FF"/>
  <rect x="198" y="168" width="6" height="6" fill="#3399FF"/>
  <rect x="216" y="168" width="6" height="6" fill="#3399FF"/>
  <rect x="228" y="168" width="6" height="6" fill="#3399FF"/>
  <rect x="240" y="168" width="6" height="6" fill="#3399FF"/>
  <rect x="252" y="168" width="6" height="6" fill="#3399FF"/>
  <rect x="276" y="168" width="6" height="6" fill="#3399FF"/>
  <rect x="288" y="168" width="12" height="6" fill="#3399FF"/>
  <rect x="312" y="168" width="6" height="6" fill="#3399FF"/>
  <rect x="624" y="168" width="6" height="6" fill="#3399FF"/>
  <rect x="642" y="168" width="12" height="6" fill="#3399FF"/>
  <rect x="672" y="168" width="6" height="6" fill="#3399FF"/>
  <rect x="720" y="168" width="6" height="6" fill="#3399FF"/>
  <rect x="744" y="168" width="6" height="6" fill="#3399FF"/>
  <rect x="12" y="174" width="6" height="6" fill="#3399FF"/>
  <rect x="48" y="174" width="6" height="6" fill="#3399FF"/>
  <rect x="132" y="174" width="6" height="6" fill="#3399FF"/>
  <rect x="150" y="174" width="6" height="6" fill="#3399FF"/>
  <rect x="192" y="174" width="6" height="6" fill="#3399FF"/>
  <rect x="216" y="174" width="12" height="6" fill="#3399FF"/>
  <rect x="240" y="174" width="6" height="6" fill="#3399FF"/>
  <rect x="252" y="174" width="30" height="6" fill="#3399FF"/>
  <rect x="288" y="174" width="6" height="6" fill="#3399FF"/>
  <rect x="312" y="174" width="6" height="6" fill="#3399FF"/>
  <rect x="624" y="174" width="6" height="6" fill="#3399FF"/>
  <rect x="648" y="174" width="6" height="6" fill="#3399FF"/>
  <rect x="672" y="174" width="6" height="6" fill="#3399FF"/>
  <rect x="720" y="174" width="6" height="6" fill="#3399FF"/>
  <rect x="738" y="174" width="6" height="6" fill="#3399FF"/>
  <rect x="12" y="180" width="6" height="6" fill="#3399FF"/>
  <rect x="42" y="180" width="6" height="6" fill="#3399FF"/>
  <rect x="78" y="180" width="12" height="6" fill="#3399FF"/>
  <rect x="108" y="180" width="6" height="6" fill="#3399FF"/>
  <rect x="132" y="180" width="6" height="6" fill="#3399FF"/>
  <rect x="144" y="180" width="6" height="6" fill="#3399FF"/>
  <rect x="186" y="180" width="6" height="6" fill="#3399FF"/>
  <rect x="216" y="180" width="6" height="6" fill="#3399FF"/>
  <rect x="240" y="180" width="6" height="6" fill="#3399FF"/>
  <rect x="252" y="180" width="6" height="6" fill="#3399FF"/>
  <rect x="276" y="180" width="6" height="6" fill="#3399FF"/>
  <rect x="288" y="180" width="6" height="6" fill="#3399FF"/>
  <rect x="312" y="180" width="6" height="6" fill="#3399FF"/>
  <rect x="624" y="180" width="6" height="6" fill="#3399FF"/>
  <rect x="648" y="180" width="6" height="6" fill="#3399FF"/>
  <rect x="672" y="180" width="6" height="6" fill="#3399FF"/>
  <rect x="696" y="180" width="6" height="6" fill="#3399FF"/>
  <rect x="720" y="180" width="6" height="6" fill="#3399FF"/>
  <rect x="732" y="180" width="6" height="6" fill="#3399FF"/>
  <rect x="750" y="180" width="12" height="6" fill="#3399FF"/>
  <rect x="6" y="186" width="18" height="6" fill="#3399FF"/>
  <rect x="36" y="186" width="30" height="6" fill="#3399FF"/>
  <rect x="78" y="186" width="12" height="6" fill="#3399FF"/>
  <rect x="114" y="186" width="18" height="6" fill="#3399FF"/>
  <rect x="180" y="186" width="30" height="6" fill="#3399FF"/>
  <rect x="222" y="186" width="18" height="6" fill="#3399FF"/>
  <rect x="252" y="186" width="6" height="6" fill="#3399FF"/>
  <rect x="276" y="186" width="6" height="6" fill="#3399FF"/>
  <rect x="288" y="186" width="6" height="6" fill="#3399FF"/>
  <rect x="312" y="186" width="6" height="6" fill="#3399FF"/>
  <rect x="630" y="186" width="24" height="6" fill="#3399FF"/>
  <rect x="666" y="186" width="18" height="6" fill="#3399FF"/>
  <rect x="702" y="186" width="18" height="6" fill="#3399FF"/>
  <rect x="750" y="186" width="12" height="6" fill="#3399FF"/>
  <rect x="0" y="204" width="6" height="6" fill="#3399FF"/>
  <rect x="24" y="204" width="6" height="6" fill="#3399FF"/>
  <rect x="84" y="204" width="6" height="6" fill="#3399FF"/>
  <rect x="108" y="204" width="30" height="6" fill="#3399FF"/>
  <rect x="192" y="204" width="6" height="6" fill="#3399FF"/>
  <rect x="222" y="204" width="18" height="6" fill="#3399FF"/>
  <rect x="294" y="204" width="6" height="6" fill="#3399FF"/>
  <rect x="336" y="204" width="6" height="6" fill="#3399FF"/>
  <rect x="360" y="204" width="30" height="6" fill="#3399FF"/>
  <rect x="438" y="204" width="18" height="6" fill="#3399FF"/>
  <rect x="474" y="204" width="18" height="6" fill="#3399FF"/>
  <rect x="504" y="204" width="6" height="6" fill="#3399FF"/>
  <rect x="528" y="204" width="6" height="6" fill="#3399FF"/>
  <rect x="0" y="210" width="6" height="6" fill="#3399FF"/>
  <rect x="24" y="210" width="6" height="6" fill="#3399FF"/>
  <rect x="42" y="210" width="12" height="6" fill="#3399FF"/>
  <rect x="78" y="210" width="12" height="6" fill="#3399FF"/>
  <rect x="126" y="210" width="6" height="6" fill="#3399FF"/>
  <rect x="186" y="210" width="12" height="6" fill="#3399FF"/>
  <rect x="216" y="210" width="6" height="6" fill="#3399FF"/>
  <rect x="240" y="210" width="6" height="6" fill="#3399FF"/>
  <rect x="300" y="210" width="6" height="6" fill="#3399FF"/>
  <rect x="330" y="210" width="12" height="6" fill="#3399FF"/>
  <rect x="378" y="210" width="6" height="6" fill="#3399FF"/>
  <rect x="432" y="210" width="6" height="6" fill="#3399FF"/>
  <rect x="456" y="210" width="6" height="6" fill="#3399FF"/>
  <rect x="468" y="210" width="6" height="6" fill="#3399FF"/>
  <rect x="492" y="210" width="6" height="6" fill="#3399FF"/>
  <rect x="504" y="210" width="6" height="6" fill="#3399FF"/>
  <rect x="528" y="210" width="6" height="6" fill="#3399FF"/>
  <rect x="0" y="216" width="6" height="6" fill="#3399FF"/>
  <rect x="24" y="216" width="6" height="6" fill="#3399FF"/>
  <rect x="42" y="216" width="12" height="6" fill="#3399FF"/>
  <rect x="84" y="216" width="6" height="6" fill="#3399FF"/>
  <rect x="120" y="216" width="6" height="6" fill="#3399FF"/>
  <rect x="192" y="216" width="6" height="6" fill="#3399FF"/>
  <rect x="216" y="216" width="6" height="6" fill="#3399FF"/>
  <rect x="234" y="216" width="12" height="6" fill="#3399FF"/>
  <rect x="306" y="216" width="6" height="6" fill="#3399FF"/>
  <rect x="336" y="216" width="6" height="6" fill="#3399FF"/>
  <rect x="372" y="216" width="6" height="6" fill="#3399FF"/>
  <rect x="456" y="216" width="6" height="6" fill="#3399FF"/>
  <rect x="468" y="216" width="6" height="6" fill="#3399FF"/>
  <rect x="492" y="216" width="6" height="6" fill="#3399FF"/>
  <rect x="504" y="216" width="6" height="6" fill="#3399FF"/>
  <rect x="528" y="216" width="6" height="6" fill="#3399FF"/>
  <rect x="0" y="222" width="6" height="6" fill="#3399FF"/>
  <rect x="24" y="222" width="6" height="6" fill="#3399FF"/>
  <rect x="84" y="222" width="6" height="6" fill="#3399FF"/>
  <rect x="126" y="222" width="6" height="6" fill="#3399FF"/>
  <rect x="192" y="222" width="6" height="6" fill="#3399FF"/>
  <rect x="216" y="222" width="6" height="6" fill="#3399FF"/>
  <rect x="228" y="222" width="6" height="6" fill="#3399FF"/>
  <rect x="240" y="222" width="6" height="6" fill="#3399FF"/>
  <rect x="252" y="222" width="30" height="6" fill="#3399FF"/>
  <rect x="312" y="222" width="6" height="6" fill="#3399FF"/>
  <rect x="336" y="222" width="6" height="6" fill="#3399FF"/>
  <rect x="378" y="222" width="6" height="6" fill="#3399FF"/>
  <rect x="450" y="222" width="6" height="6" fill="#3399FF"/>
  <rect x="474" y="222" width="18" height="6" fill="#3399FF"/>
  <rect x="504" y="222" width="6" height="6" fill="#3399FF"/>
  <rect x="528" y="222" width="6" height="6" fill="#3399FF"/>
  <rect x="0" y="228" width="6" height="6" fill="#3399FF"/>
  <rect x="24" y="228" width="6" height="6" fill="#3399FF"/>
  <rect x="42" y="228" width="12" height="6" fill="#3399FF"/>
  <rect x="84" y="228" width="6" height="6" fill="#3399FF"/>
  <rect x="132" y="228" width="6" height="6" fill="#3399FF"/>
  <rect x="192" y="228" width="6" height="6" fill="#3399FF"/>
  <rect x="216" y="228" width="12" height="6" fill="#3399FF"/>
  <rect x="240" y="228" width="6" height="6" fill="#3399FF"/>
  <rect x="306" y="228" width="6" height="6" fill="#3399FF"/>
  <rect x="336" y="228" width="6" height="6" fill="#3399FF"/>
  <rect x="384" y="228" width="6" height="6" fill="#3399FF"/>
  <rect x="444" y="228" width="6" height="6" fill="#3399FF"/>
  <rect x="468" y="228" width="6" height="6" fill="#3399FF"/>
  <rect x="492" y="228" width="6" height="6" fill="#3399FF"/>
  <rect x="504" y="228" width="6" height="6" fill="#3399FF"/>
  <rect x="528" y="228" width="6" height="6" fill="#3399FF"/>
  <rect x="6" y="234" width="6" height="6" fill="#3399FF"/>
  <rect x="18" y="234" width="6" height="6" fill="#3399FF"/>
  <rect x="42" y="234" width="12" height="6" fill="#3399FF"/>
  <rect x="84" y="234" width="6" height="6" fill="#3399FF"/>
  <rect x="108" y="234" width="6" height="6" fill="#3399FF"/>
  <rect x="132" y="234" width="6" height="6" fill="#3399FF"/>
  <rect x="150" y="234" width="12" height="6" fill="#3399FF"/>
  <rect x="192" y="234" width="6" height="6" fill="#3399FF"/>
  <rect x="216" y="234" width="6" height="6" fill="#3399FF"/>
  <rect x="240" y="234" width="6" height="6" fill="#3399FF"/>
  <rect x="300" y="234" width="6" height="6" fill="#3399FF"/>
  <rect x="336" y="234" width="6" height="6" fill="#3399FF"/>
  <rect x="360" y="234" width="6" height="6" fill="#3399FF"/>
  <rect x="384" y="234" width="6" height="6" fill="#3399FF"/>
  <rect x="402" y="234" width="12" height="6" fill="#3399FF"/>
  <rect x="438" y="234" width="6" height="6" fill="#3399FF"/>
  <rect x="468" y="234" width="6" height="6" fill="#3399FF"/>
  <rect x="492" y="234" width="6" height="6" fill="#3399FF"/>
  <rect x="510" y="234" width="6" height="6" fill="#3399FF"/>
  <rect x="522" y="234" width="6" height="6" fill="#3399FF"/>
  <rect x="12" y="240" width="6" height="6" fill="#3399FF"/>
  <rect x="78" y="240" width="18" height="6" fill="#3399FF"/>
  <rect x="114" y="240" width="18" height="6" fill="#3399FF"/>
  <rect x="150" y="240" width="12" height="6" fill="#3399FF"/>
  <rect x="186" y="240" width="18" height="6" fill="#3399FF"/>
  <rect x="222" y="240" width="18" height="6" fill="#3399FF"/>
  <rect x="294" y="240" width="6" height="6" fill="#3399FF"/>
  <rect x="330" y="240" width="18" height="6" fill="#3399FF"/>
  <rect x="366" y="240" width="18" height="6" fill="#3399FF"/>
  <rect x="402" y="240" width="12" height="6" fill="#3399FF"/>
  <rect x="432" y="240" width="30" height="6" fill="#3399FF"/>
  <rect x="474" y="240" width="18" height="6" fill="#3399FF"/>
  <rect x="516" y="240" width="6" height="6" fill="#3399FF"/>
  <rect x="6" y="258" width="24" height="6" fill="#3399FF"/>
  <rect x="42" y="258" width="18" height="6" fill="#3399FF"/>
  <rect x="78" y="258" width="18" height="6" fill="#3399FF"/>
  <rect x="144" y="258" width="30" height="6" fill="#3399FF"/>
  <rect x="186" y="258" width="18" height="6" fill="#3399FF"/>
  <rect x="216" y="258" width="12" height="6" fill="#3399FF"/>
  <rect x="0" y="264" width="6" height="6" fill="#3399FF"/>
  <rect x="36" y="264" width="6" height="6" fill="#3399FF"/>
  <rect x="60" y="264" width="6" height="6" fill="#3399FF"/>
  <rect x="72" y="264" width="6" height="6" fill="#3399FF"/>
  <rect x="96" y="264" width="6" height="6" fill="#3399FF"/>
  <rect x="114" y="264" width="12" height="6" fill="#3399FF"/>
  <rect x="168" y="264" width="6" height="6" fill="#3399FF"/>
  <rect x="180" y="264" width="6" height="6" fill="#3399FF"/>
  <rect x="204" y="264" width="6" height="6" fill="#3399FF"/>
  <rect x="216" y="264" width="12" height="6" fill="#3399FF"/>
  <rect x="240" y="264" width="6" height="6" fill="#3399FF"/>
  <rect x="0" y="270" width="6" height="6" fill="#3399FF"/>
  <rect x="36" y="270" width="6" height="6" fill="#3399FF"/>
  <rect x="60" y="270" width="6" height="6" fill="#3399FF"/>
  <rect x="72" y="270" width="6" height="6" fill="#3399FF"/>
  <rect x="114" y="270" width="12" height="6" fill="#3399FF"/>
  <rect x="162" y="270" width="6" height="6" fill="#3399FF"/>
  <rect x="204" y="270" width="6" height="6" fill="#3399FF"/>
  <rect x="234" y="270" width="6" height="6" fill="#3399FF"/>
  <rect x="6" y="276" width="18" height="6" fill="#3399FF"/>
  <rect x="36" y="276" width="6" height="6" fill="#3399FF"/>
  <rect x="60" y="276" width="6" height="6" fill="#3399FF"/>
  <rect x="72" y="276" width="6" height="6" fill="#3399FF"/>
  <rect x="156" y="276" width="6" height="6" fill="#3399FF"/>
  <rect x="198" y="276" width="6" height="6" fill="#3399FF"/>
  <rect x="228" y="276" width="6" height="6" fill="#3399FF"/>
  <rect x="24" y="282" width="6" height="6" fill="#3399FF"/>
  <rect x="36" y="282" width="6" height="6" fill="#3399FF"/>
  <rect x="60" y="282" width="6" height="6" fill="#3399FF"/>
  <rect x="72" y="282" width="6" height="6" fill="#3399FF"/>
  <rect x="114" y="282" width="12" height="6" fill="#3399FF"/>
  <rect x="150" y="282" width="6" height="6" fill="#3399FF"/>
  <rect x="192" y="282" width="6" height="6" fill="#3399FF"/>
  <rect x="222" y="282" width="6" height="6" fill="#3399FF"/>
  <rect x="24" y="288" width="6" height="6" fill="#3399FF"/>
  <rect x="36" y="288" width="6" height="6" fill="#3399FF"/>
  <rect x="60" y="288" width="6" height="6" fill="#3399FF"/>
  <rect x="72" y="288" width="6" height="6" fill="#3399FF"/>
  <rect x="96" y="288" width="6" height="6" fill="#3399FF"/>
  <rect x="114" y="288" width="12" height="6" fill="#3399FF"/>
  <rect x="150" y="288" width="6" height="6" fill="#3399FF"/>
  <rect x="186" y="288" width="6" height="6" fill="#3399FF"/>
  <rect x="216" y="288" width="6" height="6" fill="#3399FF"/>
  <rect x="234" y="288" width="12" height="6" fill="#3399FF"/>
  <rect x="0" y="294" width="24" height="6" fill="#3399FF"/>
  <rect x="42" y="294" width="18" height="6" fill="#3399FF"/>
  <rect x="78" y="294" width="18" height="6" fill="#3399FF"/>
  <rect x="150" y="294" width="6" height="6" fill="#3399FF"/>
  <rect x="180" y="294" width="30" height="6" fill="#3399FF"/>
  <rect x="234" y="294" width="12" height="6" fill="#3399FF"/>
</svg>