<svg xmlns="http://www.w3.org/2000/svg" width="512" height="256" viewBox="0 0 512 256">
  <rect width="512" height="256" fill="black"/>
  <rect x="0" y="0" width="184" height="4" fill="#FFFF00"/>
  <rect x="224" y="0" width="8" height="4" fill="#FFFF00"/>
  <rect x="272" y="0" width="8" height="4" fill="#FFFF00"/>
  <rect x="320" y="0" width="192" height="4" fill="#FFFF00"/>
  <rect x="0" y="4" width="184" height="4" fill="#FFFF00"/>
  <rect x="224" y="4" width="8" height="4" fill="#FFFF00"/>
  <rect x="272" y="4" width="8" height="4" fill="#FFFF00"/>
  <rect x="320" y="4" width="8" height="4" fill="#FFFF00"/>
  <rect x="508" y="4" width="4" height="4" fill="#FFFF00"/>
  <rect x="0" y="8" width="184" height="4" fill="#FFFF00"/>
  <rect x="224" y="8" width="8" height="4" fill="#FFFF00"/>
  <rect x="272" y="8" width="8" height="4" fill="#FFFF00"/>
  <rect x="320" y="8" width="8" height="4" fill="#FFFF00"/>
  <rect x="508" y="8" width="4" height="4" fill="#FFFF00"/>
  <rect x="0" y="12" width="184" height="4" fill="#FFFF00"/>
  <rect x="224" y="12" width="8" height="4" fill="#FFFF00"/>
  <rect x="272" y="12" width="8" height="4" fill="#FFFF00"/>
  <rect x="320" y="12" width="8" height="4" fill="#FFFF00"/>
  <rect x="508" y="12" width="4" height="4" fill="#FFFF00"/>
  <rect x="0" y="16" width="184" height="4" fill="#FFFF00"/>
  <rect x="224" y="16" width="8" height="4" fill="#FFFF00"/>
  <rect x="272" y="16" width="8" height="4" fill="#FFFF00"/>
  <rect x="320" y="16" width="8" height="4" fill="#FFFF00"/>
  <rect x="508" y="16" width="4" height="4" fill="#FFFF00"/>
  <rect x="0" y="20" width="184" height="4" fill="#FFFF00"/>
  <rect x="224" y="20" width="8" height="4" fill="#FFFF00"/>
  <rect x="272" y="20" width="8" height="4" fill="#FFFF00"/>
  <rect x="320" y="20" width="8" height="4" fill="#FFFF00"/>
  <rect x="508" y="20" width="4" height="4" fill="#FFFF00"/>
  <rect x="0" y="24" width="184" height="4" fill="#FFFF00"/>
  <rect x="224" y="24" width="8" height="4" fill="#FFFF00"/>
  <rect x="272" y="24" width="8" height="4" fill="#FFFF00"/>
  <rect x="320" y="24" width="8" height="4" fill="#FFFF00"/>
  <rect x="508" y="24" width="4" height="4" fill="#FFFF00"/>
  <rect x="0" y="28" width="184" height="4" fill="#FFFF00"/>
  <rect x="224" y="28" width="8" height="4" fill="#FFFF00"/>
  <rect x="272" y="28" width="8" height="4" fill="#FFFF00"/>
  <rect x="320" y="28" width="8" height="4" fill="#FFFF00"/>
  <rect x="508" y="28" width="4" height="4" fill="#FFFF00"/>
  <rect x="0" y="32" width="184" height="4" fill="#FFFF00"/>
  <rect x="224" y="32" width="8" height="4" fill="#FFFF00"/>
  <rect x="272" y="32" width="8" height="4" fill="#FFFF00"/>
  <rect x="320" y="32" width="8" height="4" fill="#FFFF00"/>
  <rect x="508" y="32" width="4" height="4" fill="#FFFF00"/>
  <rect x="0" y="36" width="184" height="4" fill="#FFFF00"/>
  <rect x="224" y="36" width="8" height="4" fill="#FFFF00"/>
  <rect x="272" y="36" width="8" height="4" fill="#FFFF00"/>
  <rect x="320" y="36" width="8" height="4" fill="#FFFF00"/>
  <rect x="508" y="36" width="4" height="4" fill="#FFFF00"/>
  <rect x="0" y="40" width="184" height="4" fill="#FFFF00"/>
  <rect x="224" y="40" width="8" height="4" fill="#FFFF00"/>
  <rect x="272" y="40" width="8" height="4" fill="#FFFF00"/>
  <rect x="320" y="40" width="8" height="4" fill="#FFFF00"/>
  <rect x="508" y="40" width="4" height="4" fill="#FFFF00"/>
  <rect x="0" y="44" width="184" height="4" fill="#FFFF00"/>
  <rect x="224" y="44" width="8" height="4" fill="#FFFF00"/>
  <rect x="272" y="44" width="8" height="4" fill="#FFFF00"/>
  <rect x="320" y="44" width="8" height="4" fill="#FFFF00"/>
  <rect x="508" y="44" width="4" height="4" fill="#FFFF00"/>
  <rect x="0" y="48" width="184" height="4" fill="#FFFF00"/>
  <rect x="224" y="48" width="8" height="4" fill="#FFFF00"/>
  <rect x="272" y="48" width="8" height="4" fill="#FFFF00"/>
  <rect x="320" y="48" width="8" height="4" fill="#FFFF00"/>
  <rect x="508" y="48" width="4" height="4" fill="#FFFF00"/>
  <rect x="0" y="52" width="184" height="4" fill="#FFFF00"/>
  <rect x="224" y="52" width="8" height="4" fill="#FFFF00"/>
  <rect x="272" y="52" width="8" height="4" fill="#FFFF00"/>
  <rect x="320" y="52" width="8" height="4" fill="#FFFF00"/>
  <rect x="508" y="52" width="4" height="4" fill="#FFFF00"/>
  <rect x="0" y="56" width="328" height="4" fill="#FFFF00"/>
  <rect x="508" y="56" width="4" height="4" fill="#FFFF00"/>
  <rect x="0" y="60" width="512" height="4" fill="#FFFF00"/>
  <rect x="40" y="72" width="8" height="4" fill="#3399FF"/>
  <rect x="88" y="72" width="8" height="4" fill="#3399FF"/>
  <rect x="136" y="72" width="8" height="4" fill="#3399FF"/>
  <rect x="184" y="72" width="8" height="4" fill="#3399FF"/>
  <rect x="212" y="72" width="4" height="4" fill="#3399FF"/>
  <rect x="408" y="72" width="8" height="4" fill="#3399FF"/>
  <rect x="456" y="72" width="8" height="4" fill="#3399FF"/>
  <rect x="484" y="72" width="4" height="4" fill="#3399FF"/>
  <rect x="508" y="72" width="4" height="4" fill="#3399FF"/>
  <rect x="40" y="76" width="8" height="4" fill="#3399FF"/>
  <rect x="88" y="76" width="8" height="4" fill="#3399FF"/>
  <rect x="136" y="76" width="8" height="4" fill="#3399FF"/>
  <rect x="184" y="76" width="8" height="4" fill="#3399FF"/>
  <rect x="212" y="76" width="4" height="4" fill="#3399FF"/>
  <rect x="408" y="76" width="8" height="4" fill="#3399FF"/>
  <rect x="456" y="76" width="8" height="4" fill="#3399FF"/>
  <rect x="484" y="76" width="4" height="4" fill="#3399FF"/>
  <rect x="508" y="76" width="4" height="4" fill="#3399FF"/>
  <rect x="40" y="80" width="8" height="4" fill="#3399FF"/>
  <rect x="88" y="80" width="8" height="4" fill="#3399FF"/>
  <rect x="136" y="80" width="8" height="4" fill="#3399FF"/>
  <rect x="184" y="80" width="8" height="4" fill="#3399FF"/>
  <rect x="212" y="80" width="4" height="4" fill="#3399FF"/>
  <rect x="408" y="80" width="8" height="4" fill="#3399FF"/>
  <rect x="456" y="80" width="8" height="4" fill="#3399FF"/>
  <rect x="484" y="80" width="4" height="4" fill="#3399FF"/>
  <rect x="508" y="80" width="4" height="4" fill="#3399FF"/>
  <rect x="40" y="84" width="8" height="4" fill="#3399FF"/>
  <rect x="88" y="84" width="8" height="4" fill="#3399FF"/>
  <rect x="136" y="84" width="8" height="4" fill="#3399FF"/>
  <rect x="184" y="84" width="8" height="4" fill="#3399FF"/>
  <rect x="212" y="84" width="4" height="4" fill="#3399FF"/>
  <rect x="408" y="84" width="8" height="4" fill="#3399FF"/>
  <rect x="456" y="84" width="8" height="4" fill="#3399FF"/>
  <rect x="484" y="84" width="4" height="4" fill="#3399FF"/>
  <rect x="508" y="84" width="4" height="4" fill="#3399FF"/>
  <rect x="40" y="88" width="8" height="4" fill="#3399FF"/>
  <rect x="88" y="88" width="8" height="4" fill="#3399FF"/>
  <rect x="136" y="88" width="8" height="4" fill="#3399FF"/>
  <rect x="184" y="88" width="8" height="4" fill="#3399FF"/>
  <rect x="212" y="88" width="4" height="4" fill="#3399FF"/>
  <rect x="408" y="88" width="8" height="4" fill="#3399FF"/>
  <rect x="456" y="88" width="8" height="4" fill="#3399FF"/>
  <rect x="484" y="88" width="4" height="4" fill="#3399FF"/>
  <rect x="508" y="88" width="4" height="4" fill="#3399FF"/>
  <rect x="40" y="92" width="8" height="4" fill="#3399FF"/>
  <rect x="88" y="92" width="8" height="4" fill="#3399FF"/>
  <rect x="136" y="92" width="8" height="4" fill="#3399FF"/>
  <rect x="184" y="92" width="8" height="4" fill="#3399FF"/>
  <rect x="212" y="92" width="4" height="4" fill="#3399FF"/>
  <rect x="408" y="92" width="8" height="4" fill="#3399FF"/>
  <rect x="456" y="92" width="8" height="4" fill="#3399FF"/>
  <rect x="484" y="92" width="4" height="4" fill="#3399FF"/>
  <rect x="508" y="92" width="4" height="4" fill="#3399FF"/>
  <rect x="40" y="96" width="8" height="4" fill="#3399FF"/>
  <rect x="88" y="96" width="8" height="4" fill="#3399FF"/>
  <rect x="136" y="96" width="8" height="4" fill="#3399FF"/>
  <rect x="184" y="96" width="8" height="4" fill="#3399FF"/>
  <rect x="212" y="96" width="4" height="4" fill="#3399FF"/>
  <rect x="408" y="96" width="8" height="4" fill="#3399FF"/>
  <rect x="456" y="96" width="8" height="4" fill="#3399FF"/>
  <rect x="484" y="96" width="4" height="4" fill="#3399FF"/>
  <rect x="508" y="96" width="4" height="4" fill="#3399FF"/>
  <rect x="40" y="100" width="8" height="4" fill="#3399FF"/>
  <rect x="88" y="100" width="8" height="4" fill="#3399FF"/>
  <rect x="136" y="100" width="8" height="4" fill="#3399FF"/>
  <rect x="184" y="100" width="32" height="4" fill="#3399FF"/>
  <rect x="408" y="100" width="8" height="4" fill="#3399FF"/>
  <rect x="456" y="100" width="56" height="4" fill="#3399FF"/>
  <rect x="40" y="104" width="8" height="4" fill="#3399FF"/>
  <rect x="88" y="104" width="8" height="4" fill="#3399FF"/>
  <rect x="136" y="104" width="8" height="4" fill="#3399FF"/>
  <rect x="184" y="104" width="8" height="4" fill="#3399FF"/>
  <rect x="408" y="104" width="8" height="4" fill="#3399FF"/>
  <rect x="456" y="104" width="8" height="4" fill="#3399FF"/>
  <rect x="40" y="108" width="8" height="4" fill="#3399FF"/>
  <rect x="88" y="108" width="8" height="4" fill="#3399FF"/>
  <rect x="136" y="108" width="8" height="4" fill="#3399FF"/>
  <rect x="184" y="108" width="8" height="4" fill="#3399FF"/>
  <rect x="408" y="108" width="8" height="4" fill="#3399FF"/>
  <rect x="456" y="108" width="8" height="4" fill="#3399FF"/>
  <rect x="40" y="112" width="8" height="4" fill="#3399FF"/>
  <rect x="88" y="112" width="8" height="4" fill="#3399FF"/>
  <rect x="136" y="112" width="8" height="4" fill="#3399FF"/>
  <rect x="184" y="112" width="8" height="4" fill="#3399FF"/>
  <rect x="408" y="112" width="8" height="4" fill="#3399FF"/>
  <rect x="456" y="112" width="8" height="4" fill="#3399FF"/>
  <rect x="40" y="116" width="8" height="4" fill="#3399FF"/>
  <rect x="88" y="116" width="8" height="4" fill="#3399FF"/>
  <rect x="136" y="116" width="8" height="4" fill="#3399FF"/>
  <rect x="184" y="116" width="8" height="4" fill="#3399FF"/>
  <rect x="408" y="116" width="8" height="4" fill="#3399FF"/>
  <rect x="456" y="116" width="8" height="4" fill="#3399FF"/>
  <rect x="40" y="120" width="8" height="4" fill="#3399FF"/>
  <rect x="88" y="120" width="8" height="4" fill="#3399FF"/>
  <rect x="136" y="120" width="8" height="4" fill="#3399FF"/>
  <rect x="184" y="120" width="8" height="4" fill="#3399FF"/>
  <rect x="408" y="120" width="8" height="4" fill="#3399FF"/>
  <rect x="456" y="120" width="8" height="4" fill="#3399FF"/>
  <rect x="40" y="124" width="8" height="4" fill="#3399FF"/>
  <rect x="88" y="124" width="8" height="4" fill="#3399FF"/>
  <rect x="136" y="124" width="8" height="4" fill="#3399FF"/>
  <rect x="184" y="124" width="8" height="4" fill="#3399FF"/>
  <rect x="408" y="124" width="8" height="4" fill="#3399FF"/>
  <rect x="456" y="124" width="8" height="4" fill="#3399FF"/>
  <rect x="0" y="128" width="192" height="4" fill="#3399FF"/>
  <rect x="368" y="128" width="96" height="4" fill="#3399FF"/>
  <rect x="0" y="132" width="192" height="4" fill="#3399FF"/>
  <rect x="368" y="132" width="96" height="4" fill="#3399FF"/>
  <rect x="20" y="152" width="4" height="4" fill="#3399FF"/>
  <rect x="44" y="152" width="4" height="4" fill="#3399FF"/>
  <rect x="68" y="152" width="4" height="4" fill="#3399FF"/>
  <rect x="412" y="152" width="4" height="4" fill="#3399FF"/>
  <rect x="436" y="152" width="4" height="4" fill="#3399FF"/>
  <rect x="460" y="152" width="4" height="4" fill="#3399FF"/>
  <rect x="484" y="152" width="4" height="4" fill="#3399FF"/>
  <rect x="508" y="152" width="4" height="4" fill="#3399FF"/>
  <rect x="20" y="156" width="4" height="4" fill="#3399FF"/>
  <rect x="44" y="156" width="4" height="4" fill="#3399FF"/>
  <rect x="68" y="156" width="4" height="4" fill="#3399FF"/>
  <rect x="412" y="156" width="4" height="4" fill="#3399FF"/>
  <rect x="436" y="156" width="4" height="4" fill="#3399FF"/>
  <rect x="460" y="156" width="4" height="4" fill="#3399FF"/>
  <rect x="484" y="156" width="4" height="4" fill="#3399FF"/>
  <rect x="508" y="156" width="4" height="4" fill="#3399FF"/>
  <rect x="20" y="160" width="4" height="4" fill="#3399FF"/>
  <rect x="44" y="160" width="4" height="4" fill="#3399FF"/>
  <rect x="68" y="160" width="4" height="4" fill="#3399FF"/>
  <rect x="412" y="160" width="4" height="4" fill="#3399FF"/>
  <rect x="436" y="160" width="4" height="4" fill="#3399FF"/>
  <rect x="460" y="160" width="4" height="4" fill="#3399FF"/>
  <rect x="484" y="160" width="4" height="4" fill="#3399FF"/>
  <rect x="508" y="160" width="4" height="4" fill="#3399FF"/>
  <rect x="20" y="164" width="4" height="4" fill="#3399FF"/>
  <rect x="44" y="164" width="4" height="4" fill="#3399FF"/>
  <rect x="68" y="164" width="4" height="4" fill="#3399FF"/>
  <rect x="412" y="164" width="4" height="4" fill="#3399FF"/>
  <rect x="436" y="164" width="4" height="4" fill="#3399FF"/>
  <rect x="460" y="164" width="4" height="4" fill="#3399FF"/>
  <rect x="484" y="164" width="4" height="4" fill="#3399FF"/>
  <rect x="508" y="164" width="4" height="4" fill="#3399FF"/>
  <rect x="20" y="168" width="4" height="4" fill="#3399FF"/>
  <rect x="44" y="168" width="4" height="4" fill="#3399FF"/>
  <rect x="68" y="168" width="4" height="4" fill="#3399FF"/>
  <rect x="412" y="168" width="4" height="4" fill="#3399FF"/>
  <rect x="436" y="168" width="4" height="4" fill="#3399FF"/>
  <rect x="460" y="168" width="4" height="4" fill="#3399FF"/>
  <rect x="484" y="168" width="4" height="4" fill="#3399FF"/>
  <rect x="508" y="168" width="4" height="4" fill="#3399FF"/>
  <rect x="20" y="172" width="4" height="4" fill="#3399FF"/>
  <rect x="44" y="172" width="4" height="4" fill="#3399FF"/>
  <rect x="68" y="172" width="4" height="4" fill="#3399FF"/>
  <rect x="412" y="172" width="4" height="4" fill="#3399FF"/>
  <rect x="436" y="172" width="4" height="4" fill="#3399FF"/>
  <rect x="460" y="172" width="4" height="4" fill="#3399FF"/>
  <rect x="484" y="172" width="4" height="4" fill="#3399FF"/>
  <rect x="508" y="172" width="4" height="4" fill="#3399FF"/>
  <rect x="20" y="176" width="4" height="4" fill="#3399FF"/>
  <rect x="44" y="176" width="4" height="4" fill="#3399FF"/>
  <rect x="68" y="176" width="4" height="4" fill="#3399FF"/>
  <rect x="412" y="176" width="4" height="4" fill="#3399FF"/>
  <rect x="436" y="176" width="4" height="4" fill="#3399FF"/>
  <rect x="460" y="176" width="4" height="4" fill="#3399FF"/>
  <rect x="484" y="176" width="4" height="4" fill="#3399FF"/>
  <rect x="508" y="176" width="4" height="4" fill="#3399FF"/>
  <rect x="0" y="180" width="72" height="4" fill="#3399FF"/>
  <rect x="392" y="180" width="120" height="4" fill="#3399FF"/>
  <rect x="24" y="212" width="4" height="4" fill="#3399FF"/>
  <rect x="60" y="212" width="4" height="4" fill="#3399FF"/>
  <rect x="84" y="212" width="4" height="4" fill="#3399FF"/>
  <rect x="108" y="212" width="4" height="4" fill="#3399FF"/>
  <rect x="132" y="212" width="4" height="4" fill="#3399FF"/>
  <rect x="156" y="212" width="4" height="4" fill="#3399FF"/>
  <rect x="424" y="212" width="64" height="4" fill="#3399FF"/>
  <rect x="16" y="216" width="12" height="4" fill="#3399FF"/>
  <rect x="60" y="216" width="4" height="4" fill="#3399FF"/>
  <rect x="84" y="216" width="4" height="4" fill="#3399FF"/>
  <rect x="108" y="216" width="4" height="4" fill="#3399FF"/>
  <rect x="132" y="216" width="4" height="4" fill="#3399FF"/>
  <rect x="156" y="216" width="4" height="4" fill="#3399FF"/>
  <rect x="424" y="216" width="4" height="4" fill="#3399FF"/>
  <rect x="484" y="216" width="4" height="4" fill="#3399FF"/>
  <rect x="8" y="220" width="20" height="4" fill="#3399FF"/>
  <rect x="60" y="220" width="4" height="4" fill="#3399FF"/>
  <rect x="84" y="220" width="4" height="4" fill="#3399FF"/>
  <rect x="108" y="220" width="4" height="4" fill="#3399FF"/>
  <rect x="132" y="220" width="4" height="4" fill="#3399FF"/>
  <rect x="156" y="220" width="4" height="4" fill="#3399FF"/>
  <rect x="424" y="220" width="4" height="4" fill="#3399FF"/>
  <rect x="432" y="220" width="24" height="4" fill="#3399FF"/>
  <rect x="484" y="220" width="12" height="4" fill="#3399FF"/>
  <rect x="0" y="224" width="28" height="4" fill="#3399FF"/>
  <rect x="60" y="224" width="4" height="4" fill="#3399FF"/>
  <rect x="84" y="224" width="4" height="4" fill="#3399FF"/>
  <rect x="108" y="224" width="4" height="4" fill="#3399FF"/>
  <rect x="132" y="224" width="4" height="4" fill="#3399FF"/>
  <rect x="156" y="224" width="4" height="4" fill="#3399FF"/>
  <rect x="424" y="224" width="4" height="4" fill="#3399FF"/>
  <rect x="432" y="224" width="24" height="4" fill="#3399FF"/>
  <rect x="484" y="224" width="12" height="4" fill="#3399FF"/>
  <rect x="8" y="228" width="20" height="4" fill="#3399FF"/>
  <rect x="60" y="228" width="4" height="4" fill="#3399FF"/>
  <rect x="84" y="228" width="4" height="4" fill="#3399FF"/>
  <rect x="108" y="228" width="4" height="4" fill="#3399FF"/>
  <rect x="132" y="228" width="4" height="4" fill="#3399FF"/>
  <rect x="156" y="228" width="4" height="4" fill="#3399FF"/>
  <rect x="424" y="228" width="4" height="4" fill="#3399FF"/>
  <rect x="432" y="228" width="24" height="4" fill="#3399FF"/>
  <rect x="484" y="228" width="12" height="4" fill="#3399FF"/>
  <rect x="16" y="232" width="12" height="4" fill="#3399FF"/>
  <rect x="60" y="232" width="4" height="4" fill="#3399FF"/>
  <rect x="84" y="232" width="4" height="4" fill="#3399FF"/>
  <rect x="108" y="232" width="4" height="4" fill="#3399FF"/>
  <rect x="132" y="232" width="4" height="4" fill="#3399FF"/>
  <rect x="156" y="232" width="4" height="4" fill="#3399FF"/>
  <rect x="424" y="232" width="4" height="4" fill="#3399FF"/>
  <rect x="432" y="232" width="24" height="4" fill="#3399FF"/>
  <rect x="484" y="232" width="12" height="4" fill="#3399FF"/>
  <rect x="24" y="236" width="4" height="4" fill="#3399FF"/>
  <rect x="60" y="236" width="4" height="4" fill="#3399FF"/>
  <rect x="84" y="236" width="4" height="4" fill="#3399FF"/>
  <rect x="108" y="236" width="4" height="4" fill="#3399FF"/>
  <rect x="132" y="236" width="4" height="4" fill="#3399FF"/>
  <rect x="156" y="236" width="4" height="4" fill="#3399FF"/>
  <rect x="424" y="236" width="4" height="4" fill="#3399FF"/>
  <rect x="432" y="236" width="24" height="4" fill="#3399FF"/>
  <rect x="484" y="236" width="12" height="4" fill="#3399FF"/>
  <rect x="40" y="240" width="120" height="4" fill="#3399FF"/>
  <rect x="424" y="240" width="4" height="4" fill="#3399FF"/>
  <rect x="432" y="240" width="24" height="4" fill="#3399FF"/>
  <rect x="484" y="240" width="12" height="4" fill="#3399FF"/>
  <rect x="424" y="244" width="4" height="4" fill="#3399FF"/>
  <rect x="484" y="244" width="4" height="4" fill="#3399FF"/>
  <rect x="424" y="248" width="64" height="4" fill="#3399FF"/>
</svg>