<svg xmlns="http://www.w3.org/2000/svg" width="768" height="384" viewBox="0 0 768 384">
  <rect width="768" height="384" fill="black"/>
  <rect x="0" y="0" width="276" height="6" fill="#FFFF00"/>
  <rect x="336" y="0" width="12" height="6" fill="#FFFF00"/>
  <rect x="408" y="0" width="12" height="6" fill="#FFFF00"/>
  <rect x="480" y="0" width="288" height="6" fill="#FFFF00"/>
  <rect x="0" y="6" width="276" height="6" fill="#FFFF00"/>
  <rect x="336" y="6" width="12" height="6" fill="#FFFF00"/>
  <rect x="408" y="6" width="12" height="6" fill="#FFFF00"/>
  <rect x="480" y="6" width="66" height="6" fill="#FFFF00"/>
  <rect x="762" y="6" width="6" height="6" fill="#FFFF00"/>
  <rect x="0" y="12" width="276" height="6" fill="#FFFF00"/>
  <rect x="336" y="12" width="12" height="6" fill="#FFFF00"/>
  <rect x="408" y="12" width="12" height="6" fill="#FFFF00"/>
  <rect x="480" y="12" width="66" height="6" fill="#FFFF00"/>
  <rect x="762" y="12" width="6" height="6" fill="#FFFF00"/>
  <rect x="0" y="18" width="276" height="6" fill="#FFFF00"/>
  <rect x="336" y="18" width="12" height="6" fill="#FFFF00"/>
  <rect x="408" y="18" width="12" height="6" fill="#FFFF00"/>
  <rect x="480" y="18" width="66" height="6" fill="#FFFF00"/>
  <rect x="762" y="18" width="6" height="6" fill="#FFFF00"/>
  <rect x="0" y="24" width="276" height="6" fill="#FFFF00"/>
  <rect x="336" y="24" width="12" height="6" fill="#FFFF00"/>
  <rect x="408" y="24" width="12" height="6" fill="#FFFF00"/>
  <rect x="480" y="24" width="66" height="6" fill="#FFFF00"/>
  <rect x="762" y="24" width="6" height="6" fill="#FFFF00"/>
  <rect x="0" y="30" width="276" height="6" fill="#FFFF00"/>
  <rect x="336" y="30" width="12" height="6" fill="#FFFF00"/>
  <rect x="408" y="30" width="12" height="6" fill="#FFFF00"/>
  <rect x="480" y="30" width="66" height="6" fill="#FFFF00"/>
  <rect x="762" y="30" width="6" height="6" fill="#FFFF00"/>
  <rect x="0" y="36" width="276" height="6" fill="#FFFF00"/>
  <rect x="336" y="36" width="12" height="6" fill="#FFFF00"/>
  <rect x="408" y="36" width="12" height="6" fill="#FFFF00"/>
  <rect x="480" y="36" width="66" height="6" fill="#FFFF00"/>
  <rect x="762" y="36" width="6" height="6" fill="#FFFF00"/>
  <rect x="0" y="42" width="276" height="6" fill="#FFFF00"/>
  <rect x="336" y="42" width="12" height="6" fill="#FFFF00"/>
  <rect x="408" y="42" width="12" height="6" fill="#FFFF00"/>
  <rect x="480" y="42" width="66" height="6" fill="#FFFF00"/>
  <rect x="762" y="42" width="6" height="6" fill="#FFFF00"/>
  <rect x="0" y="48" width="276" height="6" fill="#FFFF00"/>
  <rect x="336" y="48" width="12" height="6" fill="#FFFF00"/>
  <rect x="408" y="48" width="12" height="6" fill="#FFFF00"/>
  <rect x="480" y="48" width="66" height="6" fill="#FFFF00"/>
  <rect x="762" y="48" width="6" height="6" fill="#FFFF00"/>
  <rect x="0" y="54" width="276" height="6" fill="#FFFF00"/>
  <rect x="336" y="54" width="12" height="6" fill="#FFFF00"/>
  <rect x="408" y="54" width="12" height="6" fill="#FFFF00"/>
  <rect x="480" y="54" width="66" height="6" fill="#FFFF00"/>
  <rect x="762" y="54" width="6" height="6" fill="#FFFF00"/>
  <rect x="0" y="60" width="276" height="6" fill="#FFFF00"/>
  <rect x="336" y="60" width="12" height="6" fill="#FFFF00"/>
  <rect x="408" y="60" width="12" height="6" fill="#FFFF00"/>
  <rect x="480" y="60" width="66" height="6" fill="#FFFF00"/>
  <rect x="762" y="60" width="6" height="6" fill="#FFFF00"/>
  <rect x="0" y="66" width="276" height="6" fill="#FFFF00"/>
  <rect x="336" y="66" width="12" height="6" fill="#FFFF00"/>
  <rect x="408" y="66" width="12" height="6" fill="#FFFF00"/>
  <rect x="480" y="66" width="66" height="6" fill="#FFFF00"/>
  <rect x="762" y="66" width="6" height="6" fill="#FFFF00"/>
  <rect x="0" y="72" width="276" height="6" fill="#FFFF00"/>
  <rect x="336" y="72" width="12" height="6" fill="#FFFF00"/>
  <rect x="408" y="72" width="12" height="6" fill="#FFFF00"/>
  <rect x="480" y="72" width="66" height="6" fill="#FFFF00"/>
  <rect x="762" y="72" width="6" height="6" fill="#FFFF00"/>
  <rect x="0" y="78" width="276" height="6" fill="#FFFF00"/>
  <rect x="336" y="78" width="12" height="6" fill="#FFFF00"/>
  <rect x="408" y="78" width="12" height="6" fill="#FFFF00"/>
  <rect x="480" y="78" width="66" height="6" fill="#FFFF00"/>
  <rect x="762" y="78" width="6" height="6" fill="#FFFF00"/>
  <rect x="0" y="84" width="546" height="6" fill="#FFFF00"/>
  <rect x="762" y="84" width="6" height="6" fill="#FFFF00"/>
  <rect x="0" y="90" width="768" height="6" fill="#FFFF00"/>
  <rect x="60" y="108" width="12" height="6" fill="#3399FF"/>
  <rect x="132" y="108" width="12" height="6" fill="#3399FF"/>
  <rect x="204" y="108" width="12" height="6" fill="#3399FF"/>
  <rect x="276" y="108" width="12" height="6" fill="#3399FF"/>
  <rect x="318" y="108" width="6" height="6" fill="#3399FF"/>
  <rect x="612" y="108" width="12" height="6" fill="#3399FF"/>
  <rect x="684" y="108" width="12" height="6" fill="#3399FF"/>
  <rect x="726" y="108" width="6" height="6" fill="#3399FF"/>
  <rect x="762" y="108" width="6" height="6" fill="#3399FF"/>
  <rect x="60" y="114" width="12" height="6" fill="#3399FF"/>
  <rect x="132" y="114" width="12" height="6" fill="#3399FF"/>
  <rect x="204" y="114" width="12" height="6" fill="#3399FF"/>
  <rect x="276" y="114" width="12" height="6" fill="#3399FF"/>
  <rect x="318" y="114" width="6" height="6" fill="#3399FF"/>
  <rect x="612" y="114" width="12" height="6" fill="#3399FF"/>
  <rect x="684" y="114" width="12" height="6" fill="#3399FF"/>
  <rect x="726" y="114" width="6" height="6" fill="#3399FF"/>
  <rect x="762" y="114" width="6" height="6" fill="#3399FF"/>
  <rect x="60" y="120" width="12" height="6" fill="#3399FF"/>
  <rect x="132" y="120" width="12" height="6" fill="#3399FF"/>
  <rect x="204" y="120" width="12" height="6" fill="#3399FF"/>
  <rect x="276" y="120" width="12" height="6" fill="#3399FF"/>
  <rect x="318" y="120" width="6" height="6" fill="#3399FF"/>
  <rect x="612" y="120" width="12" height="6" fill="#3399FF"/>
  <rect x="684" y="120" width="12" height="6" fill="#3399FF"/>
  <rect x="726" y="120" width="6" height="6" fill="#3399FF"/>
  <rect x="762" y="120" width="6" height="6" fill="#3399FF"/>
  <rect x="60" y="126" width="12" height="6" fill="#3399FF"/>
  <rect x="132" y="126" width="12" height="6" fill="#3399FF"/>
  <rect x="204" y="126" width="12" height="6" fill="#3399FF"/>
  <rect x="276" y="126" width="12" height="6" fill="#3399FF"/>
  <rect x="318" y="126" width="6" height="6" fill="#3399FF"/>
  <rect x="612" y="126" width="12" height="6" fill="#3399FF"/>
  <rect x="684" y="126" width="12" height="6" fill="#3399FF"/>
  <rect x="726" y="126" width="6" height="6" fill="#3399FF"/>
  <rect x="762" y="126" width="6" height="6" fill="#3399FF"/>
  <rect x="60" y="132" width="12" height="6" fill="#3399FF"/>
  <rect x="132" y="132" width="12" height="6" fill="#3399FF"/>
  <rect x="204" y="132" width="12" height="6" fill="#3399FF"/>
  <rect x="276" y="132" width="12" height="6" fill="#3399FF"/>
  <rect x="318" y="132" width="6" height="6" fill="#3399FF"/>
  <rect x="612" y="132" width="12" height="6" fill="#3399FF"/>
  <rect x="684" y="132" width="12" height="6" fill="#3399FF"/>
  <rect x="726" y="132" width="6" height="6" fill="#3399FF"/>
  <rect x="762" y="132" width="6" height="6" fill="#3399FF"/>
  <rect x="60" y="138" width="12" height="6" fill="#3399FF"/>
  <rect x="132" y="138" width="12" height="6" fill="#3399FF"/>
  <rect x="204" y="138" width="12" height="6" fill="#3399FF"/>
  <rect x="276" y="138" width="12" height="6" fill="#3399FF"/>
  <rect x="318" y="138" width="6" height="6" fill="#3399FF"/>
  <rect x="612" y="138" width="12" height="6" fill="#3399FF"/>
  <rect x="684" y="138" width="12" height="6" fill="#3399FF"/>
  <rect x="726" y="138" width="6" height="6" fill="#3399FF"/>
  <rect x="762" y="138" width="6" height="6" fill="#3399FF"/>
  <rect x="60" y="144" width="12" height="6" fill="#3399FF"/>
  <rect x="132" y="144" width="12" height="6" fill="#3399FF"/>
  <rect x="204" y="144" width="12" height="6" fill="#3399FF"/>
  <rect x="276" y="144" width="12" height="6" fill="#3399FF"/>
  <rect x="318" y="144" width="6" height="6" fill="#3399FF"/>
  <rect x="612" y="144" width="12" height="6" fill="#3399FF"/>
  <rect x="684" y="144" width="12" height="6" fill="#3399FF"/>
  <rect x="726" y="144" width="6" height="6" fill="#3399FF"/>
  <rect x="762" y="144" width="6" height="6" fill="#3399FF"/>
  <rect x="60" y="150" width="12" height="6" fill="#3399FF"/>
  <rect x="132" y="150" width="12" height="6" fill="#3399FF"/>
  <rect x="204" y="150" width="12" height="6" fill="#3399FF"/>
  <rect x="276" y="150" width="48" height="6" fill="#3399FF"/>
  <rect x="612" y="150" width="12" height="6" fill="#3399FF"/>
  <rect x="684" y="150" width="84" height="6" fill="#3399FF"/>
  <rect x="60" y="156" width="12" height="6" fill="#3399FF"/>
  <rect x="132" y="156" width="12" height="6" fill="#3399FF"/>
  <rect x="204" y="156" width="12" height="6" fill="#3399FF"/>
  <rect x="276" y="156" width="12" height="6" fill="#3399FF"/>
  <rect x="612" y="156" width="12" height="6" fill="#3399FF"/>
  <rect x="684" y="156" width="12" height="6" fill="#3399FF"/>
  <rect x="60" y="162" width="12" height="6" fill="#3399FF"/>
  <rect x="132" y="162" width="12" height="6" fill="#3399FF"/>
  <rect x="204" y="162" width="12" height="6" fill="#3399FF"/>
  <rect x="276" y="162" width="12" height="6" fill="#3399FF"/>
  <rect x="612" y="162" width="12" height="6" fill="#3399FF"/>
  <rect x="684" y="162" width="12" height="6" fill="#3399FF"/>
  <rect x="60" y="168" width="12" height="6" fill="#3399FF"/>
  <rect x="132" y="168" width="12" height="6" fill="#3399FF"/>
  <rect x="204" y="168" width="12" height="6" fill="#3399FF"/>
  <rect x="276" y="168" width="12" height="6" fill="#3399FF"/>
  <rect x="612" y="168" width="12" height="6" fill="#3399FF"/>
  <rect x="684" y="168" width="12" height="6" fill="#3399FF"/>
  <rect x="60" y="174" width="12" height="6" fill="#3399FF"/>
  <rect x="132" y="174" width="12" height="6" fill="#3399FF"/>
  <rect x="204" y="174" width="12" height="6" fill="#3399FF"/>
  <rect x="276" y="174" width="12" height="6" fill="#3399FF"/>
  <rect x="612" y="174" width="12" height="6" fill="#3399FF"/>
  <rect x="684" y="174" width="12" height="6" fill="#3399FF"/>
  <rect x="60" y="180" width="12" height="6" fill="#3399FF"/>
  <rect x="132" y="180" width="12" height="6" fill="#3399FF"/>
  <rect x="204" y="180" width="12" height="6" fill="#3399FF"/>
  <rect x="276" y="180" width="12" height="6" fill="#3399FF"/>
  <rect x="612" y="180" width="12" height="6" fill="#3399FF"/>
  <rect x="684" y="180" width="12" height="6" fill="#3399FF"/>
  <rect x="60" y="186" width="12" height="6" fill="#3399FF"/>
  <rect x="132" y="186" width="12" height="6" fill="#3399FF"/>
  <rect x="204" y="186" width="12" height="6" fill="#3399FF"/>
  <rect x="276" y="186" width="12" height="6" fill="#3399FF"/>
  <rect x="612" y="186" width="12" height="6" fill="#3399FF"/>
  <rect x="684" y="186" width="12" height="6" fill="#3399FF"/>
  <rect x="0" y="192" width="288" height="6" fill="#3399FF"/>
  <rect x="552" y="192" width="144" height="6" fill="#3399FF"/>
  <rect x="0" y="198" width="288" height="6" fill="#3399FF"/>
  <rect x="552" y="198" width="144" height="6" fill="#3399FF"/>
  <rect x="30" y="228" width="6" height="6" fill="#3399FF"/>
  <rect x="66" y="228" width="6" height="6" fill="#3399FF"/>
  <rect x="102" y="228" width="6" height="6" fill="#3399FF"/>
  <rect x="654" y="228" width="6" height="6" fill="#3399FF"/>
  <rect x="690" y="228" width="6" height="6" fill="#3399FF"/>
  <rect x="726" y="228" width="6" height="6" fill="#3399FF"/>
  <rect x="762" y="228" width="6" height="6" fill="#3399FF"/>
  <rect x="30" y="234" width="6" height="6" fill="#3399FF"/>
  <rect x="66" y="234" width="6" height="6" fill="#3399FF"/>
  <rect x="102" y="234" width="6" height="6" fill="#3399FF"/>
  <rect x="654" y="234" width="6" height="6" fill="#3399FF"/>
  <rect x="690" y="234" width="6" height="6" fill="#3399FF"/>
  <rect x="726" y="234" width="6" height="6" fill="#3399FF"/>
  <rect x="762" y="234" width="6" height="6" fill="#3399FF"/>
  <rect x="30" y="240" width="6" height="6" fill="#3399FF"/>
  <rect x="66" y="240" width="6" height="6" fill="#3399FF"/>
  <rect x="102" y="240" width="6" height="6" fill="#3399FF"/>
  <rect x="654" y="240" width="6" height="6" fill="#3399FF"/>
  <rect x="690" y="240" width="6" height="6" fill="#3399FF"/>
  <rect x="726" y="240" width="6" height="6" fill="#3399FF"/>
  <rect x="762" y="240" width="6" height="6" fill="#3399FF"/>
  <rect x="30" y="246" width="6" height="6" fill="#3399FF"/>
  <rect x="66" y="246" width="6" height="6" fill="#3399FF"/>
  <rect x="102" y="246" width="6" height="6" fill="#3399FF"/>
  <rect x="654" y="246" width="6" height="6" fill="#3399FF"/>
  <rect x="690" y="246" width="6" height="6" fill="#3399FF"/>
  <rect x="726" y="246" width="6" height="6" fill="#3399FF"/>
  <rect x="762" y="246" width="6" height="6" fill="#3399FF"/>
  <rect x="30" y="252" width="6" height="6" fill="#3399FF"/>
  <rect x="66" y="252" width="6" height="6" fill="#3399FF"/>
  <rect x="102" y="252" width="6" height="6" fill="#3399FF"/>
  <rect x="654" y="252" width="6" height="6" fill="#3399FF"/>
  <rect x="690" y="252" width="6" height="6" fill="#3399FF"/>
  <rect x="726" y="252" width="6" height="6" fill="#3399FF"/>
  <rect x="762" y="252" width="6" height="6" fill="#3399FF"/>
  <rect x="30" y="258" width="6" height="6" fill="#3399FF"/>
  <rect x="66" y="258" width="6" height="6" fill="#3399FF"/>
  <rect x="102" y="258" width="6" height="6" fill="#3399FF"/>
  <rect x="654" y="258" width="6" height="6" fill="#3399FF"/>
  <rect x="690" y="258" width="6" height="6" fill="#3399FF"/>
  <rect x="726" y="258" width="6" height="6" fill="#3399FF"/>
  <rect x="762" y="258" width="6" height="6" fill="#3399FF"/>
  <rect x="30" y="264" width="6" height="6" fill="#3399FF"/>
  <rect x="66" y="264" width="6" height="6" fill="#3399FF"/>
  <rect x="102" y="264" width="6" height="6" fill="#3399FF"/>
  <rect x="654" y="264" width="6" height="6" fill="#3399FF"/>
  <rect x="690" y="264" width="6" height="6" fill="#3399FF"/>
  <rect x="726" y="264" width="6" height="6" fill="#3399FF"/>
  <rect x="762" y="264" width="6" height="6" fill="#3399FF"/>
  <rect x="0" y="270" width="108" height="6" fill="#3399FF"/>
  <rect x="624" y="270" width="144" height="6" fill="#3399FF"/>
  <rect x="0" y="318" width="6" height="6" fill="#3399FF"/>
  <rect x="90" y="318" width="6" height="6" fill="#3399FF"/>
  <rect x="126" y="318" width="6" height="6" fill="#3399FF"/>
  <rect x="162" y="318" width="6" height="6" fill="#3399FF"/>
  <rect x="198" y="318" width="6" height="6" fill="#3399FF"/>
  <rect x="234" y="318" width="6" height="6" fill="#3399FF"/>
  <rect x="618" y="318" width="6" height="6" fill="#3399FF"/>
  <rect x="654" y="318" width="6" height="6" fill="#3399FF"/>
  <rect x="690" y="318" width="6" height="6" fill="#3399FF"/>
  <rect x="726" y="318" width="6" height="6" fill="#3399FF"/>
  <rect x="762" y="318" width="6" height="6" fill="#3399FF"/>
  <rect x="0" y="324" width="18" height="6" fill="#3399FF"/>
  <rect x="90" y="324" width="6" height="6" fill="#3399FF"/>
  <rect x="126" y="324" width="6" height="6" fill="#3399FF"/>
  <rect x="162" y="324" width="6" height="6" fill="#3399FF"/>
  <rect x="198" y="324" width="6" height="6" fill="#3399FF"/>
  <rect x="234" y="324" width="6" height="6" fill="#3399FF"/>
  <rect x="618" y="324" width="6" height="6" fill="#3399FF"/>
  <rect x="654" y="324" width="6" height="6" fill="#3399FF"/>
  <rect x="690" y="324" width="6" height="6" fill="#3399FF"/>
  <rect x="726" y="324" width="6" height="6" fill="#3399FF"/>
  <rect x="762" y="324" width="6" height="6" fill="#3399FF"/>
  <rect x="0" y="330" width="30" height="6" fill="#3399FF"/>
  <rect x="90" y="330" width="6" height="6" fill="#3399FF"/>
  <rect x="126" y="330" width="6" height="6" fill="#3399FF"/>
  <rect x="162" y="330" width="6" height="6" fill="#3399FF"/>
  <rect x="198" y="330" width="6" height="6" fill="#3399FF"/>
  <rect x="234" y="330" width="6" height="6" fill="#3399FF"/>
  <rect x="618" y="330" width="6" height="6" fill="#3399FF"/>
  <rect x="654" y="330" width="6" height="6" fill="#3399FF"/>
  <rect x="690" y="330" width="6" height="6" fill="#3399FF"/>
  <rect x="726" y="330" width="6" height="6" fill="#3399FF"/>
  <rect x="762" y="330" width="6" height="6" fill="#3399FF"/>
  <rect x="0" y="336" width="42" height="6" fill="#3399FF"/>
  <rect x="90" y="336" width="6" height="6" fill="#3399FF"/>
  <rect x="126" y="336" width="6" height="6" fill="#3399FF"/>
  <rect x="162" y="336" width="6" height="6" fill="#3399FF"/>
  <rect x="198" y="336" width="6" height="6" fill="#3399FF"/>
  <rect x="234" y="336" width="6" height="6" fill="#3399FF"/>
  <rect x="618" y="336" width="6" height="6" fill="#3399FF"/>
  <rect x="654" y="336" width="6" height="6" fill="#3399FF"/>
  <rect x="690" y="336" width="6" height="6" fill="#3399FF"/>
  <rect x="726" y="336" width="6" height="6" fill="#3399FF"/>
  <rect x="762" y="336" width="6" height="6" fill="#3399FF"/>
  <rect x="0" y="342" width="30" height="6" fill="#3399FF"/>
  <rect x="90" y="342" width="6" height="6" fill="#3399FF"/>
  <rect x="126" y="342" width="6" height="6" fill="#3399FF"/>
  <rect x="162" y="342" width="6" height="6" fill="#3399FF"/>
  <rect x="198" y="342" width="6" height="6" fill="#3399FF"/>
  <rect x="234" y="342" width="6" height="6" fill="#3399FF"/>
  <rect x="618" y="342" width="6" height="6" fill="#3399FF"/>
  <rect x="654" y="342" width="6" height="6" fill="#3399FF"/>
  <rect x="690" y="342" width="6" height="6" fill="#3399FF"/>
  <rect x="726" y="342" width="6" height="6" fill="#3399FF"/>
  <rect x="762" y="342" width="6" height="6" fill="#3399FF"/>
  <rect x="0" y="348" width="18" height="6" fill="#3399FF"/>
  <rect x="90" y="348" width="6" height="6" fill="#3399FF"/>
  <rect x="126" y="348" width="6" height="6" fill="#3399FF"/>
  <rect x="162" y="348" width="6" height="6" fill="#3399FF"/>
  <rect x="198" y="348" width="6" height="6" fill="#3399FF"/>
  <rect x="234" y="348" width="6" height="6" fill="#3399FF"/>
  <rect x="618" y="348" width="6" height="6" fill="#3399FF"/>
  <rect x="654" y="348" width="6" height="6" fill="#3399FF"/>
  <rect x="690" y="348" width="6" height="6" fill="#3399FF"/>
  <rect x="726" y="348" width="6" height="6" fill="#3399FF"/>
  <rect x="762" y="348" width="6" height="6" fill="#3399FF"/>
  <rect x="0" y="354" width="6" height="6" fill="#3399FF"/>
  <rect x="90" y="354" width="6" height="6" fill="#3399FF"/>
  <rect x="126" y="354" width="6" height="6" fill="#3399FF"/>
  <rect x="162" y="354" width="6" height="6" fill="#3399FF"/>
  <rect x="198" y="354" width="6" height="6" fill="#3399FF"/>
  <rect x="234" y="354" width="6" height="6" fill="#3399FF"/>
  <rect x="618" y="354" width="6" height="6" fill="#3399FF"/>
  <rect x="654" y="354" width="6" height="6" fill="#3399FF"/>
  <rect x="690" y="354" width="6" height="6" fill="#3399FF"/>
  <rect x="726" y="354" width="6" height="6" fill="#3399FF"/>
  <rect x="762" y="354" width="6" height="6" fill="#3399FF"/>
  <rect x="60" y="360" width="180" height="6" fill="#3399FF"/>
  <rect x="588" y="360" width="180" height="6" fill="#3399FF"/>
</svg>