<svg xmlns="http://www.w3.org/2000/svg" width="768" height="384" viewBox="0 0 768 384">
  <rect width="768" height="384" fill="black"/>
  <rect x="0" y="0" width="312" height="6" fill="#FFFF00"/>
  <rect x="372" y="0" width="12" height="6" fill="#FFFF00"/>
  <rect x="444" y="0" width="324" height="6" fill="#FFFF00"/>
  <rect x="0" y="6" width="6" height="6" fill="#FFFF00"/>
  <rect x="372" y="6" width="12" height="6" fill="#FFFF00"/>
  <rect x="444" y="6" width="12" height="6" fill="#FFFF00"/>
  <rect x="762" y="6" width="6" height="6" fill="#FFFF00"/>
  <rect x="0" y="12" width="6" height="6" fill="#FFFF00"/>
  <rect x="372" y="12" width="12" height="6" fill="#FFFF00"/>
  <rect x="444" y="12" width="12" height="6" fill="#FFFF00"/>
  <rect x="762" y="12" width="6" height="6" fill="#FFFF00"/>
  <rect x="0" y="18" width="6" height="6" fill="#FFFF00"/>
  <rect x="372" y="18" width="12" height="6" fill="#FFFF00"/>
  <rect x="444" y="18" width="12" height="6" fill="#FFFF00"/>
  <rect x="762" y="18" width="6" height="6" fill="#FFFF00"/>
  <rect x="0" y="24" width="6" height="6" fill="#FFFF00"/>
  <rect x="372" y="24" width="12" height="6" fill="#FFFF00"/>
  <rect x="444" y="24" width="12" height="6" fill="#FFFF00"/>
  <rect x="762" y="24" width="6" height="6" fill="#FFFF00"/>
  <rect x="0" y="30" width="6" height="6" fill="#FFFF00"/>
  <rect x="372" y="30" width="12" height="6" fill="#FFFF00"/>
  <rect x="444" y="30" width="12" height="6" fill="#FFFF00"/>
  <rect x="762" y="30" width="6" height="6" fill="#FFFF00"/>
  <rect x="0" y="36" width="6" height="6" fill="#FFFF00"/>
  <rect x="372" y="36" width="12" height="6" fill="#FFFF00"/>
  <rect x="444" y="36" width="12" height="6" fill="#FFFF00"/>
  <rect x="762" y="36" width="6" height="6" fill="#FFFF00"/>
  <rect x="0" y="42" width="6" height="6" fill="#FFFF00"/>
  <rect x="372" y="42" width="12" height="6" fill="#FFFF00"/>
  <rect x="444" y="42" width="12" height="6" fill="#FFFF00"/>
  <rect x="762" y="42" width="6" height="6" fill="#FFFF00"/>
  <rect x="0" y="48" width="6" height="6" fill="#FFFF00"/>
  <rect x="372" y="48" width="12" height="6" fill="#FFFF00"/>
  <rect x="444" y="48" width="12" height="6" fill="#FFFF00"/>
  <rect x="762" y="48" width="6" height="6" fill="#FFFF00"/>
  <rect x="0" y="54" width="6" height="6" fill="#FFFF00"/>
  <rect x="372" y="54" width="12" height="6" fill="#FFFF00"/>
  <rect x="444" y="54" width="12" height="6" fill="#FFFF00"/>
  <rect x="762" y="54" width="6" height="6" fill="#FFFF00"/>
  <rect x="0" y="60" width="6" height="6" fill="#FFFF00"/>
  <rect x="372" y="60" width="12" height="6" fill="#FFFF00"/>
  <rect x="444" y="60" width="12" height="6" fill="#FFFF00"/>
  <rect x="762" y="60" width="6" height="6" fill="#FFFF00"/>
  <rect x="0" y="66" width="6" height="6" fill="#FFFF00"/>
  <rect x="372" y="66" width="12" height="6" fill="#FFFF00"/>
  <rect x="444" y="66" width="12" height="6" fill="#FFFF00"/>
  <rect x="762" y="66" width="6" height="6" fill="#FFFF00"/>
  <rect x="0" y="72" width="6" height="6" fill="#FFFF00"/>
  <rect x="372" y="72" width="12" height="6" fill="#FFFF00"/>
  <rect x="444" y="72" width="12" height="6" fill="#FFFF00"/>
  <rect x="762" y="72" width="6" height="6" fill="#FFFF00"/>
  <rect x="0" y="78" width="6" height="6" fill="#FFFF00"/>
  <rect x="372" y="78" width="12" height="6" fill="#FFFF00"/>
  <rect x="444" y="78" width="12" height="6" fill="#FFFF00"/>
  <rect x="762" y="78" width="6" height="6" fill="#FFFF00"/>
  <rect x="0" y="84" width="6" height="6" fill="#FFFF00"/>
  <rect x="312" y="84" width="144" height="6" fill="#FFFF00"/>
  <rect x="762" y="84" width="6" height="6" fill="#FFFF00"/>
  <rect x="0" y="90" width="768" height="6" fill="#FFFF00"/>
  <rect x="84" y="168" width="12" height="6" fill="#3399FF"/>
  <rect x="156" y="168" width="12" height="6" fill="#3399FF"/>
  <rect x="228" y="168" width="12" height="6" fill="#3399FF"/>
  <rect x="300" y="168" width="12" height="6" fill="#3399FF"/>
  <rect x="372" y="168" width="12" height="6" fill="#3399FF"/>
  <rect x="444" y="168" width="12" height="6" fill="#3399FF"/>
  <rect x="516" y="168" width="12" height="6" fill="#3399FF"/>
  <rect x="588" y="168" width="12" height="6" fill="#3399FF"/>
  <rect x="660" y="168" width="12" height="6" fill="#3399FF"/>
  <rect x="732" y="168" width="12" height="6" fill="#3399FF"/>
  <rect x="84" y="174" width="12" height="6" fill="#3399FF"/>
  <rect x="156" y="174" width="12" height="6" fill="#3399FF"/>
  <rect x="228" y="174" width="12" height="6" fill="#3399FF"/>
  <rect x="300" y="174" width="12" height="6" fill="#3399FF"/>
  <rect x="372" y="174" width="12" height="6" fill="#3399FF"/>
  <rect x="444" y="174" width="12" height="6" fill="#3399FF"/>
  <rect x="516" y="174" width="12" height="6" fill="#3399FF"/>
  <rect x="588" y="174" width="12" height="6" fill="#3399FF"/>
  <rect x="660" y="174" width="12" height="6" fill="#3399FF"/>
  <rect x="732" y="174" width="12" height="6" fill="#3399FF"/>
  <rect x="84" y="180" width="12" height="6" fill="#3399FF"/>
  <rect x="156" y="180" width="12" height="6" fill="#3399FF"/>
  <rect x="228" y="180" width="12" height="6" fill="#3399FF"/>
  <rect x="300" y="180" width="12" height="6" fill="#3399FF"/>
  <rect x="372" y="180" width="12" height="6" fill="#3399FF"/>
  <rect x="444" y="180" width="12" height="6" fill="#3399FF"/>
  <rect x="516" y="180" width="12" height="6" fill="#3399FF"/>
  <rect x="588" y="180" width="12" height="6" fill="#3399FF"/>
  <rect x="660" y="180" width="12" height="6" fill="#3399FF"/>
  <rect x="732" y="180" width="12" height="6" fill="#3399FF"/>
  <rect x="84" y="186" width="12" height="6" fill="#3399FF"/>
  <rect x="156" y="186" width="12" height="6" fill="#3399FF"/>
  <rect x="228" y="186" width="12" height="6" fill="#3399FF"/>
  <rect x="300" y="186" width="12" height="6" fill="#3399FF"/>
  <rect x="372" y="186" width="12" height="6" fill="#3399FF"/>
  <rect x="444" y="186" width="12" height="6" fill="#3399FF"/>
  <rect x="516" y="186" width="12" height="6" fill="#3399FF"/>
  <rect x="588" y="186" width="12" height="6" fill="#3399FF"/>
  <rect x="660" y="186" width="12" height="6" fill="#3399FF"/>
  <rect x="732" y="186" width="12" height="6" fill="#3399FF"/>
  <rect x="84" y="192" width="12" height="6" fill="#3399FF"/>
  <rect x="156" y="192" width="12" height="6" fill="#3399FF"/>
  <rect x="228" y="192" width="12" height="6" fill="#3399FF"/>
  <rect x="300" y="192" width="12" height="6" fill="#3399FF"/>
  <rect x="372" y="192" width="12" height="6" fill="#3399FF"/>
  <rect x="444" y="192" width="12" height="6" fill="#3399FF"/>
  <rect x="516" y="192" width="12" height="6" fill="#3399FF"/>
  <rect x="588" y="192" width="12" height="6" fill="#3399FF"/>
  <rect x="660" y="192" width="12" height="6" fill="#3399FF"/>
  <rect x="732" y="192" width="12" height="6" fill="#3399FF"/>
  <rect x="84" y="198" width="12" height="6" fill="#3399FF"/>
  <rect x="156" y="198" width="12" height="6" fill="#3399FF"/>
  <rect x="228" y="198" width="12" height="6" fill="#3399FF"/>
  <rect x="300" y="198" width="12" height="6" fill="#3399FF"/>
  <rect x="372" y="198" width="12" height="6" fill="#3399FF"/>
  <rect x="444" y="198" width="12" height="6" fill="#3399FF"/>
  <rect x="516" y="198" width="12" height="6" fill="#3399FF"/>
  <rect x="588" y="198" width="12" height="6" fill="#3399FF"/>
  <rect x="660" y="198" width="12" height="6" fill="#3399FF"/>
  <rect x="732" y="198" width="12" height="6" fill="#3399FF"/>
  <rect x="84" y="204" width="12" height="6" fill="#3399FF"/>
  <rect x="156" y="204" width="12" height="6" fill="#3399FF"/>
  <rect x="228" y="204" width="12" height="6" fill="#3399FF"/>
  <rect x="300" y="204" width="12" height="6" fill="#3399FF"/>
  <rect x="372" y="204" width="12" height="6" fill="#3399FF"/>
  <rect x="444" y="204" width="12" height="6" fill="#3399FF"/>
  <rect x="516" y="204" width="12" height="6" fill="#3399FF"/>
  <rect x="588" y="204" width="12" height="6" fill="#3399FF"/>
  <rect x="660" y="204" width="12" height="6" fill="#3399FF"/>
  <rect x="732" y="204" width="12" height="6" fill="#3399FF"/>
  <rect x="84" y="210" width="12" height="6" fill="#3399FF"/>
  <rect x="156" y="210" width="12" height="6" fill="#3399FF"/>
  <rect x="228" y="210" width="12" height="6" fill="#3399FF"/>
  <rect x="300" y="210" width="12" height="6" fill="#3399FF"/>
  <rect x="372" y="210" width="12" height="6" fill="#3399FF"/>
  <rect x="444" y="210" width="12" height="6" fill="#3399FF"/>
  <rect x="516" y="210" width="12" height="6" fill="#3399FF"/>
  <rect x="588" y="210" width="12" height="6" fill="#3399FF"/>
  <rect x="660" y="210" width="12" height="6" fill="#3399FF"/>
  <rect x="732" y="210" width="12" height="6" fill="#3399FF"/>
  <rect x="84" y="216" width="12" height="6" fill="#3399FF"/>
  <rect x="156" y="216" width="12" height="6" fill="#3399FF"/>
  <rect x="228" y="216" width="12" height="6" fill="#3399FF"/>
  <rect x="300" y="216" width="12" height="6" fill="#3399FF"/>
  <rect x="372" y="216" width="12" height="6" fill="#3399FF"/>
  <rect x="444" y="216" width="12" height="6" fill="#3399FF"/>
  <rect x="516" y="216" width="12" height="6" fill="#3399FF"/>
  <rect x="588" y="216" width="12" height="6" fill="#3399FF"/>
  <rect x="660" y="216" width="12" height="6" fill="#3399FF"/>
  <rect x="732" y="216" width="12" height="6" fill="#3399FF"/>
  <rect x="84" y="222" width="12" height="6" fill="#3399FF"/>
  <rect x="156" y="222" width="12" height="6" fill="#3399FF"/>
  <rect x="228" y="222" width="12" height="6" fill="#3399FF"/>
  <rect x="300" y="222" width="12" height="6" fill="#3399FF"/>
  <rect x="372" y="222" width="12" height="6" fill="#3399FF"/>
  <rect x="444" y="222" width="12" height="6" fill="#3399FF"/>
  <rect x="516" y="222" width="12" height="6" fill="#3399FF"/>
  <rect x="588" y="222" width="12" height="6" fill="#3399FF"/>
  <rect x="660" y="222" width="12" height="6" fill="#3399FF"/>
  <rect x="732" y="222" width="12" height="6" fill="#3399FF"/>
  <rect x="84" y="228" width="12" height="6" fill="#3399FF"/>
  <rect x="156" y="228" width="12" height="6" fill="#3399FF"/>
  <rect x="228" y="228" width="12" height="6" fill="#3399FF"/>
  <rect x="300" y="228" width="12" height="6" fill="#3399FF"/>
  <rect x="372" y="228" width="12" height="6" fill="#3399FF"/>
  <rect x="444" y="228" width="12" height="6" fill="#3399FF"/>
  <rect x="516" y="228" width="12" height="6" fill="#3399FF"/>
  <rect x="588" y="228" width="12" height="6" fill="#3399FF"/>
  <rect x="660" y="228" width="12" height="6" fill="#3399FF"/>
  <rect x="732" y="228" width="12" height="6" fill="#3399FF"/>
  <rect x="84" y="234" width="12" height="6" fill="#3399FF"/>
  <rect x="156" y="234" width="12" height="6" fill="#3399FF"/>
  <rect x="228" y="234" width="12" height="6" fill="#3399FF"/>
  <rect x="300" y="234" width="12" height="6" fill="#3399FF"/>
  <rect x="372" y="234" width="12" height="6" fill="#3399FF"/>
  <rect x="444" y="234" width="12" height="6" fill="#3399FF"/>
  <rect x="516" y="234" width="12" height="6" fill="#3399FF"/>
  <rect x="588" y="234" width="12" height="6" fill="#3399FF"/>
  <rect x="660" y="234" width="12" height="6" fill="#3399FF"/>
  <rect x="732" y="234" width="12" height="6" fill="#3399FF"/>
  <rect x="84" y="240" width="12" height="6" fill="#3399FF"/>
  <rect x="156" y="240" width="12" height="6" fill="#3399FF"/>
  <rect x="228" y="240" width="12" height="6" fill="#3399FF"/>
  <rect x="300" y="240" width="12" height="6" fill="#3399FF"/>
  <rect x="372" y="240" width="12" height="6" fill="#3399FF"/>
  <rect x="444" y="240" width="12" height="6" fill="#3399FF"/>
  <rect x="516" y="240" width="12" height="6" fill="#3399FF"/>
  <rect x="588" y="240" width="12" height="6" fill="#3399FF"/>
  <rect x="660" y="240" width="12" height="6" fill="#3399FF"/>
  <rect x="732" y="240" width="12" height="6" fill="#3399FF"/>
  <rect x="84" y="246" width="12" height="6" fill="#3399FF"/>
  <rect x="156" y="246" width="12" height="6" fill="#3399FF"/>
  <rect x="228" y="246" width="12" height="6" fill="#3399FF"/>
  <rect x="300" y="246" width="12" height="6" fill="#3399FF"/>
  <rect x="372" y="246" width="12" height="6" fill="#3399FF"/>
  <rect x="444" y="246" width="12" height="6" fill="#3399FF"/>
  <rect x="516" y="246" width="12" height="6" fill="#3399FF"/>
  <rect x="588" y="246" width="12" height="6" fill="#3399FF"/>
  <rect x="660" y="246" width="12" height="6" fill="#3399FF"/>
  <rect x="732" y="246" width="12" height="6" fill="#3399FF"/>
  <rect x="24" y="252" width="720" height="6" fill="#3399FF"/>
  <rect x="24" y="258" width="720" height="6" fill="#3399FF"/>
</svg>