<svg xmlns="http://www.w3.org/2000/svg" width="512" height="256" viewBox="0 0 512 256">
  <rect width="512" height="256" fill="black"/>
  <rect x="0" y="0" width="208" height="4" fill="#FFFF00"/>
  <rect x="248" y="0" width="8" height="4" fill="#FFFF00"/>
  <rect x="296" y="0" width="216" height="4" fill="#FFFF00"/>
  <rect x="0" y="4" width="4" height="4" fill="#FFFF00"/>
  <rect x="248" y="4" width="8" height="4" fill="#FFFF00"/>
  <rect x="296" y="4" width="8" height="4" fill="#FFFF00"/>
  <rect x="508" y="4" width="4" height="4" fill="#FFFF00"/>
  <rect x="0" y="8" width="4" height="4" fill="#FFFF00"/>
  <rect x="248" y="8" width="8" height="4" fill="#FFFF00"/>
  <rect x="296" y="8" width="8" height="4" fill="#FFFF00"/>
  <rect x="508" y="8" width="4" height="4" fill="#FFFF00"/>
  <rect x="0" y="12" width="4" height="4" fill="#FFFF00"/>
  <rect x="248" y="12" width="8" height="4" fill="#FFFF00"/>
  <rect x="296" y="12" width="8" height="4" fill="#FFFF00"/>
  <rect x="508" y="12" width="4" height="4" fill="#FFFF00"/>
  <rect x="0" y="16" width="4" height="4" fill="#FFFF00"/>
  <rect x="248" y="16" width="8" height="4" fill="#FFFF00"/>
  <rect x="296" y="16" width="8" height="4" fill="#FFFF00"/>
  <rect x="508" y="16" width="4" height="4" fill="#FFFF00"/>
  <rect x="0" y="20" width="4" height="4" fill="#FFFF00"/>
  <rect x="248" y="20" width="8" height="4" fill="#FFFF00"/>
  <rect x="296" y="20" width="8" height="4" fill="#FFFF00"/>
  <rect x="508" y="20" width="4" height="4" fill="#FFFF00"/>
  <rect x="0" y="24" width="4" height="4" fill="#FFFF00"/>
  <rect x="248" y="24" width="8" height="4" fill="#FFFF00"/>
  <rect x="296" y="24" width="8" height="4" fill="#FFFF00"/>
  <rect x="508" y="24" width="4" height="4" fill="#FFFF00"/>
  <rect x="0" y="28" width="4" height="4" fill="#FFFF00"/>
  <rect x="248" y="28" width="8" height="4" fill="#FFFF00"/>
  <rect x="296" y="28" width="8" height="4" fill="#FFFF00"/>
  <rect x="508" y="28" width="4" height="4" fill="#FFFF00"/>
  <rect x="0" y="32" width="4" height="4" fill="#FFFF00"/>
  <rect x="248" y="32" width="8" height="4" fill="#FFFF00"/>
  <rect x="296" y="32" width="8" height="4" fill="#FFFF00"/>
  <rect x="508" y="32" width="4" height="4" fill="#FFFF00"/>
  <rect x="0" y="36" width="4" height="4" fill="#FFFF00"/>
  <rect x="248" y="36" width="8" height="4" fill="#FFFF00"/>
  <rect x="296" y="36" width="8" height="4" fill="#FFFF00"/>
  <rect x="508" y="36" width="4" height="4" fill="#FFFF00"/>
  <rect x="0" y="40" width="4" height="4" fill="#FFFF00"/>
  <rect x="248" y="40" width="8" height="4" fill="#FFFF00"/>
  <rect x="296" y="40" width="8" height="4" fill="#FFFF00"/>
  <rect x="508" y="40" width="4" height="4" fill="#FFFF00"/>
  <rect x="0" y="44" width="4" height="4" fill="#FFFF00"/>
  <rect x="248" y="44" width="8" height="4" fill="#FFFF00"/>
  <rect x="296" y="44" width="8" height="4" fill="#FFFF00"/>
  <rect x="508" y="44" width="4" height="4" fill="#FFFF00"/>
  <rect x="0" y="48" width="4" height="4" fill="#FFFF00"/>
  <rect x="248" y="48" width="8" height="4" fill="#FFFF00"/>
  <rect x="296" y="48" width="8" height="4" fill="#FFFF00"/>
  <rect x="508" y="48" width="4" height="4" fill="#FFFF00"/>
  <rect x="0" y="52" width="4" height="4" fill="#FFFF00"/>
  <rect x="248" y="52" width="8" height="4" fill="#FFFF00"/>
  <rect x="296" y="52" width="8" height="4" fill="#FFFF00"/>
  <rect x="508" y="52" width="4" height="4" fill="#FFFF00"/>
  <rect x="0" y="56" width="4" height="4" fill="#FFFF00"/>
  <rect x="208" y="56" width="96" height="4" fill="#FFFF00"/>
  <rect x="508" y="56" width="4" height="4" fill="#FFFF00"/>
  <rect x="0" y="60" width="512" height="4" fill="#FFFF00"/>
  <rect x="56" y="112" width="8" height="4" fill="#3399FF"/>
  <rect x="104" y="112" width="8" height="4" fill="#3399FF"/>
  <rect x="152" y="112" width="8" height="4" fill="#3399FF"/>
  <rect x="200" y="112" width="8" height="4" fill="#3399FF"/>
  <rect x="248" y="112" width="8" height="4" fill="#3399FF"/>
  <rect x="296" y="112" width="8" height="4" fill="#3399FF"/>
  <rect x="344" y="112" width="8" height="4" fill="#3399FF"/>
  <rect x="392" y="112" width="8" height="4" fill="#3399FF"/>
  <rect x="440" y="112" width="8" height="4" fill="#3399FF"/>
  <rect x="488" y="112" width="8" height="4" fill="#3399FF"/>
  <rect x="56" y="116" width="8" height="4" fill="#3399FF"/>
  <rect x="104" y="116" width="8" height="4" fill="#3399FF"/>
  <rect x="152" y="116" width="8" height="4" fill="#3399FF"/>
  <rect x="200" y="116" width="8" height="4" fill="#3399FF"/>
  <rect x="248" y="116" width="8" height="4" fill="#3399FF"/>
  <rect x="296" y="116" width="8" height="4" fill="#3399FF"/>
  <rect x="344" y="116" width="8" height="4" fill="#3399FF"/>
  <rect x="392" y="116" width="8" height="4" fill="#3399FF"/>
  <rect x="440" y="116" width="8" height="4" fill="#3399FF"/>
  <rect x="488" y="116" width="8" height="4" fill="#3399FF"/>
  <rect x="56" y="120" width="8" height="4" fill="#3399FF"/>
  <rect x="104" y="120" width="8" height="4" fill="#3399FF"/>
  <rect x="152" y="120" width="8" height="4" fill="#3399FF"/>
  <rect x="200" y="120" width="8" height="4" fill="#3399FF"/>
  <rect x="248" y="120" width="8" height="4" fill="#3399FF"/>
  <rect x="296" y="120" width="8" height="4" fill="#3399FF"/>
  <rect x="344" y="120" width="8" height="4" fill="#3399FF"/>
  <rect x="392" y="120" width="8" height="4" fill="#3399FF"/>
  <rect x="440" y="120" width="8" height="4" fill="#3399FF"/>
  <rect x="488" y="120" width="8" height="4" fill="#3399FF"/>
  <rect x="56" y="124" width="8" height="4" fill="#3399FF"/>
  <rect x="104" y="124" width="8" height="4" fill="#3399FF"/>
  <rect x="152" y="124" width="8" height="4" fill="#3399FF"/>
  <rect x="200" y="124" width="8" height="4" fill="#3399FF"/>
  <rect x="248" y="124" width="8" height="4" fill="#3399FF"/>
  <rect x="296" y="124" width="8" height="4" fill="#3399FF"/>
  <rect x="344" y="124" width="8" height="4" fill="#3399FF"/>
  <rect x="392" y="124" width="8" height="4" fill="#3399FF"/>
  <rect x="440" y="124" width="8" height="4" fill="#3399FF"/>
  <rect x="488" y="124" width="8" height="4" fill="#3399FF"/>
  <rect x="56" y="128" width="8" height="4" fill="#3399FF"/>
  <rect x="104" y="128" width="8" height="4" fill="#3399FF"/>
  <rect x="152" y="128" width="8" height="4" fill="#3399FF"/>
  <rect x="200" y="128" width="8" height="4" fill="#3399FF"/>
  <rect x="248" y="128" width="8" height="4" fill="#3399FF"/>
  <rect x="296" y="128" width="8" height="4" fill="#3399FF"/>
  <rect x="344" y="128" width="8" height="4" fill="#3399FF"/>
  <rect x="392" y="128" width="8" height="4" fill="#3399FF"/>
  <rect x="440" y="128" width="8" height="4" fill="#3399FF"/>
  <rect x="488" y="128" width="8" height="4" fill="#3399FF"/>
  <rect x="56" y="132" width="8" height="4" fill="#3399FF"/>
  <rect x="104" y="132" width="8" height="4" fill="#3399FF"/>
  <rect x="152" y="132" width="8" height="4" fill="#3399FF"/>
  <rect x="200" y="132" width="8" height="4" fill="#3399FF"/>
  <rect x="248" y="132" width="8" height="4" fill="#3399FF"/>
  <rect x="296" y="132" width="8" height="4" fill="#3399FF"/>
  <rect x="344" y="132" width="8" height="4" fill="#3399FF"/>
  <rect x="392" y="132" width="8" height="4" fill="#3399FF"/>
  <rect x="440" y="132" width="8" height="4" fill="#3399FF"/>
  <rect x="488" y="132" width="8" height="4" fill="#3399FF"/>
  <rect x="56" y="136" width="8" height="4" fill="#3399FF"/>
  <rect x="104" y="136" width="8" height="4" fill="#3399FF"/>
  <rect x="152" y="136" width="8" height="4" fill="#3399FF"/>
  <rect x="200" y="136" width="8" height="4" fill="#3399FF"/>
  <rect x="248" y="136" width="8" height="4" fill="#3399FF"/>
  <rect x="296" y="136" width="8" height="4" fill="#3399FF"/>
  <rect x="344" y="136" width="8" height="4" fill="#3399FF"/>
  <rect x="392" y="136" width="8" height="4" fill="#3399FF"/>
  <rect x="440" y="136" width="8" height="4" fill="#3399FF"/>
  <rect x="488" y="136" width="8" height="4" fill="#3399FF"/>
  <rect x="56" y="140" width="8" height="4" fill="#3399FF"/>
  <rect x="104" y="140" width="8" height="4" fill="#3399FF"/>
  <rect x="152" y="140" width="8" height="4" fill="#3399FF"/>
  <rect x="200" y="140" width="8" height="4" fill="#3399FF"/>
  <rect x="248" y="140" width="8" height="4" fill="#3399FF"/>
  <rect x="296" y="140" width="8" height="4" fill="#3399FF"/>
  <rect x="344" y="140" width="8" height="4" fill="#3399FF"/>
  <rect x="392" y="140" width="8" height="4" fill="#3399FF"/>
  <rect x="440" y="140" width="8" height="4" fill="#3399FF"/>
  <rect x="488" y="140" width="8" height="4" fill="#3399FF"/>
  <rect x="56" y="144" width="8" height="4" fill="#3399FF"/>
  <rect x="104" y="144" width="8" height="4" fill="#3399FF"/>
  <rect x="152" y="144" width="8" height="4" fill="#3399FF"/>
  <rect x="200" y="144" width="8" height="4" fill="#3399FF"/>
  <rect x="248" y="144" width="8" height="4" fill="#3399FF"/>
  <rect x="296" y="144" width="8" height="4" fill="#3399FF"/>
  <rect x="344" y="144" width="8" height="4" fill="#3399FF"/>
  <rect x="392" y="144" width="8" height="4" fill="#3399FF"/>
  <rect x="440" y="144" width="8" height="4" fill="#3399FF"/>
  <rect x="488" y="144" width="8" height="4" fill="#3399FF"/>
  <rect x="56" y="148" width="8" height="4" fill="#3399FF"/>
  <rect x="104" y="148" width="8" height="4" fill="#3399FF"/>
  <rect x="152" y="148" width="8" height="4" fill="#3399FF"/>
  <rect x="200" y="148" width="8" height="4" fill="#3399FF"/>
  <rect x="248" y="148" width="8" height="4" fill="#3399FF"/>
  <rect x="296" y="148" width="8" height="4" fill="#3399FF"/>
  <rect x="344" y="148" width="8" height="4" fill="#3399FF"/>
  <rect x="392" y="148" width="8" height="4" fill="#3399FF"/>
  <rect x="440" y="148" width="8" height="4" fill="#3399FF"/>
  <rect x="488" y="148" width="8" height="4" fill="#3399FF"/>
  <rect x="56" y="152" width="8" height="4" fill="#3399FF"/>
  <rect x="104" y="152" width="8" height="4" fill="#3399FF"/>
  <rect x="152" y="152" width="8" height="4" fill="#3399FF"/>
  <rect x="200" y="152" width="8" height="4" fill="#3399FF"/>
  <rect x="248" y="152" width="8" height="4" fill="#3399FF"/>
  <rect x="296" y="152" width="8" height="4" fill="#3399FF"/>
  <rect x="344" y="152" width="8" height="4" fill="#3399FF"/>
  <rect x="392" y="152" width="8" height="4" fill="#3399FF"/>
  <rect x="440" y="152" width="8" height="4" fill="#3399FF"/>
  <rect x="488" y="152" width="8" height="4" fill="#3399FF"/>
  <rect x="56" y="156" width="8" height="4" fill="#3399FF"/>
  <rect x="104" y="156" width="8" height="4" fill="#3399FF"/>
  <rect x="152" y="156" width="8" height="4" fill="#3399FF"/>
  <rect x="200" y="156" width="8" height="4" fill="#3399FF"/>
  <rect x="248" y="156" width="8" height="4" fill="#3399FF"/>
  <rect x="296" y="156" width="8" height="4" fill="#3399FF"/>
  <rect x="344" y="156" width="8" height="4" fill="#3399FF"/>
  <rect x="392" y="156" width="8" height="4" fill="#3399FF"/>
  <rect x="440" y="156" width="8" height="4" fill="#3399FF"/>
  <rect x="488" y="156" width="8" height="4" fill="#3399FF"/>
  <rect x="56" y="160" width="8" height="4" fill="#3399FF"/>
  <rect x="104" y="160" width="8" height="4" fill="#3399FF"/>
  <rect x="152" y="160" width="8" height="4" fill="#3399FF"/>
  <rect x="200" y="160" width="8" height="4" fill="#3399FF"/>
  <rect x="248" y="160" width="8" height="4" fill="#3399FF"/>
  <rect x="296" y="160" width="8" height="4" fill="#3399FF"/>
  <rect x="344" y="160" width="8" height="4" fill="#3399FF"/>
  <rect x="392" y="160" width="8" height="4" fill="#3399FF"/>
  <rect x="440" y="160" width="8" height="4" fill="#3399FF"/>
  <rect x="488" y="160" width="8" height="4" fill="#3399FF"/>
  <rect x="56" y="164" width="8" height="4" fill="#3399FF"/>
  <rect x="104" y="164" width="8" height="4" fill="#3399FF"/>
  <rect x="152" y="164" width="8" height="4" fill="#3399FF"/>
  <rect x="200" y="164" width="8" height="4" fill="#3399FF"/>
  <rect x="248" y="164" width="8" height="4" fill="#3399FF"/>
  <rect x="296" y="164" width="8" height="4" fill="#3399FF"/>
  <rect x="344" y="164" width="8" height="4" fill="#3399FF"/>
  <rect x="392" y="164" width="8" height="4" fill="#3399FF"/>
  <rect x="440" y="164" width="8" height="4" fill="#3399FF"/>
  <rect x="488" y="164" width="8" height="4" fill="#3399FF"/>
  <rect x="16" y="168" width="480" height="4" fill="#3399FF"/>
  <rect x="16" y="172" width="480" height="4" fill="#3399FF"/>
</svg>