<svg xmlns="http://www.w3.org/2000/svg" width="768" height="384" viewBox="0 0 768 384">
  <rect width="768" height="384" fill="black"/>
  <rect x="222" y="24" width="24" height="6" fill="#FFFF00"/>
  <rect x="264" y="24" width="18" height="6" fill="#FFFF00"/>
  <rect x="294" y="24" width="6" height="6" fill="#FFFF00"/>
  <rect x="318" y="24" width="6" height="6" fill="#FFFF00"/>
  <rect x="330" y="24" width="30" height="6" fill="#FFFF00"/>
  <rect x="402" y="24" width="6" height="6" fill="#FFFF00"/>
  <rect x="426" y="24" width="6" height="6" fill="#FFFF00"/>
  <rect x="450" y="24" width="6" height="6" fill="#FFFF00"/>
  <rect x="516" y="24" width="18" height="6" fill="#FFFF00"/>
  <rect x="222" y="30" width="6" height="6" fill="#FFFF00"/>
  <rect x="246" y="30" width="6" height="6" fill="#FFFF00"/>
  <rect x="258" y="30" width="6" height="6" fill="#FFFF00"/>
  <rect x="282" y="30" width="6" height="6" fill="#FFFF00"/>
  <rect x="294" y="30" width="12" height="6" fill="#FFFF00"/>
  <rect x="312" y="30" width="12" height="6" fill="#FFFF00"/>
  <rect x="330" y="30" width="6" height="6" fill="#FFFF00"/>
  <rect x="402" y="30" width="6" height="6" fill="#FFFF00"/>
  <rect x="426" y="30" width="6" height="6" fill="#FFFF00"/>
  <rect x="444" y="30" width="12" height="6" fill="#FFFF00"/>
  <rect x="510" y="30" width="6" height="6" fill="#FFFF00"/>
  <rect x="534" y="30" width="6" height="6" fill="#FFFF00"/>
  <rect x="222" y="36" width="6" height="6" fill="#FFFF00"/>
  <rect x="246" y="36" width="6" height="6" fill="#FFFF00"/>
  <rect x="258" y="36" width="6" height="6" fill="#FFFF00"/>
  <rect x="282" y="36" width="6" height="6" fill="#FFFF00"/>
  <rect x="294" y="36" width="6" height="6" fill="#FFFF00"/>
  <rect x="306" y="36" width="6" height="6" fill="#FFFF00"/>
  <rect x="318" y="36" width="6" height="6" fill="#FFFF00"/>
  <rect x="330" y="36" width="6" height="6" fill="#FFFF00"/>
  <rect x="402" y="36" width="6" height="6" fill="#FFFF00"/>
  <rect x="426" y="36" width="6" height="6" fill="#FFFF00"/>
  <rect x="450" y="36" width="6" height="6" fill="#FFFF00"/>
  <rect x="510" y="36" width="6" height="6" fill="#FFFF00"/>
  <rect x="534" y="36" width="6" height="6" fill="#FFFF00"/>
  <rect x="222" y="42" width="24" height="6" fill="#FFFF00"/>
  <rect x="258" y="42" width="6" height="6" fill="#FFFF00"/>
  <rect x="282" y="42" width="6" height="6" fill="#FFFF00"/>
  <rect x="294" y="42" width="6" height="6" fill="#FFFF00"/>
  <rect x="306" y="42" width="6" height="6" fill="#FFFF00"/>
  <rect x="318" y="42" width="6" height="6" fill="#FFFF00"/>
  <rect x="330" y="42" width="24" height="6" fill="#FFFF00"/>
  <rect x="402" y="42" width="6" height="6" fill="#FFFF00"/>
  <rect x="426" y="42" width="6" height="6" fill="#FFFF00"/>
  <rect x="450" y="42" width="6" height="6" fill="#FFFF00"/>
  <rect x="516" y="42" width="18" height="6" fill="#FFFF00"/>
  <rect x="222" y="48" width="6" height="6" fill="#FFFF00"/>
  <rect x="246" y="48" width="6" height="6" fill="#FFFF00"/>
  <rect x="258" y="48" width="30" height="6" fill="#FFFF00"/>
  <rect x="294" y="48" width="6" height="6" fill="#FFFF00"/>
  <rect x="318" y="48" width="6" height="6" fill="#FFFF00"/>
  <rect x="330" y="48" width="6" height="6" fill="#FFFF00"/>
  <rect x="402" y="48" width="6" height="6" fill="#FFFF00"/>
  <rect x="426" y="48" width="6" height="6" fill="#FFFF00"/>
  <rect x="450" y="48" width="6" height="6" fill="#FFFF00"/>
  <rect x="510" y="48" width="6" height="6" fill="#FFFF00"/>
  <rect x="534" y="48" width="6" height="6" fill="#FFFF00"/>
  <rect x="222" y="54" width="6" height="6" fill="#FFFF00"/>
  <rect x="246" y="54" width="6" height="6" fill="#FFFF00"/>
  <rect x="258" y="54" width="6" height="6" fill="#FFFF00"/>
  <rect x="282" y="54" width="6" height="6" fill="#FFFF00"/>
  <rect x="294" y="54" width="6" height="6" fill="#FFFF00"/>
  <rect x="318" y="54" width="6" height="6" fill="#FFFF00"/>
  <rect x="330" y="54" width="6" height="6" fill="#FFFF00"/>
  <rect x="408" y="54" width="6" height="6" fill="#FFFF00"/>
  <rect x="420" y="54" width="6" height="6" fill="#FFFF00"/>
  <rect x="450" y="54" width="6" height="6" fill="#FFFF00"/>
  <rect x="480" y="54" width="12" height="6" fill="#FFFF00"/>
  <rect x="510" y="54" width="6" height="6" fill="#FFFF00"/>
  <rect x="534" y="54" width="6" height="6" fill="#FFFF00"/>
  <rect x="222" y="60" width="24" height="6" fill="#FFFF00"/>
  <rect x="258" y="60" width="6" height="6" fill="#FFFF00"/>
  <rect x="282" y="60" width="6" height="6" fill="#FFFF00"/>
  <rect x="294" y="60" width="6" height="6" fill="#FFFF00"/>
  <rect x="318" y="60" width="6" height="6" fill="#FFFF00"/>
  <rect x="330" y="60" width="30" height="6" fill="#FFFF00"/>
  <rect x="414" y="60" width="6" height="6" fill="#FFFF00"/>
  <rect x="444" y="60" width="18" height="6" fill="#FFFF00"/>
  <rect x="480" y="60" width="12" height="6" fill="#FFFF00"/>
  <rect x="516" y="60" width="18" height="6" fill="#FFFF00"/>
  <rect x="0" y="96" width="78" height="6" fill="#3399FF"/>
  <rect x="96" y="96" width="168" height="6" fill="#3399FF"/>
  <rect x="270" y="96" width="24" height="6" fill="#3399FF"/>
  <rect x="300" y="96" width="330" height="6" fill="#3399FF"/>
  <rect x="648" y="96" width="18" height="6" fill="#3399FF"/>
  <rect x="684" y="96" width="18" height="6" fill="#3399FF"/>
  <rect x="720" y="96" width="12" height="6" fill="#3399FF"/>
  <rect x="738" y="96" width="30" height="6" fill="#3399FF"/>
  <rect x="0" y="102" width="72" height="6" fill="#3399FF"/>
  <rect x="78" y="102" width="18" height="6" fill="#3399FF"/>
  <rect x="102" y="102" width="192" height="6" fill="#3399FF"/>
  <rect x="300" y="102" width="324" height="6" fill="#3399FF"/>
  <rect x="630" y="102" width="18" height="6" fill="#3399FF"/>
  <rect x="654" y="102" width="6" height="6" fill="#3399FF"/>
  <rect x="666" y="102" width="18" height="6" fill="#3399FF"/>
  <rect x="690" y="102" width="6" height="6" fill="#3399FF"/>
  <rect x="702" y="102" width="18" height="6" fill="#3399FF"/>
  <rect x="726" y="102" width="6" height="6" fill="#3399FF"/>
  <rect x="738" y="102" width="30" height="6" fill="#3399FF"/>
  <rect x="0" y="108" width="72" height="6" fill="#3399FF"/>
  <rect x="78" y="108" width="36" height="6" fill="#3399FF"/>
  <rect x="132" y="108" width="12" height="6" fill="#3399FF"/>
  <rect x="168" y="108" width="18" height="6" fill="#3399FF"/>
  <rect x="204" y="108" width="18" height="6" fill="#3399FF"/>
  <rect x="240" y="108" width="18" height="6" fill="#3399FF"/>
  <rect x="270" y="108" width="18" height="6" fill="#3399FF"/>
  <rect x="306" y="108" width="18" height="6" fill="#3399FF"/>
  <rect x="330" y="108" width="18" height="6" fill="#3399FF"/>
  <rect x="354" y="108" width="270" height="6" fill="#3399FF"/>
  <rect x="630" y="108" width="18" height="6" fill="#3399FF"/>
  <rect x="654" y="108" width="6" height="6" fill="#3399FF"/>
  <rect x="666" y="108" width="12" height="6" fill="#3399FF"/>
  <rect x="690" y="108" width="6" height="6" fill="#3399FF"/>
  <rect x="702" y="108" width="18" height="6" fill="#3399FF"/>
  <rect x="726" y="108" width="6" height="6" fill="#3399FF"/>
  <rect x="738" y="108" width="6" height="6" fill="#3399FF"/>
  <rect x="756" y="108" width="12" height="6" fill="#3399FF"/>
  <rect x="0" y="114" width="72" height="6" fill="#3399FF"/>
  <rect x="78" y="114" width="54" height="6" fill="#3399FF"/>
  <rect x="138" y="114" width="6" height="6" fill="#3399FF"/>
  <rect x="150" y="114" width="18" height="6" fill="#3399FF"/>
  <rect x="174" y="114" width="30" height="6" fill="#3399FF"/>
  <rect x="210" y="114" width="6" height="6" fill="#3399FF"/>
  <rect x="222" y="114" width="42" height="6" fill="#3399FF"/>
  <rect x="270" y="114" width="24" height="6" fill="#3399FF"/>
  <rect x="300" y="114" width="24" height="6" fill="#3399FF"/>
  <rect x="330" y="114" width="18" height="6" fill="#3399FF"/>
  <rect x="354" y="114" width="276" height="6" fill="#3399FF"/>
  <rect x="648" y="114" width="12" height="6" fill="#3399FF"/>
  <rect x="666" y="114" width="6" height="6" fill="#3399FF"/>
  <rect x="678" y="114" width="6" height="6" fill="#3399FF"/>
  <rect x="690" y="114" width="6" height="6" fill="#3399FF"/>
  <rect x="702" y="114" width="18" height="6" fill="#3399FF"/>
  <rect x="726" y="114" width="6" height="6" fill="#3399FF"/>
  <rect x="744" y="114" width="12" height="6" fill="#3399FF"/>
  <rect x="762" y="114" width="6" height="6" fill="#3399FF"/>
  <rect x="0" y="120" width="72" height="6" fill="#3399FF"/>
  <rect x="78" y="120" width="36" height="6" fill="#3399FF"/>
  <rect x="138" y="120" width="6" height="6" fill="#3399FF"/>
  <rect x="168" y="120" width="18" height="6" fill="#3399FF"/>
  <rect x="210" y="120" width="6" height="6" fill="#3399FF"/>
  <rect x="222" y="120" width="42" height="6" fill="#3399FF"/>
  <rect x="270" y="120" width="24" height="6" fill="#3399FF"/>
  <rect x="300" y="120" width="30" height="6" fill="#3399FF"/>
  <rect x="354" y="120" width="270" height="6" fill="#3399FF"/>
  <rect x="630" y="120" width="18" height="6" fill="#3399FF"/>
  <rect x="654" y="120" width="6" height="6" fill="#3399FF"/>
  <rect x="672" y="120" width="12" height="6" fill="#3399FF"/>
  <rect x="690" y="120" width="6" height="6" fill="#3399FF"/>
  <rect x="726" y="120" width="6" height="6" fill="#3399FF"/>
  <rect x="738" y="120" width="18" height="6" fill="#3399FF"/>
  <rect x="762" y="120" width="6" height="6" fill="#3399FF"/>
  <rect x="0" y="126" width="72" height="6" fill="#3399FF"/>
  <rect x="78" y="126" width="18" height="6" fill="#3399FF"/>
  <rect x="102" y="126" width="6" height="6" fill="#3399FF"/>
  <rect x="114" y="126" width="18" height="6" fill="#3399FF"/>
  <rect x="138" y="126" width="6" height="6" fill="#3399FF"/>
  <rect x="150" y="126" width="30" height="6" fill="#3399FF"/>
  <rect x="186" y="126" width="18" height="6" fill="#3399FF"/>
  <rect x="210" y="126" width="6" height="6" fill="#3399FF"/>
  <rect x="222" y="126" width="18" height="6" fill="#3399FF"/>
  <rect x="246" y="126" width="18" height="6" fill="#3399FF"/>
  <rect x="270" y="126" width="24" height="6" fill="#3399FF"/>
  <rect x="300" y="126" width="12" height="6" fill="#3399FF"/>
  <rect x="318" y="126" width="30" height="6" fill="#3399FF"/>
  <rect x="354" y="126" width="270" height="6" fill="#3399FF"/>
  <rect x="630" y="126" width="18" height="6" fill="#3399FF"/>
  <rect x="654" y="126" width="6" height="6" fill="#3399FF"/>
  <rect x="666" y="126" width="18" height="6" fill="#3399FF"/>
  <rect x="690" y="126" width="6" height="6" fill="#3399FF"/>
  <rect x="702" y="126" width="18" height="6" fill="#3399FF"/>
  <rect x="726" y="126" width="6" height="6" fill="#3399FF"/>
  <rect x="738" y="126" width="18" height="6" fill="#3399FF"/>
  <rect x="762" y="126" width="6" height="6" fill="#3399FF"/>
  <rect x="0" y="132" width="78" height="6" fill="#3399FF"/>
  <rect x="96" y="132" width="18" height="6" fill="#3399FF"/>
  <rect x="138" y="132" width="6" height="6" fill="#3399FF"/>
  <rect x="150" y="132" width="36" height="6" fill="#3399FF"/>
  <rect x="210" y="132" width="12" height="6" fill="#3399FF"/>
  <rect x="240" y="132" width="18" height="6" fill="#3399FF"/>
  <rect x="276" y="132" width="24" height="6" fill="#3399FF"/>
  <rect x="312" y="132" width="18" height="6" fill="#3399FF"/>
  <rect x="348" y="132" width="282" height="6" fill="#3399FF"/>
  <rect x="648" y="132" width="18" height="6" fill="#3399FF"/>
  <rect x="684" y="132" width="12" height="6" fill="#3399FF"/>
  <rect x="702" y="132" width="18" height="6" fill="#3399FF"/>
  <rect x="726" y="132" width="6" height="6" fill="#3399FF"/>
  <rect x="738" y="132" width="18" height="6" fill="#3399FF"/>
  <rect x="762" y="132" width="6" height="6" fill="#3399FF"/>
  <rect x="0" y="138" width="768" height="6" fill="#3399FF"/>
  <rect x="78" y="144" width="18" height="6" fill="#3399FF"/>
  <rect x="150" y="144" width="12" height="6" fill="#3399FF"/>
  <rect x="186" y="144" width="12" height="6" fill="#3399FF"/>
  <rect x="714" y="144" width="6" height="6" fill="#3399FF"/>
  <rect x="738" y="144" width="24" height="6" fill="#3399FF"/>
  <rect x="72" y="150" width="6" height="6" fill="#3399FF"/>
  <rect x="96" y="150" width="6" height="6" fill="#3399FF"/>
  <rect x="156" y="150" width="6" height="6" fill="#3399FF"/>
  <rect x="192" y="150" width="6" height="6" fill="#3399FF"/>
  <rect x="708" y="150" width="12" height="6" fill="#3399FF"/>
  <rect x="732" y="150" width="6" height="6" fill="#3399FF"/>
  <rect x="72" y="156" width="6" height="6" fill="#3399FF"/>
  <rect x="114" y="156" width="18" height="6" fill="#3399FF"/>
  <rect x="156" y="156" width="6" height="6" fill="#3399FF"/>
  <rect x="192" y="156" width="6" height="6" fill="#3399FF"/>
  <rect x="222" y="156" width="18" height="6" fill="#3399FF"/>
  <rect x="702" y="156" width="6" height="6" fill="#3399FF"/>
  <rect x="714" y="156" width="6" height="6" fill="#3399FF"/>
  <rect x="732" y="156" width="6" height="6" fill="#3399FF"/>
  <rect x="72" y="162" width="6" height="6" fill="#3399FF"/>
  <rect x="108" y="162" width="6" height="6" fill="#3399FF"/>
  <rect x="132" y="162" width="6" height="6" fill="#3399FF"/>
  <rect x="156" y="162" width="6" height="6" fill="#3399FF"/>
  <rect x="192" y="162" width="6" height="6" fill="#3399FF"/>
  <rect x="216" y="162" width="6" height="6" fill="#3399FF"/>
  <rect x="696" y="162" width="6" height="6" fill="#3399FF"/>
  <rect x="714" y="162" width="6" height="6" fill="#3399FF"/>
  <rect x="738" y="162" width="18" height="6" fill="#3399FF"/>
  <rect x="72" y="168" width="6" height="6" fill="#3399FF"/>
  <rect x="108" y="168" width="30" height="6" fill="#3399FF"/>
  <rect x="156" y="168" width="6" height="6" fill="#3399FF"/>
  <rect x="192" y="168" width="6" height="6" fill="#3399FF"/>
  <rect x="222" y="168" width="18" height="6" fill="#3399FF"/>
  <rect x="696" y="168" width="30" height="6" fill="#3399FF"/>
  <rect x="756" y="168" width="6" height="6" fill="#3399FF"/>
  <rect x="72" y="174" width="6" height="6" fill="#3399FF"/>
  <rect x="96" y="174" width="6" height="6" fill="#3399FF"/>
  <rect x="108" y="174" width="6" height="6" fill="#3399FF"/>
  <rect x="156" y="174" width="6" height="6" fill="#3399FF"/>
  <rect x="192" y="174" width="6" height="6" fill="#3399FF"/>
  <rect x="240" y="174" width="6" height="6" fill="#3399FF"/>
  <rect x="714" y="174" width="6" height="6" fill="#3399FF"/>
  <rect x="756" y="174" width="6" height="6" fill="#3399FF"/>
  <rect x="78" y="180" width="18" height="6" fill="#3399FF"/>
  <rect x="114" y="180" width="18" height="6" fill="#3399FF"/>
  <rect x="150" y="180" width="18" height="6" fill="#3399FF"/>
  <rect x="186" y="180" width="18" height="6" fill="#3399FF"/>
  <rect x="216" y="180" width="24" height="6" fill="#3399FF"/>
  <rect x="714" y="180" width="6" height="6" fill="#3399FF"/>
  <rect x="732" y="180" width="24" height="6" fill="#3399FF"/>
  <rect x="72" y="192" width="30" height="6" fill="#3399FF"/>
  <rect x="312" y="192" width="6" height="6" fill="#3399FF"/>
  <rect x="666" y="192" width="18" height="6" fill="#3399FF"/>
  <rect x="696" y="192" width="30" height="6" fill="#3399FF"/>
  <rect x="732" y="192" width="30" height="6" fill="#3399FF"/>
  <rect x="72" y="198" width="6" height="6" fill="#3399FF"/>
  <rect x="312" y="198" width="6" height="6" fill="#3399FF"/>
  <rect x="660" y="198" width="6" height="6" fill="#3399FF"/>
  <rect x="684" y="198" width="6" height="6" fill="#3399FF"/>
  <rect x="696" y="198" width="6" height="6" fill="#3399FF"/>
  <rect x="732" y="198" width="6" height="6" fill="#3399FF"/>
  <rect x="72" y="204" width="6" height="6" fill="#3399FF"/>
  <rect x="114" y="204" width="18" height="6" fill="#3399FF"/>
  <rect x="150" y="204" width="18" height="6" fill="#3399FF"/>
  <rect x="216" y="204" width="12" height="6" fill="#3399FF"/>
  <rect x="234" y="204" width="6" height="6" fill="#3399FF"/>
  <rect x="258" y="204" width="18" height="6" fill="#3399FF"/>
  <rect x="294" y="204" width="12" height="6" fill="#3399FF"/>
  <rect x="312" y="204" width="6" height="6" fill="#3399FF"/>
  <rect x="330" y="204" width="18" height="6" fill="#3399FF"/>
  <rect x="660" y="204" width="6" height="6" fill="#3399FF"/>
  <rect x="684" y="204" width="6" height="6" fill="#3399FF"/>
  <rect x="696" y="204" width="6" height="6" fill="#3399FF"/>
  <rect x="732" y="204" width="6" height="6" fill="#3399FF"/>
  <rect x="72" y="210" width="24" height="6" fill="#3399FF"/>
  <rect x="108" y="210" width="6" height="6" fill="#3399FF"/>
  <rect x="144" y="210" width="6" height="6" fill="#3399FF"/>
  <rect x="168" y="210" width="6" height="6" fill="#3399FF"/>
  <rect x="216" y="210" width="6" height="6" fill="#3399FF"/>
  <rect x="228" y="210" width="6" height="6" fill="#3399FF"/>
  <rect x="240" y="210" width="6" height="6" fill="#3399FF"/>
  <rect x="252" y="210" width="6" height="6" fill="#3399FF"/>
  <rect x="276" y="210" width="6" height="6" fill="#3399FF"/>
  <rect x="288" y="210" width="6" height="6" fill="#3399FF"/>
  <rect x="306" y="210" width="12" height="6" fill="#3399FF"/>
  <rect x="324" y="210" width="6" height="6" fill="#3399FF"/>
  <rect x="348" y="210" width="6" height="6" fill="#3399FF"/>
  <rect x="660" y="210" width="6" height="6" fill="#3399FF"/>
  <rect x="684" y="210" width="6" height="6" fill="#3399FF"/>
  <rect x="696" y="210" width="24" height="6" fill="#3399FF"/>
  <rect x="732" y="210" width="24" height="6" fill="#3399FF"/>
  <rect x="72" y="216" width="6" height="6" fill="#3399FF"/>
  <rect x="108" y="216" width="6" height="6" fill="#3399FF"/>
  <rect x="144" y="216" width="6" height="6" fill="#3399FF"/>
  <rect x="168" y="216" width="6" height="6" fill="#3399FF"/>
  <rect x="216" y="216" width="6" height="6" fill="#3399FF"/>
  <rect x="228" y="216" width="6" height="6" fill="#3399FF"/>
  <rect x="240" y="216" width="6" height="6" fill="#3399FF"/>
  <rect x="252" y="216" width="6" height="6" fill="#3399FF"/>
  <rect x="276" y="216" width="6" height="6" fill="#3399FF"/>
  <rect x="288" y="216" width="6" height="6" fill="#3399FF"/>
  <rect x="312" y="216" width="6" height="6" fill="#3399FF"/>
  <rect x="324" y="216" width="30" height="6" fill="#3399FF"/>
  <rect x="660" y="216" width="6" height="6" fill="#3399FF"/>
  <rect x="684" y="216" width="6" height="6" fill="#3399FF"/>
  <rect x="696" y="216" width="6" height="6" fill="#3399FF"/>
  <rect x="732" y="216" width="6" height="6" fill="#3399FF"/>
  <rect x="72" y="222" width="6" height="6" fill="#3399FF"/>
  <rect x="108" y="222" width="6" height="6" fill="#3399FF"/>
  <rect x="132" y="222" width="6" height="6" fill="#3399FF"/>
  <rect x="144" y="222" width="6" height="6" fill="#3399FF"/>
  <rect x="168" y="222" width="6" height="6" fill="#3399FF"/>
  <rect x="216" y="222" width="6" height="6" fill="#3399FF"/>
  <rect x="240" y="222" width="6" height="6" fill="#3399FF"/>
  <rect x="252" y="222" width="6" height="6" fill="#3399FF"/>
  <rect x="276" y="222" width="6" height="6" fill="#3399FF"/>
  <rect x="288" y="222" width="6" height="6" fill="#3399FF"/>
  <rect x="312" y="222" width="6" height="6" fill="#3399FF"/>
  <rect x="324" y="222" width="6" height="6" fill="#3399FF"/>
  <rect x="660" y="222" width="6" height="6" fill="#3399FF"/>
  <rect x="684" y="222" width="6" height="6" fill="#3399FF"/>
  <rect x="696" y="222" width="6" height="6" fill="#3399FF"/>
  <rect x="732" y="222" width="6" height="6" fill="#3399FF"/>
  <rect x="72" y="228" width="30" height="6" fill="#3399FF"/>
  <rect x="114" y="228" width="18" height="6" fill="#3399FF"/>
  <rect x="150" y="228" width="18" height="6" fill="#3399FF"/>
  <rect x="216" y="228" width="6" height="6" fill="#3399FF"/>
  <rect x="240" y="228" width="6" height="6" fill="#3399FF"/>
  <rect x="258" y="228" width="18" height="6" fill="#3399FF"/>
  <rect x="294" y="228" width="24" height="6" fill="#3399FF"/>
  <rect x="330" y="228" width="18" height="6" fill="#3399FF"/>
  <rect x="666" y="228" width="18" height="6" fill="#3399FF"/>
  <rect x="696" y="228" width="6" height="6" fill="#3399FF"/>
  <rect x="732" y="228" width="6" height="6" fill="#3399FF"/>
  <rect x="6" y="240" width="6" height="6" fill="#3399FF"/>
  <rect x="78" y="240" width="18" height="6" fill="#3399FF"/>
  <rect x="156" y="240" width="12" height="6" fill="#3399FF"/>
  <rect x="330" y="240" width="12" height="6" fill="#3399FF"/>
  <rect x="12" y="246" width="6" height="6" fill="#3399FF"/>
  <rect x="84" y="246" width="6" height="6" fill="#3399FF"/>
  <rect x="150" y="246" width="6" height="6" fill="#3399FF"/>
  <rect x="168" y="246" width="6" height="6" fill="#3399FF"/>
  <rect x="336" y="246" width="6" height="6" fill="#3399FF"/>
  <rect x="18" y="252" width="6" height="6" fill="#3399FF"/>
  <rect x="84" y="252" width="6" height="6" fill="#3399FF"/>
  <rect x="108" y="252" width="6" height="6" fill="#3399FF"/>
  <rect x="120" y="252" width="12" height="6" fill="#3399FF"/>
  <rect x="150" y="252" width="6" height="6" fill="#3399FF"/>
  <rect x="186" y="252" width="18" height="6" fill="#3399FF"/>
  <rect x="258" y="252" width="18" height="6" fill="#3399FF"/>
  <rect x="294" y="252" width="18" height="6" fill="#3399FF"/>
  <rect x="336" y="252" width="6" height="6" fill="#3399FF"/>
  <rect x="24" y="258" width="6" height="6" fill="#3399FF"/>
  <rect x="84" y="258" width="6" height="6" fill="#3399FF"/>
  <rect x="108" y="258" width="12" height="6" fill="#3399FF"/>
  <rect x="132" y="258" width="6" height="6" fill="#3399FF"/>
  <rect x="144" y="258" width="18" height="6" fill="#3399FF"/>
  <rect x="180" y="258" width="6" height="6" fill="#3399FF"/>
  <rect x="204" y="258" width="6" height="6" fill="#3399FF"/>
  <rect x="252" y="258" width="6" height="6" fill="#3399FF"/>
  <rect x="312" y="258" width="6" height="6" fill="#3399FF"/>
  <rect x="336" y="258" width="6" height="6" fill="#3399FF"/>
  <rect x="18" y="264" width="6" height="6" fill="#3399FF"/>
  <rect x="84" y="264" width="6" height="6" fill="#3399FF"/>
  <rect x="108" y="264" width="6" height="6" fill="#3399FF"/>
  <rect x="132" y="264" width="6" height="6" fill="#3399FF"/>
  <rect x="150" y="264" width="6" height="6" fill="#3399FF"/>
  <rect x="180" y="264" width="6" height="6" fill="#3399FF"/>
  <rect x="204" y="264" width="6" height="6" fill="#3399FF"/>
  <rect x="252" y="264" width="6" height="6" fill="#3399FF"/>
  <rect x="294" y="264" width="24" height="6" fill="#3399FF"/>
  <rect x="336" y="264" width="6" height="6" fill="#3399FF"/>
  <rect x="12" y="270" width="6" height="6" fill="#3399FF"/>
  <rect x="84" y="270" width="6" height="6" fill="#3399FF"/>
  <rect x="108" y="270" width="6" height="6" fill="#3399FF"/>
  <rect x="132" y="270" width="6" height="6" fill="#3399FF"/>
  <rect x="150" y="270" width="6" height="6" fill="#3399FF"/>
  <rect x="180" y="270" width="6" height="6" fill="#3399FF"/>
  <rect x="204" y="270" width="6" height="6" fill="#3399FF"/>
  <rect x="252" y="270" width="6" height="6" fill="#3399FF"/>
  <rect x="276" y="270" width="6" height="6" fill="#3399FF"/>
  <rect x="288" y="270" width="6" height="6" fill="#3399FF"/>
  <rect x="312" y="270" width="6" height="6" fill="#3399FF"/>
  <rect x="336" y="270" width="6" height="6" fill="#3399FF"/>
  <rect x="6" y="276" width="6" height="6" fill="#3399FF"/>
  <rect x="78" y="276" width="18" height="6" fill="#3399FF"/>
  <rect x="108" y="276" width="6" height="6" fill="#3399FF"/>
  <rect x="132" y="276" width="6" height="6" fill="#3399FF"/>
  <rect x="150" y="276" width="6" height="6" fill="#3399FF"/>
  <rect x="186" y="276" width="18" height="6" fill="#3399FF"/>
  <rect x="258" y="276" width="18" height="6" fill="#3399FF"/>
  <rect x="294" y="276" width="24" height="6" fill="#3399FF"/>
  <rect x="330" y="276" width="18" height="6" fill="#3399FF"/>
  <rect x="72" y="288" width="24" height="6" fill="#3399FF"/>
  <rect x="222" y="288" width="6" height="6" fill="#3399FF"/>
  <rect x="294" y="288" width="18" height="6" fill="#3399FF"/>
  <rect x="324" y="288" width="6" height="6" fill="#3399FF"/>
  <rect x="360" y="288" width="6" height="6" fill="#3399FF"/>
  <rect x="72" y="294" width="6" height="6" fill="#3399FF"/>
  <rect x="96" y="294" width="6" height="6" fill="#3399FF"/>
  <rect x="222" y="294" width="6" height="6" fill="#3399FF"/>
  <rect x="288" y="294" width="6" height="6" fill="#3399FF"/>
  <rect x="312" y="294" width="6" height="6" fill="#3399FF"/>
  <rect x="324" y="294" width="6" height="6" fill="#3399FF"/>
  <rect x="360" y="294" width="6" height="6" fill="#3399FF"/>
  <rect x="72" y="300" width="6" height="6" fill="#3399FF"/>
  <rect x="96" y="300" width="6" height="6" fill="#3399FF"/>
  <rect x="114" y="300" width="18" height="6" fill="#3399FF"/>
  <rect x="150" y="300" width="18" height="6" fill="#3399FF"/>
  <rect x="186" y="300" width="18" height="6" fill="#3399FF"/>
  <rect x="216" y="300" width="18" height="6" fill="#3399FF"/>
  <rect x="288" y="300" width="6" height="6" fill="#3399FF"/>
  <rect x="312" y="300" width="6" height="6" fill="#3399FF"/>
  <rect x="324" y="300" width="6" height="6" fill="#3399FF"/>
  <rect x="360" y="300" width="6" height="6" fill="#3399FF"/>
  <rect x="72" y="306" width="24" height="6" fill="#3399FF"/>
  <rect x="108" y="306" width="6" height="6" fill="#3399FF"/>
  <rect x="132" y="306" width="6" height="6" fill="#3399FF"/>
  <rect x="144" y="306" width="6" height="6" fill="#3399FF"/>
  <rect x="180" y="306" width="6" height="6" fill="#3399FF"/>
  <rect x="204" y="306" width="6" height="6" fill="#3399FF"/>
  <rect x="222" y="306" width="6" height="6" fill="#3399FF"/>
  <rect x="288" y="306" width="6" height="6" fill="#3399FF"/>
  <rect x="312" y="306" width="6" height="6" fill="#3399FF"/>
  <rect x="324" y="306" width="6" height="6" fill="#3399FF"/>
  <rect x="360" y="306" width="6" height="6" fill="#3399FF"/>
  <rect x="72" y="312" width="6" height="6" fill="#3399FF"/>
  <rect x="84" y="312" width="6" height="6" fill="#3399FF"/>
  <rect x="108" y="312" width="30" height="6" fill="#3399FF"/>
  <rect x="150" y="312" width="18" height="6" fill="#3399FF"/>
  <rect x="180" y="312" width="30" height="6" fill="#3399FF"/>
  <rect x="222" y="312" width="6" height="6" fill="#3399FF"/>
  <rect x="288" y="312" width="30" height="6" fill="#3399FF"/>
  <rect x="324" y="312" width="6" height="6" fill="#3399FF"/>
  <rect x="360" y="312" width="6" height="6" fill="#3399FF"/>
  <rect x="72" y="318" width="6" height="6" fill="#3399FF"/>
  <rect x="90" y="318" width="6" height="6" fill="#3399FF"/>
  <rect x="108" y="318" width="6" height="6" fill="#3399FF"/>
  <rect x="168" y="318" width="6" height="6" fill="#3399FF"/>
  <rect x="180" y="318" width="6" height="6" fill="#3399FF"/>
  <rect x="222" y="318" width="6" height="6" fill="#3399FF"/>
  <rect x="240" y="318" width="6" height="6" fill="#3399FF"/>
  <rect x="288" y="318" width="6" height="6" fill="#3399FF"/>
  <rect x="312" y="318" width="6" height="6" fill="#3399FF"/>
  <rect x="324" y="318" width="6" height="6" fill="#3399FF"/>
  <rect x="360" y="318" width="6" height="6" fill="#3399FF"/>
  <rect x="72" y="324" width="6" height="6" fill="#3399FF"/>
  <rect x="96" y="324" width="6" height="6" fill="#3399FF"/>
  <rect x="114" y="324" width="18" height="6" fill="#3399FF"/>
  <rect x="144" y="324" width="24" height="6" fill="#3399FF"/>
  <rect x="186" y="324" width="18" height="6" fill="#3399FF"/>
  <rect x="228" y="324" width="12" height="6" fill="#3399FF"/>
  <rect x="288" y="324" width="6" height="6" fill="#3399FF"/>
  <rect x="312" y="324" width="6" height="6" fill="#3399FF"/>
  <rect x="324" y="324" width="30" height="6" fill="#3399FF"/>
  <rect x="360" y="324" width="30" height="6" fill="#3399FF"/>
</svg>