<svg xmlns="http://www.w3.org/2000/svg" width="512" height="256" viewBox="0 0 512 256">
  <rect width="512" height="256" fill="black"/>
  <rect x="148" y="16" width="16" height="4" fill="#FFFF00"/>
  <rect x="176" y="16" width="12" height="4" fill="#FFFF00"/>
  <rect x="196" y="16" width="4" height="4" fill="#FFFF00"/>
  <rect x="212" y="16" width="4" height="4" fill="#FFFF00"/>
  <rect x="220" y="16" width="20" height="4" fill="#FFFF00"/>
  <rect x="268" y="16" width="4" height="4" fill="#FFFF00"/>
  <rect x="284" y="16" width="4" height="4" fill="#FFFF00"/>
  <rect x="300" y="16" width="4" height="4" fill="#FFFF00"/>
  <rect x="344" y="16" width="12" height="4" fill="#FFFF00"/>
  <rect x="148" y="20" width="4" height="4" fill="#FFFF00"/>
  <rect x="164" y="20" width="4" height="4" fill="#FFFF00"/>
  <rect x="172" y="20" width="4" height="4" fill="#FFFF00"/>
  <rect x="188" y="20" width="4" height="4" fill="#FFFF00"/>
  <rect x="196" y="20" width="8" height="4" fill="#FFFF00"/>
  <rect x="208" y="20" width="8" height="4" fill="#FFFF00"/>
  <rect x="220" y="20" width="4" height="4" fill="#FFFF00"/>
  <rect x="268" y="20" width="4" height="4" fill="#FFFF00"/>
  <rect x="284" y="20" width="4" height="4" fill="#FFFF00"/>
  <rect x="296" y="20" width="8" height="4" fill="#FFFF00"/>
  <rect x="340" y="20" width="4" height="4" fill="#FFFF00"/>
  <rect x="356" y="20" width="4" height="4" fill="#FFFF00"/>
  <rect x="148" y="24" width="4" height="4" fill="#FFFF00"/>
  <rect x="164" y="24" width="4" height="4" fill="#FFFF00"/>
  <rect x="172" y="24" width="4" height="4" fill="#FFFF00"/>
  <rect x="188" y="24" width="4" height="4" fill="#FFFF00"/>
  <rect x="196" y="24" width="4" height="4" fill="#FFFF00"/>
  <rect x="204" y="24" width="4" height="4" fill="#FFFF00"/>
  <rect x="212" y="24" width="4" height="4" fill="#FFFF00"/>
  <rect x="220" y="24" width="4" height="4" fill="#FFFF00"/>
  <rect x="268" y="24" width="4" height="4" fill="#FFFF00"/>
  <rect x="284" y="24" width="4" height="4" fill="#FFFF00"/>
  <rect x="300" y="24" width="4" height="4" fill="#FFFF00"/>
  <rect x="340" y="24" width="4" height="4" fill="#FFFF00"/>
  <rect x="356" y="24" width="4" height="4" fill="#FFFF00"/>
  <rect x="148" y="28" width="16" height="4" fill="#FFFF00"/>
  <rect x="172" y="28" width="4" height="4" fill="#FFFF00"/>
  <rect x="188" y="28" width="4" height="4" fill="#FFFF00"/>
  <rect x="196" y="28" width="4" height="4" fill="#FFFF00"/>
  <rect x="204" y="28" width="4" height="4" fill="#FFFF00"/>
  <rect x="212" y="28" width="4" height="4" fill="#FFFF00"/>
  <rect x="220" y="28" width="16" height="4" fill="#FFFF00"/>
  <rect x="268" y="28" width="4" height="4" fill="#FFFF00"/>
  <rect x="284" y="28" width="4" height="4" fill="#FFFF00"/>
  <rect x="300" y="28" width="4" height="4" fill="#FFFF00"/>
  <rect x="344" y="28" width="12" height="4" fill="#FFFF00"/>
  <rect x="148" y="32" width="4" height="4" fill="#FFFF00"/>
  <rect x="164" y="32" width="4" height="4" fill="#FFFF00"/>
  <rect x="172" y="32" width="20" height="4" fill="#FFFF00"/>
  <rect x="196" y="32" width="4" height="4" fill="#FFFF00"/>
  <rect x="212" y="32" width="4" height="4" fill="#FFFF00"/>
  <rect x="220" y="32" width="4" height="4" fill="#FFFF00"/>
  <rect x="268" y="32" width="4" height="4" fill="#FFFF00"/>
  <rect x="284" y="32" width="4" height="4" fill="#FFFF00"/>
  <rect x="300" y="32" width="4" height="4" fill="#FFFF00"/>
  <rect x="340" y="32" width="4" height="4" fill="#FFFF00"/>
  <rect x="356" y="32" width="4" height="4" fill="#FFFF00"/>
  <rect x="148" y="36" width="4" height="4" fill="#FFFF00"/>
  <rect x="164" y="36" width="4" height="4" fill="#FFFF00"/>
  <rect x="172" y="36" width="4" height="4" fill="#FFFF00"/>
  <rect x="188" y="36" width="4" height="4" fill="#FFFF00"/>
  <rect x="196" y="36" width="4" height="4" fill="#FFFF00"/>
  <rect x="212" y="36" width="4" height="4" fill="#FFFF00"/>
  <rect x="220" y="36" width="4" height="4" fill="#FFFF00"/>
  <rect x="272" y="36" width="4" height="4" fill="#FFFF00"/>
  <rect x="280" y="36" width="4" height="4" fill="#FFFF00"/>
  <rect x="300" y="36" width="4" height="4" fill="#FFFF00"/>
  <rect x="320" y="36" width="8" height="4" fill="#FFFF00"/>
  <rect x="340" y="36" width="4" height="4" fill="#FFFF00"/>
  <rect x="356" y="36" width="4" height="4" fill="#FFFF00"/>
  <rect x="148" y="40" width="16" height="4" fill="#FFFF00"/>
  <rect x="172" y="40" width="4" height="4" fill="#FFFF00"/>
  <rect x="188" y="40" width="4" height="4" fill="#FFFF00"/>
  <rect x="196" y="40" width="4" height="4" fill="#FFFF00"/>
  <rect x="212" y="40" width="4" height="4" fill="#FFFF00"/>
  <rect x="220" y="40" width="20" height="4" fill="#FFFF00"/>
  <rect x="276" y="40" width="4" height="4" fill="#FFFF00"/>
  <rect x="296" y="40" width="12" height="4" fill="#FFFF00"/>
  <rect x="320" y="40" width="8" height="4" fill="#FFFF00"/>
  <rect x="344" y="40" width="12" height="4" fill="#FFFF00"/>
  <rect x="0" y="64" width="52" height="4" fill="#3399FF"/>
  <rect x="64" y="64" width="112" height="4" fill="#3399FF"/>
  <rect x="180" y="64" width="16" height="4" fill="#3399FF"/>
  <rect x="200" y="64" width="220" height="4" fill="#3399FF"/>
  <rect x="432" y="64" width="12" height="4" fill="#3399FF"/>
  <rect x="456" y="64" width="12" height="4" fill="#3399FF"/>
  <rect x="480" y="64" width="8" height="4" fill="#3399FF"/>
  <rect x="492" y="64" width="20" height="4" fill="#3399FF"/>
  <rect x="0" y="68" width="48" height="4" fill="#3399FF"/>
  <rect x="52" y="68" width="12" height="4" fill="#3399FF"/>
  <rect x="68" y="68" width="128" height="4" fill="#3399FF"/>
  <rect x="200" y="68" width="216" height="4" fill="#3399FF"/>
  <rect x="420" y="68" width="12" height="4" fill="#3399FF"/>
  <rect x="436" y="68" width="4" height="4" fill="#3399FF"/>
  <rect x="444" y="68" width="12" height="4" fill="#3399FF"/>
  <rect x="460" y="68" width="4" height="4" fill="#3399FF"/>
  <rect x="468" y="68" width="12" height="4" fill="#3399FF"/>
  <rect x="484" y="68" width="4" height="4" fill="#3399FF"/>
  <rect x="492" y="68" width="20" height="4" fill="#3399FF"/>
  <rect x="0" y="72" width="48" height="4" fill="#3399FF"/>
  <rect x="52" y="72" width="24" height="4" fill="#3399FF"/>
  <rect x="88" y="72" width="8" height="4" fill="#3399FF"/>
  <rect x="112" y="72" width="12" height="4" fill="#3399FF"/>
  <rect x="136" y="72" width="12" height="4" fill="#3399FF"/>
  <rect x="160" y="72" width="12" height="4" fill="#3399FF"/>
  <rect x="180" y="72" width="12" height="4" fill="#3399FF"/>
  <rect x="204" y="72" width="12" height="4" fill="#3399FF"/>
  <rect x="220" y="72" width="12" height="4" fill="#3399FF"/>
  <rect x="236" y="72" width="180" height="4" fill="#3399FF"/>
  <rect x="420" y="72" width="12" height="4" fill="#3399FF"/>
  <rect x="436" y="72" width="4" height="4" fill="#3399FF"/>
  <rect x="444" y="72" width="8" height="4" fill="#3399FF"/>
  <rect x="460" y="72" width="4" height="4" fill="#3399FF"/>
  <rect x="468" y="72" width="12" height="4" fill="#3399FF"/>
  <rect x="484" y="72" width="4" height="4" fill="#3399FF"/>
  <rect x="492" y="72" width="4" height="4" fill="#3399FF"/>
  <rect x="504" y="72" width="8" height="4" fill="#3399FF"/>
  <rect x="0" y="76" width="48" height="4" fill="#3399FF"/>
  <rect x="52" y="76" width="36" height="4" fill="#3399FF"/>
  <rect x="92" y="76" width="4" height="4" fill="#3399FF"/>
  <rect x="100" y="76" width="12" height="4" fill="#3399FF"/>
  <rect x="116" y="76" width="20" height="4" fill="#3399FF"/>
  <rect x="140" y="76" width="4" height="4" fill="#3399FF"/>
  <rect x="148" y="76" width="28" height="4" fill="#3399FF"/>
  <rect x="180" y="76" width="16" height="4" fill="#3399FF"/>
  <rect x="200" y="76" width="16" height="4" fill="#3399FF"/>
  <rect x="220" y="76" width="12" height="4" fill="#3399FF"/>
  <rect x="236" y="76" width="184" height="4" fill="#3399FF"/>
  <rect x="432" y="76" width="8" height="4" fill="#3399FF"/>
  <rect x="444" y="76" width="4" height="4" fill="#3399FF"/>
  <rect x="452" y="76" width="4" height="4" fill="#3399FF"/>
  <rect x="460" y="76" width="4" height="4" fill="#3399FF"/>
  <rect x="468" y="76" width="12" height="4" fill="#3399FF"/>
  <rect x="484" y="76" width="4" height="4" fill="#3399FF"/>
  <rect x="496" y="76" width="8" height="4" fill="#3399FF"/>
  <rect x="508" y="76" width="4" height="4" fill="#3399FF"/>
  <rect x="0" y="80" width="48" height="4" fill="#3399FF"/>
  <rect x="52" y="80" width="24" height="4" fill="#3399FF"/>
  <rect x="92" y="80" width="4" height="4" fill="#3399FF"/>
  <rect x="112" y="80" width="12" height="4" fill="#3399FF"/>
  <rect x="140" y="80" width="4" height="4" fill="#3399FF"/>
  <rect x="148" y="80" width="28" height="4" fill="#3399FF"/>
  <rect x="180" y="80" width="16" height="4" fill="#3399FF"/>
  <rect x="200" y="80" width="20" height="4" fill="#3399FF"/>
  <rect x="236" y="80" width="180" height="4" fill="#3399FF"/>
  <rect x="420" y="80" width="12" height="4" fill="#3399FF"/>
  <rect x="436" y="80" width="4" height="4" fill="#3399FF"/>
  <rect x="448" y="80" width="8" height="4" fill="#3399FF"/>
  <rect x="460" y="80" width="4" height="4" fill="#3399FF"/>
  <rect x="484" y="80" width="4" height="4" fill="#3399FF"/>
  <rect x="492" y="80" width="12" height="4" fill="#3399FF"/>
  <rect x="508" y="80" width="4" height="4" fill="#3399FF"/>
  <rect x="0" y="84" width="48" height="4" fill="#3399FF"/>
  <rect x="52" y="84" width="12" height="4" fill="#3399FF"/>
  <rect x="68" y="84" width="4" height="4" fill="#3399FF"/>
  <rect x="76" y="84" width="12" height="4" fill="#3399FF"/>
  <rect x="92" y="84" width="4" height="4" fill="#3399FF"/>
  <rect x="100" y="84" width="20" height="4" fill="#3399FF"/>
  <rect x="124" y="84" width="12" height="4" fill="#3399FF"/>
  <rect x="140" y="84" width="4" height="4" fill="#3399FF"/>
  <rect x="148" y="84" width="12" height="4" fill="#3399FF"/>
  <rect x="164" y="84" width="12" height="4" fill="#3399FF"/>
  <rect x="180" y="84" width="16" height="4" fill="#3399FF"/>
  <rect x="200" y="84" width="8" height="4" fill="#3399FF"/>
  <rect x="212" y="84" width="20" height="4" fill="#3399FF"/>
  <rect x="236" y="84" width="180" height="4" fill="#3399FF"/>
  <rect x="420" y="84" width="12" height="4" fill="#3399FF"/>
  <rect x="436" y="84" width="4" height="4" fill="#3399FF"/>
  <rect x="444" y="84" width="12" height="4" fill="#3399FF"/>
  <rect x="460" y="84" width="4" height="4" fill="#3399FF"/>
  <rect x="468" y="84" width="12" height="4" fill="#3399FF"/>
  <rect x="484" y="84" width="4" height="4" fill="#3399FF"/>
  <rect x="492" y="84" width="12" height="4" fill="#3399FF"/>
  <rect x="508" y="84" width="4" height="4" fill="#3399FF"/>
  <rect x="0" y="88" width="52" height="4" fill="#3399FF"/>
  <rect x="64" y="88" width="12" height="4" fill="#3399FF"/>
  <rect x="92" y="88" width="4" height="4" fill="#3399FF"/>
  <rect x="100" y="88" width="24" height="4" fill="#3399FF"/>
  <rect x="140" y="88" width="8" height="4" fill="#3399FF"/>
  <rect x="160" y="88" width="12" height="4" fill="#3399FF"/>
  <rect x="184" y="88" width="16" height="4" fill="#3399FF"/>
  <rect x="208" y="88" width="12" height="4" fill="#3399FF"/>
  <rect x="232" y="88" width="188" height="4" fill="#3399FF"/>
  <rect x="432" y="88" width="12" height="4" fill="#3399FF"/>
  <rect x="456" y="88" width="8" height="4" fill="#3399FF"/>
  <rect x="468" y="88" width="12" height="4" fill="#3399FF"/>
  <rect x="484" y="88" width="4" height="4" fill="#3399FF"/>
  <rect x="492" y="88" width="12" height="4" fill="#3399FF"/>
  <rect x="508" y="88" width="4" height="4" fill="#3399FF"/>
  <rect x="0" y="92" width="512" height="4" fill="#3399FF"/>
  <rect x="52" y="96" width="12" height="4" fill="#3399FF"/>
  <rect x="100" y="96" width="8" height="4" fill="#3399FF"/>
  <rect x="124" y="96" width="8" height="4" fill="#3399FF"/>
  <rect x="476" y="96" width="4" height="4" fill="#3399FF"/>
  <rect x="492" y="96" width="16" height="4" fill="#3399FF"/>
  <rect x="48" y="100" width="4" height="4" fill="#3399FF"/>
  <rect x="64" y="100" width="4" height="4" fill="#3399FF"/>
  <rect x="104" y="100" width="4" height="4" fill="#3399FF"/>
  <rect x="128" y="100" width="4" height="4" fill="#3399FF"/>
  <rect x="472" y="100" width="8" height="4" fill="#3399FF"/>
  <rect x="488" y="100" width="4" height="4" fill="#3399FF"/>
  <rect x="48" y="104" width="4" height="4" fill="#3399FF"/>
  <rect x="76" y="104" width="12" height="4" fill="#3399FF"/>
  <rect x="104" y="104" width="4" height="4" fill="#3399FF"/>
  <rect x="128" y="104" width="4" height="4" fill="#3399FF"/>
  <rect x="148" y="104" width="12" height="4" fill="#3399FF"/>
  <rect x="468" y="104" width="4" height="4" fill="#3399FF"/>
  <rect x="476" y="104" width="4" height="4" fill="#3399FF"/>
  <rect x="488" y="104" width="4" height="4" fill="#3399FF"/>
  <rect x="48" y="108" width="4" height="4" fill="#3399FF"/>
  <rect x="72" y="108" width="4" height="4" fill="#3399FF"/>
  <rect x="88" y="108" width="4" height="4" fill="#3399FF"/>
  <rect x="104" y="108" width="4" height="4" fill="#3399FF"/>
  <rect x="128" y="108" width="4" height="4" fill="#3399FF"/>
  <rect x="144" y="108" width="4" height="4" fill="#3399FF"/>
  <rect x="464" y="108" width="4" height="4" fill="#3399FF"/>
  <rect x="476" y="108" width="4" height="4" fill="#3399FF"/>
  <rect x="492" y="108" width="12" height="4" fill="#3399FF"/>
  <rect x="48" y="112" width="4" height="4" fill="#3399FF"/>
  <rect x="72" y="112" width="20" height="4" fill="#3399FF"/>
  <rect x="104" y="112" width="4" height="4" fill="#3399FF"/>
  <rect x="128" y="112" width="4" height="4" fill="#3399FF"/>
  <rect x="148" y="112" width="12" height="4" fill="#3399FF"/>
  <rect x="464" y="112" width="20" height="4" fill="#3399FF"/>
  <rect x="504" y="112" width="4" height="4" fill="#3399FF"/>
  <rect x="48" y="116" width="4" height="4" fill="#3399FF"/>
  <rect x="64" y="116" width="4" height="4" fill="#3399FF"/>
  <rect x="72" y="116" width="4" height="4" fill="#3399FF"/>
  <rect x="104" y="116" width="4" height="4" fill="#3399FF"/>
  <rect x="128" y="116" width="4" height="4" fill="#3399FF"/>
  <rect x="160" y="116" width="4" height="4" fill="#3399FF"/>
  <rect x="476" y="116" width="4" height="4" fill="#3399FF"/>
  <rect x="504" y="116" width="4" height="4" fill="#3399FF"/>
  <rect x="52" y="120" width="12" height="4" fill="#3399FF"/>
  <rect x="76" y="120" width="12" height="4" fill="#3399FF"/>
  <rect x="100" y="120" width="12" height="4" fill="#3399FF"/>
  <rect x="124" y="120" width="12" height="4" fill="#3399FF"/>
  <rect x="144" y="120" width="16" height="4" fill="#3399FF"/>
  <rect x="476" y="120" width="4" height="4" fill="#3399FF"/>
  <rect x="488" y="120" width="16" height="4" fill="#3399FF"/>
  <rect x="48" y="128" width="20" height="4" fill="#3399FF"/>
  <rect x="208" y="128" width="4" height="4" fill="#3399FF"/>
  <rect x="444" y="128" width="12" height="4" fill="#3399FF"/>
  <rect x="464" y="128" width="20" height="4" fill="#3399FF"/>
  <rect x="488" y="128" width="20" height="4" fill="#3399FF"/>
  <rect x="48" y="132" width="4" height="4" fill="#3399FF"/>
  <rect x="208" y="132" width="4" height="4" fill="#3399FF"/>
  <rect x="440" y="132" width="4" height="4" fill="#3399FF"/>
  <rect x="456" y="132" width="4" height="4" fill="#3399FF"/>
  <rect x="464" y="132" width="4" height="4" fill="#3399FF"/>
  <rect x="488" y="132" width="4" height="4" fill="#3399FF"/>
  <rect x="48" y="136" width="4" height="4" fill="#3399FF"/>
  <rect x="76" y="136" width="12" height="4" fill="#3399FF"/>
  <rect x="100" y="136" width="12" height="4" fill="#3399FF"/>
  <rect x="144" y="136" width="8" height="4" fill="#3399FF"/>
  <rect x="156" y="136" width="4" height="4" fill="#3399FF"/>
  <rect x="172" y="136" width="12" height="4" fill="#3399FF"/>
  <rect x="196" y="136" width="8" height="4" fill="#3399FF"/>
  <rect x="208" y="136" width="4" height="4" fill="#3399FF"/>
  <rect x="220" y="136" width="12" height="4" fill="#3399FF"/>
  <rect x="440" y="136" width="4" height="4" fill="#3399FF"/>
  <rect x="456" y="136" width="4" height="4" fill="#3399FF"/>
  <rect x="464" y="136" width="4" height="4" fill="#3399FF"/>
  <rect x="488" y="136" width="4" height="4" fill="#3399FF"/>
  <rect x="48" y="140" width="16" height="4" fill="#3399FF"/>
  <rect x="72" y="140" width="4" height="4" fill="#3399FF"/>
  <rect x="96" y="140" width="4" height="4" fill="#3399FF"/>
  <rect x="112" y="140" width="4" height="4" fill="#3399FF"/>
  <rect x="144" y="140" width="4" height="4" fill="#3399FF"/>
  <rect x="152" y="140" width="4" height="4" fill="#3399FF"/>
  <rect x="160" y="140" width="4" height="4" fill="#3399FF"/>
  <rect x="168" y="140" width="4" height="4" fill="#3399FF"/>
  <rect x="184" y="140" width="4" height="4" fill="#3399FF"/>
  <rect x="192" y="140" width="4" height="4" fill="#3399FF"/>
  <rect x="204" y="140" width="8" height="4" fill="#3399FF"/>
  <rect x="216" y="140" width="4" height="4" fill="#3399FF"/>
  <rect x="232" y="140" width="4" height="4" fill="#3399FF"/>
  <rect x="440" y="140" width="4" height="4" fill="#3399FF"/>
  <rect x="456" y="140" width="4" height="4" fill="#3399FF"/>
  <rect x="464" y="140" width="16" height="4" fill="#3399FF"/>
  <rect x="488" y="140" width="16" height="4" fill="#3399FF"/>
  <rect x="48" y="144" width="4" height="4" fill="#3399FF"/>
  <rect x="72" y="144" width="4" height="4" fill="#3399FF"/>
  <rect x="96" y="144" width="4" height="4" fill="#3399FF"/>
  <rect x="112" y="144" width="4" height="4" fill="#3399FF"/>
  <rect x="144" y="144" width="4" height="4" fill="#3399FF"/>
  <rect x="152" y="144" width="4" height="4" fill="#3399FF"/>
  <rect x="160" y="144" width="4" height="4" fill="#3399FF"/>
  <rect x="168" y="144" width="4" height="4" fill="#3399FF"/>
  <rect x="184" y="144" width="4" height="4" fill="#3399FF"/>
  <rect x="192" y="144" width="4" height="4" fill="#3399FF"/>
  <rect x="208" y="144" width="4" height="4" fill="#3399FF"/>
  <rect x="216" y="144" width="20" height="4" fill="#3399FF"/>
  <rect x="440" y="144" width="4" height="4" fill="#3399FF"/>
  <rect x="456" y="144" width="4" height="4" fill="#3399FF"/>
  <rect x="464" y="144" width="4" height="4" fill="#3399FF"/>
  <rect x="488" y="144" width="4" height="4" fill="#3399FF"/>
  <rect x="48" y="148" width="4" height="4" fill="#3399FF"/>
  <rect x="72" y="148" width="4" height="4" fill="#3399FF"/>
  <rect x="88" y="148" width="4" height="4" fill="#3399FF"/>
  <rect x="96" y="148" width="4" height="4" fill="#3399FF"/>
  <rect x="112" y="148" width="4" height="4" fill="#3399FF"/>
  <rect x="144" y="148" width="4" height="4" fill="#3399FF"/>
  <rect x="160" y="148" width="4" height="4" fill="#3399FF"/>
  <rect x="168" y="148" width="4" height="4" fill="#3399FF"/>
  <rect x="184" y="148" width="4" height="4" fill="#3399FF"/>
  <rect x="192" y="148" width="4" height="4" fill="#3399FF"/>
  <rect x="208" y="148" width="4" height="4" fill="#3399FF"/>
  <rect x="216" y="148" width="4" height="4" fill="#3399FF"/>
  <rect x="440" y="148" width="4" height="4" fill="#3399FF"/>
  <rect x="456" y="148" width="4" height="4" fill="#3399FF"/>
  <rect x="464" y="148" width="4" height="4" fill="#3399FF"/>
  <rect x="488" y="148" width="4" height="4" fill="#3399FF"/>
  <rect x="48" y="152" width="20" height="4" fill="#3399FF"/>
  <rect x="76" y="152" width="12" height="4" fill="#3399FF"/>
  <rect x="100" y="152" width="12" height="4" fill="#3399FF"/>
  <rect x="144" y="152" width="4" height="4" fill="#3399FF"/>
  <rect x="160" y="152" width="4" height="4" fill="#3399FF"/>
  <rect x="172" y="152" width="12" height="4" fill="#3399FF"/>
  <rect x="196" y="152" width="16" height="4" fill="#3399FF"/>
  <rect x="220" y="152" width="12" height="4" fill="#3399FF"/>
  <rect x="444" y="152" width="12" height="4" fill="#3399FF"/>
  <rect x="464" y="152" width="4" height="4" fill="#3399FF"/>
  <rect x="488" y="152" width="4" height="4" fill="#3399FF"/>
  <rect x="4" y="160" width="4" height="4" fill="#3399FF"/>
  <rect x="52" y="160" width="12" height="4" fill="#3399FF"/>
  <rect x="104" y="160" width="8" height="4" fill="#3399FF"/>
  <rect x="220" y="160" width="8" height="4" fill="#3399FF"/>
  <rect x="8" y="164" width="4" height="4" fill="#3399FF"/>
  <rect x="56" y="164" width="4" height="4" fill="#3399FF"/>
  <rect x="100" y="164" width="4" height="4" fill="#3399FF"/>
  <rect x="112" y="164" width="4" height="4" fill="#3399FF"/>
  <rect x="224" y="164" width="4" height="4" fill="#3399FF"/>
  <rect x="12" y="168" width="4" height="4" fill="#3399FF"/>
  <rect x="56" y="168" width="4" height="4" fill="#3399FF"/>
  <rect x="72" y="168" width="4" height="4" fill="#3399FF"/>
  <rect x="80" y="168" width="8" height="4" fill="#3399FF"/>
  <rect x="100" y="168" width="4" height="4" fill="#3399FF"/>
  <rect x="124" y="168" width="12" height="4" fill="#3399FF"/>
  <rect x="172" y="168" width="12" height="4" fill="#3399FF"/>
  <rect x="196" y="168" width="12" height="4" fill="#3399FF"/>
  <rect x="224" y="168" width="4" height="4" fill="#3399FF"/>
  <rect x="16" y="172" width="4" height="4" fill="#3399FF"/>
  <rect x="56" y="172" width="4" height="4" fill="#3399FF"/>
  <rect x="72" y="172" width="8" height="4" fill="#3399FF"/>
  <rect x="88" y="172" width="4" height="4" fill="#3399FF"/>
  <rect x="96" y="172" width="12" height="4" fill="#3399FF"/>
  <rect x="120" y="172" width="4" height="4" fill="#3399FF"/>
  <rect x="136" y="172" width="4" height="4" fill="#3399FF"/>
  <rect x="168" y="172" width="4" height="4" fill="#3399FF"/>
  <rect x="208" y="172" width="4" height="4" fill="#3399FF"/>
  <rect x="224" y="172" width="4" height="4" fill="#3399FF"/>
  <rect x="12" y="176" width="4" height="4" fill="#3399FF"/>
  <rect x="56" y="176" width="4" height="4" fill="#3399FF"/>
  <rect x="72" y="176" width="4" height="4" fill="#3399FF"/>
  <rect x="88" y="176" width="4" height="4" fill="#3399FF"/>
  <rect x="100" y="176" width="4" height="4" fill="#3399FF"/>
  <rect x="120" y="176" width="4" height="4" fill="#3399FF"/>
  <rect x="136" y="176" width="4" height="4" fill="#3399FF"/>
  <rect x="168" y="176" width="4" height="4" fill="#3399FF"/>
  <rect x="196" y="176" width="16" height="4" fill="#3399FF"/>
  <rect x="224" y="176" width="4" height="4" fill="#3399FF"/>
  <rect x="8" y="180" width="4" height="4" fill="#3399FF"/>
  <rect x="56" y="180" width="4" height="4" fill="#3399FF"/>
  <rect x="72" y="180" width="4" height="4" fill="#3399FF"/>
  <rect x="88" y="180" width="4" height="4" fill="#3399FF"/>
  <rect x="100" y="180" width="4" height="4" fill="#3399FF"/>
  <rect x="120" y="180" width="4" height="4" fill="#3399FF"/>
  <rect x="136" y="180" width="4" height="4" fill="#3399FF"/>
  <rect x="168" y="180" width="4" height="4" fill="#3399FF"/>
  <rect x="184" y="180" width="4" height="4" fill="#3399FF"/>
  <rect x="192" y="180" width="4" height="4" fill="#3399FF"/>
  <rect x="208" y="180" width="4" height="4" fill="#3399FF"/>
  <rect x="224" y="180" width="4" height="4" fill="#3399FF"/>
  <rect x="4" y="184" width="4" height="4" fill="#3399FF"/>
  <rect x="52" y="184" width="12" height="4" fill="#3399FF"/>
  <rect x="72" y="184" width="4" height="4" fill="#3399FF"/>
  <rect x="88" y="184" width="4" height="4" fill="#3399FF"/>
  <rect x="100" y="184" width="4" height="4" fill="#3399FF"/>
  <rect x="124" y="184" width="12" height="4" fill="#3399FF"/>
  <rect x="172" y="184" width="12" height="4" fill="#3399FF"/>
  <rect x="196" y="184" width="16" height="4" fill="#3399FF"/>
  <rect x="220" y="184" width="12" height="4" fill="#3399FF"/>
  <rect x="48" y="192" width="16" height="4" fill="#3399FF"/>
  <rect x="148" y="192" width="4" height="4" fill="#3399FF"/>
  <rect x="196" y="192" width="12" height="4" fill="#3399FF"/>
  <rect x="216" y="192" width="4" height="4" fill="#3399FF"/>
  <rect x="240" y="192" width="4" height="4" fill="#3399FF"/>
  <rect x="48" y="196" width="4" height="4" fill="#3399FF"/>
  <rect x="64" y="196" width="4" height="4" fill="#3399FF"/>
  <rect x="148" y="196" width="4" height="4" fill="#3399FF"/>
  <rect x="192" y="196" width="4" height="4" fill="#3399FF"/>
  <rect x="208" y="196" width="4" height="4" fill="#3399FF"/>
  <rect x="216" y="196" width="4" height="4" fill="#3399FF"/>
  <rect x="240" y="196" width="4" height="4" fill="#3399FF"/>
  <rect x="48" y="200" width="4" height="4" fill="#3399FF"/>
  <rect x="64" y="200" width="4" height="4" fill="#3399FF"/>
  <rect x="76" y="200" width="12" height="4" fill="#3399FF"/>
  <rect x="100" y="200" width="12" height="4" fill="#3399FF"/>
  <rect x="124" y="200" width="12" height="4" fill="#3399FF"/>
  <rect x="144" y="200" width="12" height="4" fill="#3399FF"/>
  <rect x="192" y="200" width="4" height="4" fill="#3399FF"/>
  <rect x="208" y="200" width="4" height="4" fill="#3399FF"/>
  <rect x="216" y="200" width="4" height="4" fill="#3399FF"/>
  <rect x="240" y="200" width="4" height="4" fill="#3399FF"/>
  <rect x="48" y="204" width="16" height="4" fill="#3399FF"/>
  <rect x="72" y="204" width="4" height="4" fill="#3399FF"/>
  <rect x="88" y="204" width="4" height="4" fill="#3399FF"/>
  <rect x="96" y="204" width="4" height="4" fill="#3399FF"/>
  <rect x="120" y="204" width="4" height="4" fill="#3399FF"/>
  <rect x="136" y="204" width="4" height="4" fill="#3399FF"/>
  <rect x="148" y="204" width="4" height="4" fill="#3399FF"/>
  <rect x="192" y="204" width="4" height="4" fill="#3399FF"/>
  <rect x="208" y="204" width="4" height="4" fill="#3399FF"/>
  <rect x="216" y="204" width="4" height="4" fill="#3399FF"/>
  <rect x="240" y="204" width="4" height="4" fill="#3399FF"/>
  <rect x="48" y="208" width="4" height="4" fill="#3399FF"/>
  <rect x="56" y="208" width="4" height="4" fill="#3399FF"/>
  <rect x="72" y="208" width="20" height="4" fill="#3399FF"/>
  <rect x="100" y="208" width="12" height="4" fill="#3399FF"/>
  <rect x="120" y="208" width="20" height="4" fill="#3399FF"/>
  <rect x="148" y="208" width="4" height="4" fill="#3399FF"/>
  <rect x="192" y="208" width="20" height="4" fill="#3399FF"/>
  <rect x="216" y="208" width="4" height="4" fill="#3399FF"/>
  <rect x="240" y="208" width="4" height="4" fill="#3399FF"/>
  <rect x="48" y="212" width="4" height="4" fill="#3399FF"/>
  <rect x="60" y="212" width="4" height="4" fill="#3399FF"/>
  <rect x="72" y="212" width="4" height="4" fill="#3399FF"/>
  <rect x="112" y="212" width="4" height="4" fill="#3399FF"/>
  <rect x="120" y="212" width="4" height="4" fill="#3399FF"/>
  <rect x="148" y="212" width="4" height="4" fill="#3399FF"/>
  <rect x="160" y="212" width="4" height="4" fill="#3399FF"/>
  <rect x="192" y="212" width="4" height="4" fill="#3399FF"/>
  <rect x="208" y="212" width="4" height="4" fill="#3399FF"/>
  <rect x="216" y="212" width="4" height="4" fill="#3399FF"/>
  <rect x="240" y="212" width="4" height="4" fill="#3399FF"/>
  <rect x="48" y="216" width="4" height="4" fill="#3399FF"/>
  <rect x="64" y="216" width="4" height="4" fill="#3399FF"/>
  <rect x="76" y="216" width="12" height="4" fill="#3399FF"/>
  <rect x="96" y="216" width="16" height="4" fill="#3399FF"/>
  <rect x="124" y="216" width="12" height="4" fill="#3399FF"/>
  <rect x="152" y="216" width="8" height="4" fill="#3399FF"/>
  <rect x="192" y="216" width="4" height="4" fill="#3399FF"/>
  <rect x="208" y="216" width="4" height="4" fill="#3399FF"/>
  <rect x="216" y="216" width="20" height="4" fill="#3399FF"/>
  <rect x="240" y="216" width="20" height="4" fill="#3399FF"/>
</svg>